<?xml version="1.0" encoding="UTF-8"?>
<svg xmlns="http://www.w3.org/2000/svg" xmlns:xlink="http://www.w3.org/1999/xlink" width="595.275591pt" height="841.889764pt" viewBox="0 0 595.275591 841.889764" version="1.1">
<g id="surface1">
  <!--lines-->
  <path style="fill:none;stroke-width:1;stroke-linecap:butt;stroke-linejoin:miter;stroke:rgb(0%,0%,0%);stroke-opacity:1;stroke-miterlimit:4;" d="M 24.999791 9.999749 L 24.999791 3.000196 " transform="matrix(1.610594,0,0,1.610594,136.547986,246.734308)"/>
  <path style="fill:none;stroke-width:1;stroke-linecap:butt;stroke-linejoin:miter;stroke:rgb(0%,0%,0%);stroke-opacity:1;stroke-miterlimit:4;" d="M 24.999791 39.998871 L 24.999791 46.998424 " transform="matrix(1.610594,0,0,1.610594,136.547986,246.734308)"/>
  <path style="fill:none;stroke-width:1;stroke-linecap:square;stroke-linejoin:miter;stroke:rgb(0%,0%,0%);stroke-opacity:1;stroke-miterlimit:4;" d="M 39.99814 25.000523 C 39.99814 33.287935 33.284778 40.001297 24.997366 40.001297 C 16.709954 40.001297 9.996592 33.287935 9.996592 25.000523 C 9.996592 16.713111 16.709954 9.999749 24.997366 9.999749 C 33.284778 9.999749 39.99814 16.713111 39.99814 25.000523 Z M 39.99814 25.000523 " transform="matrix(1.610594,0,0,1.610594,136.547986,246.734308)"/>
  <path style="fill:none;stroke-width:0.883107;stroke-linecap:butt;stroke-linejoin:bevel;stroke:rgb(0%,0%,0%);stroke-opacity:1;stroke-miterlimit:4;" d="M 18.385301 14.859271 L 30.083878 14.859271 L 32.032845 9.860267 L 35.933167 19.860663 L 39.833489 9.860267 L 43.733811 19.860663 L 47.634132 9.860267 L 51.534454 19.860663 L 53.483421 14.861659 L 65.181998 14.861659 " transform="matrix(1.635482,0,0,1.635482,168.302265,207.350274)"/>
  <path style="fill:none;stroke-width:1;stroke-linecap:butt;stroke-linejoin:miter;stroke:rgb(0%,0%,0%);stroke-opacity:1;stroke-miterlimit:4;" d="M 18.978875 15.999513 L 29.375349 15.999513 " transform="matrix(0,2.163068,-2.163068,0,341.076784,248.970841)"/>
  <path style="fill:none;stroke-width:0.75;stroke-linecap:butt;stroke-linejoin:miter;stroke:rgb(0%,0%,0%);stroke-opacity:1;stroke-miterlimit:4;" d="M 4.340168 12.049746 L 12.137523 12.049746 " transform="matrix(0,2.884091,-2.884091,0,341.076784,248.970841)"/>
  <path style="fill:none;stroke-width:0.883107;stroke-linecap:butt;stroke-linejoin:bevel;stroke:rgb(0%,0%,0%);stroke-opacity:1;stroke-miterlimit:4;" d="M 18.385693 14.859271 L 30.084271 14.859271 L 32.033237 9.860267 L 35.933559 19.860663 L 39.833881 9.860267 L 43.734203 19.860663 L 47.634525 9.860267 L 51.534847 19.860663 L 53.483814 14.861659 L 65.182391 14.861659 " transform="matrix(1.635482,0,0,1.635482,313.879748,207.350274)"/>
  <path style="fill:none;stroke-width:1;stroke-linecap:butt;stroke-linejoin:miter;stroke:rgb(0%,0%,0%);stroke-opacity:1;stroke-miterlimit:4;" d="M 18.979977 15.999744 L 29.374646 15.999744 " transform="matrix(-2.163068,0,0,-2.163068,421.195606,150.499159)"/>
  <path style="fill:none;stroke-width:0.75;stroke-linecap:butt;stroke-linejoin:miter;stroke:rgb(0%,0%,0%);stroke-opacity:1;stroke-miterlimit:4;" d="M 4.339641 12.04992 L 12.136996 12.04992 " transform="matrix(-2.884091,0,0,-2.884091,421.195606,150.499159)"/>
  <path style="fill:none;stroke-width:0.883107;stroke-linecap:butt;stroke-linejoin:bevel;stroke:rgb(0%,0%,0%);stroke-opacity:1;stroke-miterlimit:4;" d="M 18.385559 14.858356 L 30.084137 14.858356 L 32.033103 9.859352 L 35.933425 19.859748 L 39.833747 9.859352 L 43.734069 19.859748 L 47.634391 9.859352 L 51.534713 19.859748 L 53.483679 14.860744 L 65.182257 14.860744 " transform="matrix(0,1.635482,-1.635482,0,481.214636,118.79403)"/>
  <path style="fill:none;stroke-width:0.883107;stroke-linecap:butt;stroke-linejoin:bevel;stroke:rgb(0%,0%,0%);stroke-opacity:1;stroke-miterlimit:4;" d="M 18.385711 14.857617 L 30.084288 14.857617 L 32.033255 9.858613 L 35.933576 19.859009 L 39.833898 9.858613 L 43.73422 19.859009 L 47.634542 9.858613 L 51.534864 19.859009 L 53.483831 14.860005 L 65.182408 14.860005 " transform="matrix(1.635482,0,0,1.635482,313.87972,308.290479)"/>
  <path style="fill:none;stroke-width:3.4;stroke-linecap:round;stroke-linejoin:miter;stroke:rgb(0%,0%,0%);stroke-opacity:1;stroke-miterlimit:4;" d="M 345.856458 257.04379 L 345.922782 230.381552 " transform="matrix(0.471172,0,0,0.471172,293.354621,140.978007)"/>
  <path style="fill:none;stroke-width:3.4;stroke-linecap:round;stroke-linejoin:miter;stroke:rgb(0%,0%,0%);stroke-opacity:1;stroke-miterlimit:4;" d="M 345.748681 389.426445 L 345.632615 364.621278 " transform="matrix(0.471172,0,0,0.471172,293.354621,140.978007)"/>
  <path style="fill:none;stroke-width:0.264583;stroke-linecap:butt;stroke-linejoin:miter;stroke:rgb(0%,0%,0%);stroke-opacity:1;stroke-miterlimit:4;" d="M 62.375514 88.747027 L 62.407208 81.65151 L 69.980905 81.723168 " transform="matrix(2.834646,0,0,2.834646,0.000000000000040283,-0.000000000000056843)"/>
  <path style="fill:none;stroke-width:0.264583;stroke-linecap:butt;stroke-linejoin:miter;stroke:rgb(0%,0%,0%);stroke-opacity:1;stroke-miterlimit:4;" d="M 161.288328 79.515551 L 161.087134 88.02907 " transform="matrix(2.834646,0,0,2.834646,0.000000000000040283,-0.000000000000056843)"/>
  <path style="fill:none;stroke-width:0.264583;stroke-linecap:butt;stroke-linejoin:miter;stroke:rgb(0%,0%,0%);stroke-opacity:1;stroke-miterlimit:4;" d="M 148.337526 81.72179 L 161.187731 81.72179 " transform="matrix(2.834646,0,0,2.834646,0.000000000000040283,-0.000000000000056843)"/>
  <path style="fill:none;stroke-width:0.264583;stroke-linecap:butt;stroke-linejoin:miter;stroke:rgb(0%,0%,0%);stroke-opacity:1;stroke-miterlimit:4;" d="M 144.173095 40.831267 L 161.197377 40.894657 L 161.187731 52.514273 " transform="matrix(2.834646,0,0,2.834646,0.000000000000040283,-0.000000000000056843)"/>
  <path style="fill:none;stroke-width:0.264583;stroke-linecap:butt;stroke-linejoin:miter;stroke:rgb(0%,0%,0%);stroke-opacity:1;stroke-miterlimit:4;" d="M 96.980805 81.72179 L 121.337627 81.72179 " transform="matrix(2.834646,0,0,2.834646,0.000000000000040283,-0.000000000000056843)"/>
  <path style="fill:none;stroke-width:0.264583;stroke-linecap:butt;stroke-linejoin:miter;stroke:rgb(0%,0%,0%);stroke-opacity:1;stroke-miterlimit:4;" d="M 108.062987 92.247244 L 107.856281 40.926352 L 126.173162 40.883632 " transform="matrix(2.834646,0,0,2.834646,0.000000000000040283,-0.000000000000056843)"/>
  <path style="fill:none;stroke-width:0.264583;stroke-linecap:butt;stroke-linejoin:miter;stroke:rgb(0%,0%,0%);stroke-opacity:1;stroke-miterlimit:4;" d="M 148.337526 117.33167 L 160.965867 117.375768 L 160.957598 114.463973 " transform="matrix(2.834646,0,0,2.834646,0.000000000000040283,-0.000000000000056843)"/>
  <path style="fill:none;stroke-width:0.264583;stroke-linecap:butt;stroke-linejoin:miter;stroke:rgb(0%,0%,0%);stroke-opacity:1;stroke-miterlimit:4;" d="M 121.337627 117.33167 L 62.375514 117.342695 L 62.375514 113.747393 " transform="matrix(2.834646,0,0,2.834646,0.000000000000040283,-0.000000000000056843)"/>
  <path style="fill:none;stroke-width:0.264583;stroke-linecap:butt;stroke-linejoin:miter;stroke:rgb(0%,0%,0%);stroke-opacity:1;stroke-miterlimit:4;" d="M 108.115352 110.247177 L 108.148425 117.276549 " transform="matrix(2.834646,0,0,2.834646,0.000000000000040283,-0.000000000000056843)"/>
  <path style="fill:none;stroke-width:0.264583;stroke-linecap:butt;stroke-linejoin:miter;stroke:rgb(0%,0%,0%);stroke-opacity:1;stroke-miterlimit:4;" d="M 62.31488 124.673857 L 62.375514 117.342695 " transform="matrix(2.834646,0,0,2.834646,0.000000000000040283,-0.000000000000056843)"/>
  <!--plus and minus-->
  <path style="fill:none;stroke-width:1;stroke-linecap:butt;stroke-linejoin:miter;stroke:rgb(0%,0%,0%);stroke-opacity:1;stroke-miterlimit:4;" d="M 24.999791 13.999147 L 24.999791 19.999456 " transform="matrix(1.610594,0,0,1.610594,136.547986,246.734308)"/>
  <path style="fill:none;stroke-width:1;stroke-linecap:butt;stroke-linejoin:miter;stroke:rgb(0%,0%,0%);stroke-opacity:1;stroke-miterlimit:4;" d="M 27.999946 16.999302 L 21.999637 16.999302 " transform="matrix(1.610594,0,0,1.610594,136.547986,246.734308)"/>
  <path style="fill:none;stroke-width:1;stroke-linecap:butt;stroke-linejoin:miter;stroke:rgb(0%,0%,0%);stroke-opacity:1;stroke-miterlimit:4;" d="M 27.999946 33.49894 L 21.999637 33.49894 " transform="matrix(1.610594,0,0,1.610594,136.547986,246.734308)"/>
  <!--capacitor-->
  <path style="fill:none;stroke-width:1.5;stroke-linecap:butt;stroke-linejoin:miter;stroke:rgb(0%,0%,0%);stroke-opacity:1;stroke-miterlimit:4;" d="M 16.000972 4.999873 C 16.000972 26.999152 16.000972 26.999152 16.000972 26.999152 " transform="matrix(0,2.163068,-2.163068,0,341.076784,248.970841)"/>
  <path style="fill:none;stroke-width:1.5;stroke-linecap:butt;stroke-linejoin:miter;stroke:rgb(0%,0%,0%);stroke-opacity:1;stroke-miterlimit:4;" d="M 19.000545 26.999152 L 19.000545 4.999873 " transform="matrix(0,2.163068,-2.163068,0,341.076784,248.970841)"/>
  <path style="fill:none;stroke-width:1.5;stroke-linecap:butt;stroke-linejoin:miter;stroke:rgb(0%,0%,0%);stroke-opacity:1;stroke-miterlimit:4;" d="M 16.000268 5.000104 C 16.000268 26.999384 16.000268 26.999384 16.000268 26.999384 " transform="matrix(-2.163068,0,0,-2.163068,421.195606,150.499159)"/>
  <path style="fill:none;stroke-width:1.5;stroke-linecap:butt;stroke-linejoin:miter;stroke:rgb(0%,0%,0%);stroke-opacity:1;stroke-miterlimit:4;" d="M 18.999842 26.999384 L 18.999842 5.000104 " transform="matrix(-2.163068,0,0,-2.163068,421.195606,150.499159)"/>
  <!--inductor-->
  <path style="fill:none;stroke-width:3.4;stroke-linecap:round;stroke-linejoin:round;stroke:rgb(0%,0%,0%);stroke-opacity:1;stroke-miterlimit:4;" d="M 366.649024 287.378718 C 366.781672 286.151725 366.665605 284.709178 366.425181 283.06766 C 365.438612 276.310905 360.223889 266.751962 345.682358 267.771693 C 333.70259 268.617324 332.575082 269.404921 329.739732 271.502417 C 327.774884 272.969835 327.584203 276.004157 327.584203 276.004157 M 345.740391 255.435434 C 348.666936 255.816797 355.879669 256.073802 360.497475 259.406582 C 364.501785 262.291675 366.168175 266.834867 366.425181 269.098173 C 367.212778 275.879799 360.223889 285.413871 345.682358 284.39414 C 333.70259 283.548509 332.575082 282.760912 329.739732 280.663416 C 327.774884 279.195998 327.584203 276.161676 327.584203 276.161676 M 366.649024 310.525786 C 366.781672 309.298792 366.665605 307.856246 366.425181 306.214727 C 365.438612 299.457972 360.223889 289.899029 345.682358 290.918761 C 333.70259 291.764391 332.575082 292.551988 329.739732 294.649484 C 327.774884 296.116902 327.584203 299.151224 327.584203 299.151224 M 366.649024 287.934182 C 366.781672 289.161175 366.665605 290.603722 366.425181 292.24524 C 365.438612 299.001995 360.223889 308.560938 345.682358 307.541207 C 333.70259 306.695576 332.575082 305.907979 329.739732 303.810483 C 327.774884 302.343065 327.584203 299.308743 327.584203 299.308743 M 366.649024 311.09783 C 366.781672 312.324824 366.665605 313.76737 366.425181 315.408888 C 365.438612 322.165643 360.223889 331.724586 345.682358 330.704855 C 333.70259 329.859224 332.575082 329.071627 329.739732 326.974132 C 327.774884 325.515004 327.584203 322.472392 327.584203 322.472392 M 345.765262 366.345701 C 348.194378 366.65245 355.07549 365.947757 359.975174 363.311379 C 365.430321 360.376543 366.483214 355.949418 366.425181 352.533733 C 366.333985 347.857893 360.223889 336.218036 345.682358 337.237767 C 333.70259 338.083397 332.575082 338.870995 329.739732 340.96849 C 327.774884 342.427618 327.584203 345.47023 327.584203 345.47023 M 366.649024 334.253188 C 366.781672 335.480181 366.665605 336.922728 366.425181 338.564246 C 365.438612 345.321001 360.223889 354.879944 345.682358 353.860213 C 333.70259 353.014582 332.575082 352.226985 329.739732 350.129489 C 327.774884 348.670362 327.584203 345.62775 327.584203 345.62775 M 327.584203 322.331453 C 327.584203 322.331453 327.774884 319.288841 329.739732 317.829713 C 332.575082 315.723927 333.70259 314.93633 345.682358 314.09899 C 360.223889 313.070968 365.438612 322.638202 366.425181 329.394957 C 366.665605 331.044765 366.789963 332.479021 366.649024 333.706015 L 366.649024 334.269769 " transform="matrix(0.471172,0,0,0.471172,293.354621,140.978007)"/>
  <!--  dot-->
  <path style="fill-rule:nonzero;fill:rgb(0%,0%,0%);fill-opacity:1;stroke-width:0.264999;stroke-linecap:butt;stroke-linejoin:miter;stroke:rgb(100%,100%,100%);stroke-opacity:1;stroke-miterlimit:4;" d="M 109.602255 81.72179 L 109.602255 81.72179 C 109.602255 82.658855 108.844334 83.419532 107.907268 83.422288 C 106.970202 83.425045 106.208147 82.668502 106.202635 81.731436 C 106.197123 80.79437 106.952288 80.029559 107.889354 80.021291 C 108.82642 80.0144 109.592609 80.766809 109.602255 81.703875 " transform="matrix(2.834646,0,0,2.834646,0.000000000000040283,-0.000000000000056843)"/>
  <path style="fill-rule:nonzero;fill:rgb(0%,0%,0%);fill-opacity:1;stroke-width:0.264999;stroke-linecap:butt;stroke-linejoin:miter;stroke:rgb(100%,100%,100%);stroke-opacity:1;stroke-miterlimit:4;" d="M 109.789668 117.288951 L 109.789668 117.288951 C 109.789668 118.226017 109.031747 118.986694 108.094681 118.98945 C 107.157616 118.990828 106.395561 118.235663 106.390048 117.298597 C 106.384536 116.361532 107.139701 115.59672 108.076767 115.588452 C 109.013833 115.581562 109.780022 116.332593 109.789668 117.269659 " transform="matrix(2.834646,0,0,2.834646,0.000000000000040283,-0.000000000000056843)"/>
  <path style="fill-rule:nonzero;fill:rgb(0%,0%,0%);fill-opacity:1;stroke-width:0.264999;stroke-linecap:butt;stroke-linejoin:miter;stroke:rgb(100%,100%,100%);stroke-opacity:1;stroke-miterlimit:4;" d="M 64.076012 117.276549 L 64.076012 117.276549 C 64.076012 118.213615 63.316714 118.974292 62.379648 118.977048 C 61.442582 118.978426 60.680527 118.223261 60.675015 117.286195 C 60.670881 116.349129 61.424667 115.584318 62.361733 115.57605 C 63.298799 115.56916 64.064988 116.321568 64.076012 117.257256 " transform="matrix(2.834646,0,0,2.834646,0.000000000000040283,-0.000000000000056843)"/>
  <path style="fill-rule:nonzero;fill:rgb(0%,0%,0%);fill-opacity:1;stroke-width:0.264999;stroke-linecap:butt;stroke-linejoin:miter;stroke:rgb(100%,100%,100%);stroke-opacity:1;stroke-miterlimit:4;" d="M 162.88823 81.72179 L 162.88823 81.72179 C 162.88823 82.658855 162.130309 83.419532 161.193243 83.422288 C 160.256177 83.425045 159.494122 82.668502 159.48861 81.731436 C 159.483098 80.79437 160.236885 80.029559 161.17395 80.021291 C 162.111016 80.0144 162.878583 80.766809 162.88823 81.703875 " transform="matrix(2.834646,0,0,2.834646,0.000000000000040283,-0.000000000000056843)"/>
  <!--  voltage text-->
  <path style=" stroke:none;fill-rule:nonzero;fill:rgb(0%,0%,0%);fill-opacity:1;" d="M 40.984375 289.441406 L 40.984375 290.625 L 34.363281 290.625 C 34.351563 290.328125 34.398438 290.042969 34.503906 289.769531 C 34.671875 289.320313 34.941406 288.878906 35.3125 288.4375 C 35.683594 288.003906 36.222656 287.496094 36.925781 286.917969 C 38.011719 286.027344 38.746094 285.320313 39.132813 284.796875 C 39.511719 284.277344 39.703125 283.785156 39.707031 283.316406 C 39.703125 282.832031 39.527344 282.421875 39.183594 282.085938 C 38.832031 281.753906 38.378906 281.585938 37.820313 281.582031 C 37.226563 281.585938 36.753906 281.761719 36.398438 282.117188 C 36.042969 282.472656 35.863281 282.964844 35.859375 283.589844 L 34.59375 283.460938 C 34.679688 282.519531 35.003906 281.800781 35.570313 281.304688 C 36.132813 280.8125 36.890625 280.566406 37.847656 280.5625 C 38.804688 280.566406 39.566406 280.832031 40.128906 281.363281 C 40.6875 281.898438 40.96875 282.558594 40.972656 283.34375 C 40.96875 283.746094 40.886719 284.140625 40.726563 284.527344 C 40.558594 284.917969 40.285156 285.328125 39.910156 285.753906 C 39.527344 286.183594 38.894531 286.769531 38.011719 287.515625 C 37.269531 288.136719 36.796875 288.558594 36.589844 288.777344 C 36.378906 289 36.207031 289.21875 36.070313 289.441406 Z M 40.984375 289.441406 "/>
  <path style=" stroke:none;fill-rule:nonzero;fill:rgb(0%,0%,0%);fill-opacity:1;" d="M 42.304688 285.683594 C 42.300781 284.503906 42.421875 283.550781 42.667969 282.824219 C 42.910156 282.105469 43.273438 281.546875 43.753906 281.152344 C 44.234375 280.761719 44.839844 280.566406 45.570313 280.5625 C 46.105469 280.566406 46.578125 280.671875 46.984375 280.886719 C 47.390625 281.105469 47.722656 281.417969 47.988281 281.824219 C 48.25 282.230469 48.460938 282.726563 48.613281 283.3125 C 48.761719 283.898438 48.835938 284.691406 48.839844 285.683594 C 48.835938 286.863281 48.714844 287.8125 48.476563 288.53125 C 48.230469 289.257813 47.867188 289.816406 47.390625 290.207031 C 46.90625 290.601563 46.300781 290.792969 45.570313 290.796875 C 44.601563 290.792969 43.84375 290.449219 43.296875 289.757813 C 42.632813 288.921875 42.300781 287.566406 42.304688 285.683594 Z M 43.570313 285.683594 C 43.566406 287.332031 43.757813 288.425781 44.144531 288.96875 C 44.527344 289.515625 45.003906 289.789063 45.570313 289.785156 C 46.132813 289.789063 46.609375 289.515625 46.996094 288.964844 C 47.378906 288.421875 47.570313 287.328125 47.574219 285.683594 C 47.570313 284.035156 47.378906 282.9375 46.996094 282.394531 C 46.609375 281.855469 46.128906 281.585938 45.558594 281.582031 C 44.992188 281.585938 44.539063 281.824219 44.203125 282.296875 C 43.777344 282.914063 43.566406 284.042969 43.570313 285.683594 Z M 43.570313 285.683594 "/>
  <path style=" stroke:none;fill-rule:nonzero;fill:rgb(0%,0%,0%);fill-opacity:1;" d="M 59.058594 287.964844 L 60.269531 288.121094 C 60.132813 288.960938 59.792969 289.613281 59.253906 290.082031 C 58.707031 290.554688 58.039063 290.789063 57.246094 290.789063 C 56.25 290.789063 55.453125 290.464844 54.851563 289.816406 C 54.246094 289.167969 53.941406 288.238281 53.945313 287.023438 C 53.941406 286.242188 54.074219 285.554688 54.335938 284.964844 C 54.59375 284.378906 54.988281 283.9375 55.519531 283.640625 C 56.050781 283.347656 56.628906 283.203125 57.253906 283.199219 C 58.042969 283.203125 58.6875 283.402344 59.1875 283.800781 C 59.6875 284.203125 60.007813 284.769531 60.152344 285.496094 L 58.957031 285.683594 C 58.839844 285.199219 58.636719 284.832031 58.351563 284.582031 C 58.058594 284.339844 57.710938 284.214844 57.300781 284.210938 C 56.679688 284.214844 56.175781 284.4375 55.789063 284.878906 C 55.402344 285.328125 55.207031 286.03125 55.210938 286.988281 C 55.207031 287.964844 55.394531 288.671875 55.769531 289.113281 C 56.140625 289.558594 56.628906 289.78125 57.234375 289.777344 C 57.714844 289.78125 58.117188 289.632813 58.441406 289.332031 C 58.765625 289.039063 58.972656 288.582031 59.058594 287.964844 Z M 59.058594 287.964844 "/>
  <path style=" stroke:none;fill-rule:nonzero;fill:rgb(0%,0%,0%);fill-opacity:1;" d="M 60.863281 286.996094 C 60.859375 285.652344 61.234375 284.65625 61.984375 284.007813 C 62.605469 283.472656 63.367188 283.203125 64.269531 283.199219 C 65.265625 283.203125 66.082031 283.53125 66.714844 284.183594 C 67.347656 284.839844 67.664063 285.742188 67.664063 286.890625 C 67.664063 287.828125 67.523438 288.5625 67.242188 289.097656 C 66.960938 289.632813 66.550781 290.046875 66.019531 290.34375 C 65.480469 290.640625 64.898438 290.789063 64.269531 290.789063 C 63.25 290.789063 62.425781 290.464844 61.800781 289.8125 C 61.171875 289.160156 60.859375 288.222656 60.863281 286.996094 Z M 62.128906 286.996094 C 62.125 287.929688 62.328125 288.625 62.734375 289.085938 C 63.136719 289.550781 63.648438 289.78125 64.269531 289.777344 C 64.875 289.78125 65.382813 289.550781 65.792969 289.082031 C 66.195313 288.621094 66.398438 287.910156 66.402344 286.953125 C 66.398438 286.058594 66.195313 285.378906 65.789063 284.914063 C 65.378906 284.453125 64.871094 284.222656 64.269531 284.21875 C 63.648438 284.222656 63.136719 284.453125 62.734375 284.910156 C 62.328125 285.375 62.125 286.070313 62.128906 286.996094 Z M 62.128906 286.996094 "/>
  <path style=" stroke:none;fill-rule:nonzero;fill:rgb(0%,0%,0%);fill-opacity:1;" d="M 68.617188 288.457031 L 69.835938 288.265625 C 69.898438 288.753906 70.089844 289.128906 70.40625 289.386719 C 70.714844 289.652344 71.152344 289.78125 71.714844 289.777344 C 72.277344 289.78125 72.695313 289.667969 72.972656 289.433594 C 73.242188 289.207031 73.378906 288.933594 73.382813 288.621094 C 73.378906 288.34375 73.257813 288.125 73.019531 287.964844 C 72.851563 287.855469 72.433594 287.71875 71.761719 287.546875 C 70.859375 287.324219 70.234375 287.125 69.886719 286.957031 C 69.535156 286.792969 69.269531 286.5625 69.09375 286.265625 C 68.910156 285.972656 68.820313 285.648438 68.824219 285.292969 C 68.820313 284.972656 68.894531 284.675781 69.046875 284.394531 C 69.191406 284.121094 69.394531 283.890625 69.652344 283.707031 C 69.839844 283.570313 70.097656 283.449219 70.433594 283.347656 C 70.761719 283.25 71.117188 283.203125 71.496094 283.199219 C 72.0625 283.203125 72.5625 283.285156 72.996094 283.445313 C 73.425781 283.613281 73.742188 283.835938 73.949219 284.113281 C 74.152344 284.398438 74.296875 284.773438 74.375 285.238281 L 73.171875 285.402344 C 73.113281 285.03125 72.953125 284.738281 72.695313 284.527344 C 72.429688 284.320313 72.0625 284.214844 71.585938 284.210938 C 71.019531 284.214844 70.613281 284.308594 70.375 284.492188 C 70.128906 284.683594 70.007813 284.902344 70.011719 285.148438 C 70.007813 285.308594 70.058594 285.453125 70.164063 285.578125 C 70.257813 285.714844 70.417969 285.824219 70.636719 285.90625 C 70.757813 285.957031 71.117188 286.0625 71.722656 286.222656 C 72.589844 286.457031 73.199219 286.644531 73.542969 286.792969 C 73.886719 286.941406 74.15625 287.160156 74.351563 287.441406 C 74.546875 287.726563 74.644531 288.074219 74.648438 288.492188 C 74.644531 288.902344 74.523438 289.289063 74.289063 289.652344 C 74.046875 290.015625 73.703125 290.296875 73.253906 290.492188 C 72.800781 290.691406 72.289063 290.789063 71.722656 290.789063 C 70.777344 290.789063 70.058594 290.59375 69.566406 290.203125 C 69.066406 289.8125 68.75 289.230469 68.617188 288.457031 Z M 68.617188 288.457031 "/>
  <path style=" stroke:none;fill-rule:nonzero;fill:rgb(0%,0%,0%);fill-opacity:1;" d="M 78.460938 293.570313 C 77.78125 292.710938 77.207031 291.710938 76.738281 290.5625 C 76.265625 289.417969 76.03125 288.230469 76.035156 286.996094 C 76.03125 285.914063 76.207031 284.875 76.5625 283.878906 C 76.96875 282.730469 77.601563 281.582031 78.460938 280.433594 L 79.34375 280.433594 C 78.789063 281.386719 78.425781 282.0625 78.25 282.460938 C 77.96875 283.09375 77.75 283.75 77.59375 284.429688 C 77.394531 285.289063 77.296875 286.144531 77.300781 287 C 77.296875 289.195313 77.976563 291.382813 79.34375 293.570313 Z M 78.460938 293.570313 "/>
  <path style=" stroke:none;fill-rule:nonzero;fill:rgb(0%,0%,0%);fill-opacity:1;" d="M 84.375 290.625 L 84.375 288.226563 L 80.027344 288.226563 L 80.027344 287.097656 L 84.597656 280.601563 L 85.605469 280.601563 L 85.605469 287.097656 L 86.957031 287.097656 L 86.957031 288.226563 L 85.605469 288.226563 L 85.605469 290.625 Z M 84.375 287.097656 L 84.375 282.578125 L 81.234375 287.097656 Z M 84.375 287.097656 "/>
  <path style=" stroke:none;fill-rule:nonzero;fill:rgb(0%,0%,0%);fill-opacity:1;" d="M 91.242188 289.523438 L 91.421875 290.609375 C 91.074219 290.683594 90.765625 290.71875 90.492188 290.722656 C 90.042969 290.71875 89.695313 290.652344 89.449219 290.511719 C 89.203125 290.371094 89.027344 290.183594 88.929688 289.953125 C 88.828125 289.722656 88.78125 289.238281 88.78125 288.5 L 88.78125 284.320313 L 87.878906 284.320313 L 87.878906 283.363281 L 88.78125 283.363281 L 88.78125 281.566406 L 90.003906 280.828125 L 90.003906 283.363281 L 91.242188 283.363281 L 91.242188 284.320313 L 90.003906 284.320313 L 90.003906 288.566406 C 90 288.921875 90.023438 289.148438 90.070313 289.246094 C 90.113281 289.347656 90.183594 289.425781 90.28125 289.484375 C 90.378906 289.542969 90.519531 289.570313 90.703125 289.570313 C 90.835938 289.570313 91.015625 289.554688 91.242188 289.523438 Z M 91.242188 289.523438 "/>
  <path style=" stroke:none;fill-rule:nonzero;fill:rgb(0%,0%,0%);fill-opacity:1;" d="M 91.96875 287.617188 L 91.96875 286.378906 L 95.75 286.378906 L 95.75 287.617188 Z M 91.96875 287.617188 "/>
  <path style=" stroke:none;fill-rule:nonzero;fill:rgb(0%,0%,0%);fill-opacity:1;" d="M 101.402344 290.625 L 100.171875 290.625 L 100.171875 282.785156 C 99.875 283.066406 99.484375 283.351563 99.007813 283.632813 C 98.523438 283.917969 98.09375 284.128906 97.710938 284.265625 L 97.710938 283.078125 C 98.398438 282.757813 99 282.367188 99.515625 281.902344 C 100.03125 281.445313 100.394531 281 100.609375 280.5625 L 101.402344 280.5625 Z M 101.402344 290.625 "/>
  <path style=" stroke:none;fill-rule:nonzero;fill:rgb(0%,0%,0%);fill-opacity:1;" d="M 104.554688 288 L 105.847656 287.890625 C 105.941406 288.519531 106.160156 288.992188 106.511719 289.308594 C 106.855469 289.628906 107.277344 289.789063 107.773438 289.785156 C 108.363281 289.789063 108.863281 289.566406 109.277344 289.117188 C 109.683594 288.671875 109.890625 288.078125 109.894531 287.335938 C 109.890625 286.640625 109.691406 286.085938 109.300781 285.675781 C 108.902344 285.273438 108.386719 285.070313 107.753906 285.066406 C 107.355469 285.070313 107 285.160156 106.679688 285.335938 C 106.359375 285.519531 106.109375 285.753906 105.929688 286.039063 L 104.773438 285.886719 L 105.742188 280.738281 L 110.726563 280.738281 L 110.726563 281.914063 L 106.726563 281.914063 L 106.1875 284.609375 C 106.789063 284.191406 107.417969 283.980469 108.082031 283.980469 C 108.953125 283.980469 109.691406 284.285156 110.296875 284.890625 C 110.894531 285.496094 111.195313 286.273438 111.199219 287.226563 C 111.195313 288.132813 110.933594 288.917969 110.40625 289.578125 C 109.761719 290.390625 108.882813 290.792969 107.773438 290.796875 C 106.859375 290.792969 106.113281 290.542969 105.539063 290.03125 C 104.960938 289.523438 104.632813 288.84375 104.554688 288 Z M 104.554688 288 "/>
  <path style=" stroke:none;fill-rule:nonzero;fill:rgb(0%,0%,0%);fill-opacity:1;" d="M 112.632813 282.324219 C 112.628906 281.804688 112.816406 281.359375 113.1875 280.988281 C 113.558594 280.621094 114.003906 280.4375 114.527344 280.433594 C 115.054688 280.4375 115.503906 280.621094 115.871094 280.988281 C 116.238281 281.359375 116.421875 281.804688 116.425781 282.324219 C 116.421875 282.851563 116.234375 283.300781 115.867188 283.671875 C 115.492188 284.042969 115.046875 284.226563 114.527344 284.226563 C 114.003906 284.226563 113.558594 284.042969 113.1875 283.671875 C 112.816406 283.304688 112.628906 282.855469 112.632813 282.324219 Z M 113.378906 282.324219 C 113.375 282.648438 113.488281 282.921875 113.714844 283.144531 C 113.941406 283.371094 114.214844 283.484375 114.535156 283.480469 C 114.847656 283.484375 115.117188 283.371094 115.34375 283.144531 C 115.570313 282.921875 115.683594 282.648438 115.683594 282.324219 C 115.683594 282.007813 115.570313 281.738281 115.34375 281.511719 C 115.117188 281.289063 114.847656 281.175781 114.535156 281.171875 C 114.214844 281.175781 113.941406 281.289063 113.714844 281.511719 C 113.488281 281.738281 113.375 282.007813 113.378906 282.324219 Z M 113.378906 282.324219 "/>
  <path style=" stroke:none;fill-rule:nonzero;fill:rgb(0%,0%,0%);fill-opacity:1;" d="M 119.085938 293.570313 L 118.203125 293.570313 C 119.5625 291.382813 120.242188 289.195313 120.246094 287 C 120.242188 286.144531 120.144531 285.296875 119.953125 284.453125 C 119.796875 283.773438 119.582031 283.117188 119.304688 282.484375 C 119.125 282.078125 118.757813 281.394531 118.203125 280.433594 L 119.085938 280.433594 C 119.9375 281.582031 120.570313 282.730469 120.984375 283.878906 C 121.332031 284.875 121.507813 285.914063 121.511719 286.996094 C 121.507813 288.230469 121.273438 289.417969 120.804688 290.5625 C 120.332031 291.710938 119.757813 292.710938 119.085938 293.570313 Z M 119.085938 293.570313 "/>
  <path style=" stroke:none;fill-rule:nonzero;fill:rgb(0%,0%,0%);fill-opacity:1;" d="M 129.855469 290.625 L 125.972656 280.601563 L 127.40625 280.601563 L 130.011719 287.882813 C 130.222656 288.46875 130.398438 289.015625 130.539063 289.523438 C 130.691406 288.976563 130.871094 288.429688 131.078125 287.882813 L 133.785156 280.601563 L 135.140625 280.601563 L 131.214844 290.625 Z M 129.855469 290.625 "/>
  <!--  other text-->
  <path style=" stroke:none;fill-rule:nonzero;fill:rgb(0%,0%,0%);fill-opacity:1;" d="M 221.644531 216.921875 L 220.414063 216.921875 L 220.414063 209.082031 C 220.117188 209.363281 219.726563 209.648438 219.25 209.929688 C 218.765625 210.214844 218.335938 210.425781 217.953125 210.5625 L 217.953125 209.375 C 218.640625 209.054688 219.242188 208.664063 219.757813 208.199219 C 220.273438 207.742188 220.636719 207.296875 220.851563 206.859375 L 221.644531 206.859375 Z M 221.644531 216.921875 "/>
  <path style=" stroke:none;fill-rule:nonzero;fill:rgb(0%,0%,0%);fill-opacity:1;" d="M 224.796875 214.296875 L 226.089844 214.1875 C 226.183594 214.816406 226.402344 215.289063 226.753906 215.605469 C 227.097656 215.925781 227.519531 216.085938 228.015625 216.082031 C 228.605469 216.085938 229.105469 215.863281 229.519531 215.414063 C 229.925781 214.96875 230.132813 214.375 230.136719 213.632813 C 230.132813 212.9375 229.933594 212.382813 229.542969 211.972656 C 229.144531 211.570313 228.628906 211.367188 227.996094 211.363281 C 227.597656 211.367188 227.242188 211.457031 226.921875 211.632813 C 226.601563 211.816406 226.351563 212.050781 226.171875 212.335938 L 225.015625 212.183594 L 225.984375 207.035156 L 230.96875 207.035156 L 230.96875 208.210938 L 226.96875 208.210938 L 226.429688 210.90625 C 227.03125 210.488281 227.660156 210.277344 228.324219 210.277344 C 229.195313 210.277344 229.933594 210.582031 230.539063 211.1875 C 231.136719 211.792969 231.4375 212.570313 231.441406 213.523438 C 231.4375 214.429688 231.175781 215.214844 230.648438 215.875 C 230.003906 216.6875 229.125 217.089844 228.015625 217.09375 C 227.101563 217.089844 226.355469 216.839844 225.78125 216.328125 C 225.203125 215.820313 224.875 215.140625 224.796875 214.296875 Z M 224.796875 214.296875 "/>
  <path style=" stroke:none;fill-rule:nonzero;fill:rgb(0%,0%,0%);fill-opacity:1;" d="M 232.585938 211.980469 C 232.582031 210.800781 232.703125 209.847656 232.949219 209.121094 C 233.191406 208.402344 233.554688 207.84375 234.035156 207.449219 C 234.515625 207.058594 235.121094 206.863281 235.851563 206.859375 C 236.386719 206.863281 236.859375 206.96875 237.265625 207.183594 C 237.671875 207.402344 238.003906 207.714844 238.269531 208.121094 C 238.53125 208.527344 238.742188 209.023438 238.894531 209.609375 C 239.042969 210.195313 239.117188 210.988281 239.121094 211.980469 C 239.117188 213.160156 238.996094 214.109375 238.757813 214.828125 C 238.511719 215.554688 238.148438 216.113281 237.671875 216.503906 C 237.1875 216.898438 236.582031 217.089844 235.851563 217.09375 C 234.882813 217.089844 234.125 216.746094 233.578125 216.054688 C 232.914063 215.21875 232.582031 213.863281 232.585938 211.980469 Z M 233.851563 211.980469 C 233.847656 213.628906 234.039063 214.722656 234.425781 215.265625 C 234.808594 215.8125 235.285156 216.085938 235.851563 216.082031 C 236.414063 216.085938 236.890625 215.8125 237.277344 215.261719 C 237.660156 214.71875 237.851563 213.625 237.855469 211.980469 C 237.851563 210.332031 237.660156 209.234375 237.277344 208.691406 C 236.890625 208.152344 236.410156 207.882813 235.839844 207.878906 C 235.273438 207.882813 234.820313 208.121094 234.484375 208.59375 C 234.058594 209.210938 233.847656 210.339844 233.851563 211.980469 Z M 233.851563 211.980469 "/>
  <path style=" stroke:none;fill-rule:nonzero;fill:rgb(0%,0%,0%);fill-opacity:1;" d="M 244.34375 215.738281 L 246.53125 215.738281 C 245.144531 214.582031 244.453125 213.171875 244.453125 211.5 C 244.453125 210.597656 244.632813 209.785156 245 209.0625 C 245.359375 208.34375 245.875 207.773438 246.542969 207.355469 C 247.207031 206.941406 248.007813 206.734375 248.945313 206.730469 C 249.867188 206.734375 250.636719 206.925781 251.257813 207.304688 C 251.871094 207.691406 252.378906 208.238281 252.78125 208.953125 C 253.175781 209.667969 253.375 210.519531 253.378906 211.5 C 253.375 213.171875 252.683594 214.582031 251.300781 215.738281 L 253.488281 215.738281 L 253.488281 216.921875 L 249.59375 216.921875 L 249.59375 215.8125 C 251.210938 215.0625 252.023438 213.691406 252.027344 211.707031 C 252.023438 210.589844 251.738281 209.671875 251.167969 208.949219 C 250.597656 208.226563 249.851563 207.863281 248.9375 207.863281 C 247.992188 207.863281 247.238281 208.226563 246.675781 208.953125 C 246.105469 209.679688 245.824219 210.574219 245.828125 211.636719 C 245.824219 213.648438 246.628906 215.042969 248.246094 215.8125 L 248.246094 216.921875 L 244.34375 216.921875 Z M 244.34375 215.738281 "/>
  <path style=" stroke:none;fill-rule:nonzero;fill:rgb(0%,0%,0%);fill-opacity:1;" d="M 364.011719 215.097656 L 362.78125 215.097656 L 362.78125 207.257813 C 362.484375 207.539063 362.09375 207.824219 361.617188 208.105469 C 361.132813 208.390625 360.703125 208.601563 360.320313 208.738281 L 360.320313 207.550781 C 361.007813 207.230469 361.609375 206.839844 362.125 206.375 C 362.640625 205.917969 363.003906 205.472656 363.21875 205.035156 L 364.011719 205.035156 Z M 364.011719 215.097656 "/>
  <path style=" stroke:none;fill-rule:nonzero;fill:rgb(0%,0%,0%);fill-opacity:1;" d="M 367.167969 210.15625 C 367.164063 208.976563 367.285156 208.023438 367.53125 207.296875 C 367.773438 206.578125 368.136719 206.019531 368.617188 205.625 C 369.097656 205.234375 369.703125 205.039063 370.433594 205.035156 C 370.96875 205.039063 371.441406 205.144531 371.847656 205.359375 C 372.253906 205.578125 372.585938 205.890625 372.851563 206.296875 C 373.113281 206.703125 373.324219 207.199219 373.476563 207.785156 C 373.625 208.371094 373.699219 209.164063 373.703125 210.15625 C 373.699219 211.335938 373.578125 212.285156 373.339844 213.003906 C 373.09375 213.730469 372.730469 214.289063 372.253906 214.679688 C 371.769531 215.074219 371.164063 215.265625 370.433594 215.269531 C 369.464844 215.265625 368.707031 214.921875 368.160156 214.230469 C 367.496094 213.394531 367.164063 212.039063 367.167969 210.15625 Z M 368.433594 210.15625 C 368.429688 211.804688 368.621094 212.898438 369.007813 213.441406 C 369.390625 213.988281 369.867188 214.261719 370.433594 214.257813 C 370.996094 214.261719 371.472656 213.988281 371.859375 213.4375 C 372.242188 212.894531 372.433594 211.800781 372.4375 210.15625 C 372.433594 208.507813 372.242188 207.410156 371.859375 206.867188 C 371.472656 206.328125 370.992188 206.058594 370.421875 206.054688 C 369.855469 206.058594 369.402344 206.296875 369.066406 206.769531 C 368.640625 207.386719 368.429688 208.515625 368.433594 210.15625 Z M 368.433594 210.15625 "/>
  <path style=" stroke:none;fill-rule:nonzero;fill:rgb(0%,0%,0%);fill-opacity:1;" d="M 374.953125 210.15625 C 374.949219 208.976563 375.070313 208.023438 375.316406 207.296875 C 375.558594 206.578125 375.921875 206.019531 376.402344 205.625 C 376.882813 205.234375 377.488281 205.039063 378.21875 205.035156 C 378.753906 205.039063 379.226563 205.144531 379.632813 205.359375 C 380.039063 205.578125 380.371094 205.890625 380.636719 206.296875 C 380.898438 206.703125 381.109375 207.199219 381.261719 207.785156 C 381.410156 208.371094 381.484375 209.164063 381.488281 210.15625 C 381.484375 211.335938 381.363281 212.285156 381.125 213.003906 C 380.878906 213.730469 380.515625 214.289063 380.039063 214.679688 C 379.554688 215.074219 378.949219 215.265625 378.21875 215.269531 C 377.25 215.265625 376.492188 214.921875 375.945313 214.230469 C 375.28125 213.394531 374.949219 212.039063 374.953125 210.15625 Z M 376.21875 210.15625 C 376.214844 211.804688 376.40625 212.898438 376.792969 213.441406 C 377.175781 213.988281 377.652344 214.261719 378.21875 214.257813 C 378.78125 214.261719 379.257813 213.988281 379.644531 213.4375 C 380.027344 212.894531 380.21875 211.800781 380.222656 210.15625 C 380.21875 208.507813 380.027344 207.410156 379.644531 206.867188 C 379.257813 206.328125 378.777344 206.058594 378.207031 206.054688 C 377.640625 206.058594 377.1875 206.296875 376.851563 206.769531 C 376.425781 207.386719 376.214844 208.515625 376.21875 210.15625 Z M 376.21875 210.15625 "/>
  <path style=" stroke:none;fill-rule:nonzero;fill:rgb(0%,0%,0%);fill-opacity:1;" d="M 386.710938 213.914063 L 388.898438 213.914063 C 387.511719 212.757813 386.820313 211.347656 386.820313 209.675781 C 386.820313 208.773438 387 207.960938 387.367188 207.238281 C 387.726563 206.519531 388.242188 205.949219 388.910156 205.53125 C 389.574219 205.117188 390.375 204.910156 391.3125 204.90625 C 392.234375 204.910156 393.003906 205.101563 393.625 205.480469 C 394.238281 205.867188 394.746094 206.414063 395.148438 207.128906 C 395.542969 207.84375 395.742188 208.695313 395.746094 209.675781 C 395.742188 211.347656 395.050781 212.757813 393.667969 213.914063 L 395.855469 213.914063 L 395.855469 215.097656 L 391.960938 215.097656 L 391.960938 213.988281 C 393.578125 213.238281 394.390625 211.867188 394.394531 209.882813 C 394.390625 208.765625 394.105469 207.847656 393.535156 207.125 C 392.964844 206.402344 392.21875 206.039063 391.304688 206.039063 C 390.359375 206.039063 389.605469 206.402344 389.042969 207.128906 C 388.472656 207.855469 388.191406 208.75 388.195313 209.8125 C 388.191406 211.824219 388.996094 213.21875 390.613281 213.988281 L 390.613281 215.097656 L 386.710938 215.097656 Z M 386.710938 213.914063 "/>
  <path style=" stroke:none;fill-rule:nonzero;fill:rgb(0%,0%,0%);fill-opacity:1;" d="M 367.761719 360.597656 L 366.53125 360.597656 L 366.53125 352.757813 C 366.234375 353.039063 365.84375 353.324219 365.367188 353.605469 C 364.882813 353.890625 364.453125 354.101563 364.070313 354.238281 L 364.070313 353.050781 C 364.757813 352.730469 365.359375 352.339844 365.875 351.875 C 366.390625 351.417969 366.753906 350.972656 366.96875 350.535156 L 367.761719 350.535156 Z M 367.761719 360.597656 "/>
  <path style=" stroke:none;fill-rule:nonzero;fill:rgb(0%,0%,0%);fill-opacity:1;" d="M 370.917969 355.65625 C 370.914063 354.476563 371.035156 353.523438 371.28125 352.796875 C 371.523438 352.078125 371.886719 351.519531 372.367188 351.125 C 372.847656 350.734375 373.453125 350.539063 374.183594 350.535156 C 374.71875 350.539063 375.191406 350.644531 375.597656 350.859375 C 376.003906 351.078125 376.335938 351.390625 376.601563 351.796875 C 376.863281 352.203125 377.074219 352.699219 377.226563 353.285156 C 377.375 353.871094 377.449219 354.664063 377.453125 355.65625 C 377.449219 356.835938 377.328125 357.785156 377.089844 358.503906 C 376.84375 359.230469 376.480469 359.789063 376.003906 360.179688 C 375.519531 360.574219 374.914063 360.765625 374.183594 360.769531 C 373.214844 360.765625 372.457031 360.421875 371.910156 359.730469 C 371.246094 358.894531 370.914063 357.539063 370.917969 355.65625 Z M 372.183594 355.65625 C 372.179688 357.304688 372.371094 358.398438 372.757813 358.941406 C 373.140625 359.488281 373.617188 359.761719 374.183594 359.757813 C 374.746094 359.761719 375.222656 359.488281 375.609375 358.9375 C 375.992188 358.394531 376.183594 357.300781 376.1875 355.65625 C 376.183594 354.007813 375.992188 352.910156 375.609375 352.367188 C 375.222656 351.828125 374.742188 351.558594 374.171875 351.554688 C 373.605469 351.558594 373.152344 351.796875 372.816406 352.269531 C 372.390625 352.886719 372.179688 354.015625 372.183594 355.65625 Z M 372.183594 355.65625 "/>
  <path style=" stroke:none;fill-rule:nonzero;fill:rgb(0%,0%,0%);fill-opacity:1;" d="M 378.703125 355.65625 C 378.699219 354.476563 378.820313 353.523438 379.066406 352.796875 C 379.308594 352.078125 379.671875 351.519531 380.152344 351.125 C 380.632813 350.734375 381.238281 350.539063 381.96875 350.535156 C 382.503906 350.539063 382.976563 350.644531 383.382813 350.859375 C 383.789063 351.078125 384.121094 351.390625 384.386719 351.796875 C 384.648438 352.203125 384.859375 352.699219 385.011719 353.285156 C 385.160156 353.871094 385.234375 354.664063 385.238281 355.65625 C 385.234375 356.835938 385.113281 357.785156 384.875 358.503906 C 384.628906 359.230469 384.265625 359.789063 383.789063 360.179688 C 383.304688 360.574219 382.699219 360.765625 381.96875 360.769531 C 381 360.765625 380.242188 360.421875 379.695313 359.730469 C 379.03125 358.894531 378.699219 357.539063 378.703125 355.65625 Z M 379.96875 355.65625 C 379.964844 357.304688 380.15625 358.398438 380.542969 358.941406 C 380.925781 359.488281 381.402344 359.761719 381.96875 359.757813 C 382.53125 359.761719 383.007813 359.488281 383.394531 358.9375 C 383.777344 358.394531 383.96875 357.300781 383.972656 355.65625 C 383.96875 354.007813 383.777344 352.910156 383.394531 352.367188 C 383.007813 351.828125 382.527344 351.558594 381.957031 351.554688 C 381.390625 351.558594 380.9375 351.796875 380.601563 352.269531 C 380.175781 352.886719 379.964844 354.015625 379.96875 355.65625 Z M 379.96875 355.65625 "/>
  <path style=" stroke:none;fill-rule:nonzero;fill:rgb(0%,0%,0%);fill-opacity:1;" d="M 390.460938 359.414063 L 392.648438 359.414063 C 391.261719 358.257813 390.570313 356.847656 390.570313 355.175781 C 390.570313 354.273438 390.75 353.460938 391.117188 352.738281 C 391.476563 352.019531 391.992188 351.449219 392.660156 351.03125 C 393.324219 350.617188 394.125 350.410156 395.0625 350.40625 C 395.984375 350.410156 396.753906 350.601563 397.375 350.980469 C 397.988281 351.367188 398.496094 351.914063 398.898438 352.628906 C 399.292969 353.34375 399.492188 354.195313 399.496094 355.175781 C 399.492188 356.847656 398.800781 358.257813 397.417969 359.414063 L 399.605469 359.414063 L 399.605469 360.597656 L 395.710938 360.597656 L 395.710938 359.488281 C 397.328125 358.738281 398.140625 357.367188 398.144531 355.382813 C 398.140625 354.265625 397.855469 353.347656 397.285156 352.625 C 396.714844 351.902344 395.96875 351.539063 395.054688 351.539063 C 394.109375 351.539063 393.355469 351.902344 392.792969 352.628906 C 392.222656 353.355469 391.941406 354.25 391.945313 355.3125 C 391.941406 357.324219 392.746094 358.71875 394.363281 359.488281 L 394.363281 360.597656 L 390.460938 360.597656 Z M 390.460938 359.414063 "/>
  <path style=" stroke:none;fill-rule:nonzero;fill:rgb(0%,0%,0%);fill-opacity:1;" d="M 478.34375 189.914063 L 478.34375 191.097656 L 471.722656 191.097656 C 471.710938 190.800781 471.757813 190.515625 471.863281 190.242188 C 472.03125 189.792969 472.300781 189.351563 472.671875 188.910156 C 473.042969 188.476563 473.582031 187.96875 474.285156 187.390625 C 475.371094 186.5 476.105469 185.792969 476.492188 185.269531 C 476.871094 184.75 477.0625 184.257813 477.066406 183.789063 C 477.0625 183.304688 476.886719 182.894531 476.542969 182.558594 C 476.191406 182.226563 475.738281 182.058594 475.179688 182.054688 C 474.585938 182.058594 474.113281 182.234375 473.757813 182.589844 C 473.402344 182.945313 473.222656 183.4375 473.21875 184.0625 L 471.953125 183.933594 C 472.039063 182.992188 472.363281 182.273438 472.929688 181.777344 C 473.492188 181.285156 474.25 181.039063 475.207031 181.035156 C 476.164063 181.039063 476.925781 181.304688 477.488281 181.835938 C 478.046875 182.371094 478.328125 183.03125 478.332031 183.816406 C 478.328125 184.21875 478.246094 184.613281 478.085938 185 C 477.917969 185.390625 477.644531 185.800781 477.269531 186.226563 C 476.886719 186.65625 476.253906 187.242188 475.371094 187.988281 C 474.628906 188.609375 474.15625 189.03125 473.949219 189.25 C 473.738281 189.472656 473.566406 189.691406 473.429688 189.914063 Z M 478.34375 189.914063 "/>
  <path style=" stroke:none;fill-rule:nonzero;fill:rgb(0%,0%,0%);fill-opacity:1;" d="M 479.667969 186.15625 C 479.664063 184.976563 479.785156 184.023438 480.03125 183.296875 C 480.273438 182.578125 480.636719 182.019531 481.117188 181.625 C 481.597656 181.234375 482.203125 181.039063 482.933594 181.035156 C 483.46875 181.039063 483.941406 181.144531 484.347656 181.359375 C 484.753906 181.578125 485.085938 181.890625 485.351563 182.296875 C 485.613281 182.703125 485.824219 183.199219 485.976563 183.785156 C 486.125 184.371094 486.199219 185.164063 486.203125 186.15625 C 486.199219 187.335938 486.078125 188.285156 485.839844 189.003906 C 485.59375 189.730469 485.230469 190.289063 484.753906 190.679688 C 484.269531 191.074219 483.664063 191.265625 482.933594 191.269531 C 481.964844 191.265625 481.207031 190.921875 480.660156 190.230469 C 479.996094 189.394531 479.664063 188.039063 479.667969 186.15625 Z M 480.933594 186.15625 C 480.929688 187.804688 481.121094 188.898438 481.507813 189.441406 C 481.890625 189.988281 482.367188 190.261719 482.933594 190.257813 C 483.496094 190.261719 483.972656 189.988281 484.359375 189.4375 C 484.742188 188.894531 484.933594 187.800781 484.9375 186.15625 C 484.933594 184.507813 484.742188 183.410156 484.359375 182.867188 C 483.972656 182.328125 483.492188 182.058594 482.921875 182.054688 C 482.355469 182.058594 481.902344 182.296875 481.566406 182.769531 C 481.140625 183.386719 480.929688 184.515625 480.933594 186.15625 Z M 480.933594 186.15625 "/>
  <path style=" stroke:none;fill-rule:nonzero;fill:rgb(0%,0%,0%);fill-opacity:1;" d="M 487.453125 186.15625 C 487.449219 184.976563 487.570313 184.023438 487.816406 183.296875 C 488.058594 182.578125 488.421875 182.019531 488.902344 181.625 C 489.382813 181.234375 489.988281 181.039063 490.71875 181.035156 C 491.253906 181.039063 491.726563 181.144531 492.132813 181.359375 C 492.539063 181.578125 492.871094 181.890625 493.136719 182.296875 C 493.398438 182.703125 493.609375 183.199219 493.761719 183.785156 C 493.910156 184.371094 493.984375 185.164063 493.988281 186.15625 C 493.984375 187.335938 493.863281 188.285156 493.625 189.003906 C 493.378906 189.730469 493.015625 190.289063 492.539063 190.679688 C 492.054688 191.074219 491.449219 191.265625 490.71875 191.269531 C 489.75 191.265625 488.992188 190.921875 488.445313 190.230469 C 487.78125 189.394531 487.449219 188.039063 487.453125 186.15625 Z M 488.71875 186.15625 C 488.714844 187.804688 488.90625 188.898438 489.292969 189.441406 C 489.675781 189.988281 490.152344 190.261719 490.71875 190.257813 C 491.28125 190.261719 491.757813 189.988281 492.144531 189.4375 C 492.527344 188.894531 492.71875 187.800781 492.722656 186.15625 C 492.71875 184.507813 492.527344 183.410156 492.144531 182.867188 C 491.757813 182.328125 491.277344 182.058594 490.707031 182.054688 C 490.140625 182.058594 489.6875 182.296875 489.351563 182.769531 C 488.925781 183.386719 488.714844 184.515625 488.71875 186.15625 Z M 488.71875 186.15625 "/>
  <path style=" stroke:none;fill-rule:nonzero;fill:rgb(0%,0%,0%);fill-opacity:1;" d="M 499.210938 189.914063 L 501.398438 189.914063 C 500.011719 188.757813 499.320313 187.347656 499.320313 185.675781 C 499.320313 184.773438 499.5 183.960938 499.867188 183.238281 C 500.226563 182.519531 500.742188 181.949219 501.410156 181.53125 C 502.074219 181.117188 502.875 180.910156 503.8125 180.90625 C 504.734375 180.910156 505.503906 181.101563 506.125 181.480469 C 506.738281 181.867188 507.246094 182.414063 507.648438 183.128906 C 508.042969 183.84375 508.242188 184.695313 508.246094 185.675781 C 508.242188 187.347656 507.550781 188.757813 506.167969 189.914063 L 508.355469 189.914063 L 508.355469 191.097656 L 504.460938 191.097656 L 504.460938 189.988281 C 506.078125 189.238281 506.890625 187.867188 506.894531 185.882813 C 506.890625 184.765625 506.605469 183.847656 506.035156 183.125 C 505.464844 182.402344 504.71875 182.039063 503.804688 182.039063 C 502.859375 182.039063 502.105469 182.402344 501.542969 183.128906 C 500.972656 183.855469 500.691406 184.75 500.695313 185.8125 C 500.691406 187.824219 501.496094 189.21875 503.113281 189.988281 L 503.113281 191.097656 L 499.210938 191.097656 Z M 499.210938 189.914063 "/>
  <path style=" stroke:none;fill-rule:nonzero;fill:rgb(0%,0%,0%);fill-opacity:1;" d="M 472.332031 290.625 L 473.625 290.515625 C 473.71875 291.144531 473.9375 291.617188 474.289063 291.933594 C 474.632813 292.253906 475.054688 292.414063 475.550781 292.410156 C 476.140625 292.414063 476.640625 292.191406 477.054688 291.742188 C 477.460938 291.296875 477.667969 290.703125 477.671875 289.960938 C 477.667969 289.265625 477.46875 288.710938 477.078125 288.300781 C 476.679688 287.898438 476.164063 287.695313 475.53125 287.691406 C 475.132813 287.695313 474.777344 287.785156 474.457031 287.960938 C 474.136719 288.144531 473.886719 288.378906 473.707031 288.664063 L 472.550781 288.511719 L 473.519531 283.363281 L 478.503906 283.363281 L 478.503906 284.539063 L 474.503906 284.539063 L 473.964844 287.234375 C 474.566406 286.816406 475.195313 286.605469 475.859375 286.605469 C 476.730469 286.605469 477.46875 286.910156 478.074219 287.515625 C 478.671875 288.121094 478.972656 288.898438 478.976563 289.851563 C 478.972656 290.757813 478.710938 291.542969 478.183594 292.203125 C 477.539063 293.015625 476.660156 293.417969 475.550781 293.421875 C 474.636719 293.417969 473.890625 293.167969 473.316406 292.65625 C 472.738281 292.148438 472.410156 291.46875 472.332031 290.625 Z M 472.332031 290.625 "/>
  <path style=" stroke:none;fill-rule:nonzero;fill:rgb(0%,0%,0%);fill-opacity:1;" d="M 484.546875 293.25 L 484.546875 283.226563 L 485.875 283.226563 L 485.875 287.34375 L 491.082031 287.34375 L 491.082031 283.226563 L 492.410156 283.226563 L 492.410156 293.25 L 491.082031 293.25 L 491.082031 288.527344 L 485.875 288.527344 L 485.875 293.25 Z M 484.546875 293.25 "/>
  <path style=" stroke:none;fill-rule:nonzero;fill:rgb(0%,0%,0%);fill-opacity:1;" d="M 370.664063 85.535156 L 369.433594 85.535156 L 369.433594 77.695313 C 369.136719 77.976563 368.746094 78.261719 368.269531 78.542969 C 367.785156 78.828125 367.355469 79.039063 366.972656 79.175781 L 366.972656 77.988281 C 367.660156 77.667969 368.261719 77.277344 368.777344 76.8125 C 369.292969 76.355469 369.65625 75.910156 369.871094 75.472656 L 370.664063 75.472656 Z M 370.664063 85.535156 "/>
  <path style=" stroke:none;fill-rule:nonzero;fill:rgb(0%,0%,0%);fill-opacity:1;" d="M 378.046875 85.535156 L 378.046875 78.273438 L 379.148438 78.273438 L 379.148438 79.292969 C 379.375 78.941406 379.679688 78.65625 380.058594 78.4375 C 380.433594 78.222656 380.863281 78.113281 381.351563 78.109375 C 381.882813 78.113281 382.324219 78.222656 382.671875 78.445313 C 383.011719 78.671875 383.253906 78.984375 383.402344 79.382813 C 383.972656 78.535156 384.722656 78.113281 385.644531 78.109375 C 386.363281 78.113281 386.914063 78.3125 387.304688 78.710938 C 387.6875 79.113281 387.882813 79.726563 387.886719 80.550781 L 387.886719 85.535156 L 386.660156 85.535156 L 386.660156 80.960938 C 386.65625 80.472656 386.617188 80.117188 386.539063 79.898438 C 386.457031 79.683594 386.3125 79.511719 386.105469 79.375 C 385.894531 79.246094 385.648438 79.179688 385.371094 79.175781 C 384.855469 79.179688 384.433594 79.347656 384.097656 79.6875 C 383.761719 80.027344 383.59375 80.570313 383.59375 81.316406 L 383.59375 85.535156 L 382.363281 85.535156 L 382.363281 80.816406 C 382.363281 80.273438 382.261719 79.863281 382.0625 79.585938 C 381.859375 79.316406 381.53125 79.179688 381.078125 79.175781 C 380.730469 79.179688 380.410156 79.269531 380.117188 79.449219 C 379.820313 79.632813 379.605469 79.898438 379.476563 80.25 C 379.339844 80.601563 379.273438 81.109375 379.277344 81.769531 L 379.277344 85.535156 Z M 378.046875 85.535156 "/>
  <path style=" stroke:none;fill-rule:nonzero;fill:rgb(0%,0%,0%);fill-opacity:1;" d="M 389.9375 85.535156 L 389.9375 75.511719 L 396.699219 75.511719 L 396.699219 76.695313 L 391.265625 76.695313 L 391.265625 79.800781 L 395.96875 79.800781 L 395.96875 80.980469 L 391.265625 80.980469 L 391.265625 85.535156 Z M 389.9375 85.535156 "/>
  <path style=" stroke:none;fill-rule:nonzero;fill:rgb(0%,0%,0%);fill-opacity:1;" d="M 342.398438 291.917969 L 342.398438 293.101563 L 335.777344 293.101563 C 335.765625 292.804688 335.8125 292.519531 335.917969 292.246094 C 336.085938 291.796875 336.355469 291.355469 336.726563 290.914063 C 337.097656 290.480469 337.636719 289.972656 338.339844 289.394531 C 339.425781 288.503906 340.160156 287.796875 340.546875 287.273438 C 340.925781 286.753906 341.117188 286.261719 341.121094 285.792969 C 341.117188 285.308594 340.941406 284.898438 340.597656 284.5625 C 340.246094 284.230469 339.792969 284.0625 339.234375 284.058594 C 338.640625 284.0625 338.167969 284.238281 337.8125 284.59375 C 337.457031 284.949219 337.277344 285.441406 337.273438 286.066406 L 336.007813 285.9375 C 336.09375 284.996094 336.417969 284.277344 336.984375 283.78125 C 337.546875 283.289063 338.304688 283.042969 339.261719 283.039063 C 340.21875 283.042969 340.980469 283.308594 341.542969 283.839844 C 342.101563 284.375 342.382813 285.035156 342.386719 285.820313 C 342.382813 286.222656 342.300781 286.617188 342.140625 287.003906 C 341.972656 287.394531 341.699219 287.804688 341.324219 288.230469 C 340.941406 288.660156 340.308594 289.246094 339.425781 289.992188 C 338.683594 290.613281 338.210938 291.035156 338.003906 291.253906 C 337.792969 291.476563 337.621094 291.695313 337.484375 291.917969 Z M 342.398438 291.917969 "/>
  <path style=" stroke:none;fill-rule:nonzero;fill:rgb(0%,0%,0%);fill-opacity:1;" d="M 347.949219 293.101563 L 347.949219 285.839844 L 349.050781 285.839844 L 349.050781 286.859375 C 349.277344 286.507813 349.582031 286.222656 349.960938 286.003906 C 350.335938 285.789063 350.765625 285.679688 351.253906 285.675781 C 351.785156 285.679688 352.226563 285.789063 352.574219 286.011719 C 352.914063 286.238281 353.15625 286.550781 353.304688 286.949219 C 353.875 286.101563 354.625 285.679688 355.546875 285.675781 C 356.265625 285.679688 356.816406 285.878906 357.207031 286.277344 C 357.589844 286.679688 357.785156 287.292969 357.789063 288.117188 L 357.789063 293.101563 L 356.5625 293.101563 L 356.5625 288.527344 C 356.558594 288.039063 356.519531 287.683594 356.441406 287.464844 C 356.359375 287.25 356.214844 287.078125 356.007813 286.941406 C 355.796875 286.8125 355.550781 286.746094 355.273438 286.742188 C 354.757813 286.746094 354.335938 286.914063 354 287.253906 C 353.664063 287.59375 353.496094 288.136719 353.496094 288.882813 L 353.496094 293.101563 L 352.265625 293.101563 L 352.265625 288.382813 C 352.265625 287.839844 352.164063 287.429688 351.964844 287.152344 C 351.761719 286.882813 351.433594 286.746094 350.980469 286.742188 C 350.632813 286.746094 350.3125 286.835938 350.019531 287.015625 C 349.722656 287.199219 349.507813 287.464844 349.378906 287.816406 C 349.242188 288.167969 349.175781 288.675781 349.179688 289.335938 L 349.179688 293.101563 Z M 347.949219 293.101563 "/>
  <path style=" stroke:none;fill-rule:nonzero;fill:rgb(0%,0%,0%);fill-opacity:1;" d="M 359.839844 293.101563 L 359.839844 283.078125 L 366.601563 283.078125 L 366.601563 284.261719 L 361.167969 284.261719 L 361.167969 287.367188 L 365.871094 287.367188 L 365.871094 288.546875 L 361.167969 288.546875 L 361.167969 293.101563 Z M 359.839844 293.101563 "/>
  <!--  arrows-->
  <path style="fill:none;stroke-width:0.264583;stroke-linecap:butt;stroke-linejoin:miter;stroke:rgb(0%,0%,0%);stroke-opacity:1;stroke-miterlimit:4;" d="M 101.248588 81.809984 L 98.091503 77.764064 L 98.11493 85.762197 " transform="matrix(2.834646,0,0,2.834646,0.000000000000040283,-0.000000000000056843)"/>
  <path style="fill:none;stroke-width:0.264583;stroke-linecap:butt;stroke-linejoin:miter;stroke:rgb(0%,0%,0%);stroke-opacity:1;stroke-miterlimit:4;" d="M 148.337526 81.72179 L 151.494611 77.67587 L 151.471185 85.674003 " transform="matrix(2.834646,0,0,2.834646,0.000000000000040283,-0.000000000000056843)"/>
  <path style="fill:none;stroke-width:0.264583;stroke-linecap:butt;stroke-linejoin:miter;stroke:rgb(0%,0%,0%);stroke-opacity:1;stroke-miterlimit:4;" d="M 118.006909 117.375768 L 121.163994 113.329848 L 121.140567 121.327981 " transform="matrix(2.834646,0,0,2.834646,0.000000000000040283,-0.000000000000056843)"/>
  <path style="fill:none;stroke-width:0.264583;stroke-linecap:butt;stroke-linejoin:miter;stroke:rgb(0%,0%,0%);stroke-opacity:1;stroke-miterlimit:4;" d="M 108.062987 92.247244 L 104.017067 89.090159 L 112.0152 89.113586 " transform="matrix(2.834646,0,0,2.834646,0.000000000000040283,-0.000000000000056843)"/>
  <path style="fill:none;stroke-width:0.264583;stroke-linecap:butt;stroke-linejoin:miter;stroke:rgb(0%,0%,0%);stroke-opacity:1;stroke-miterlimit:4;" d="M 118.773098 41.029704 L 121.930183 36.983785 L 121.906757 44.981917 " transform="matrix(2.834646,0,0,2.834646,0.000000000000040283,-0.000000000000056843)"/>
  <path style="fill:none;stroke-width:0.264583;stroke-linecap:butt;stroke-linejoin:miter;stroke:rgb(0%,0%,0%);stroke-opacity:1;stroke-miterlimit:4;" d="M 151.865303 117.45156 L 155.022389 113.40564 L 154.998962 121.403773 " transform="matrix(2.834646,0,0,2.834646,0.000000000000040283,-0.000000000000056843)"/>
  <path style="fill:none;stroke-width:0.264583;stroke-linecap:butt;stroke-linejoin:miter;stroke:rgb(0%,0%,0%);stroke-opacity:1;stroke-miterlimit:4;" d="M 161.156036 49.07469 L 165.201956 52.231776 L 157.203823 52.208349 " transform="matrix(2.834646,0,0,2.834646,0.000000000000040283,-0.000000000000056843)"/>
  <!--  i texts-->
  <path style=" stroke:none;fill-rule:nonzero;fill:rgb(0%,0%,0%);fill-opacity:1;" d="M 276.273438 204.492188 L 276.652344 202.691406 L 278.234375 202.691406 L 277.855469 204.492188 Z M 273.953125 215.574219 L 275.90625 206.242188 L 277.496094 206.242188 L 275.542969 215.574219 Z M 273.953125 215.574219 "/>
  <path style=" stroke:none;fill-rule:nonzero;fill:rgb(0%,0%,0%);fill-opacity:1;" d="M 281.925781 219.605469 L 281.046875 219.605469 L 281.046875 214.003906 C 280.835938 214.207031 280.558594 214.410156 280.214844 214.613281 C 279.871094 214.816406 279.5625 214.96875 279.289063 215.0625 L 279.289063 214.214844 C 279.78125 213.984375 280.210938 213.707031 280.578125 213.375 C 280.945313 213.050781 281.203125 212.730469 281.359375 212.417969 L 281.925781 212.417969 Z M 281.925781 219.605469 "/>
  <path style=" stroke:none;fill-rule:nonzero;fill:rgb(0%,0%,0%);fill-opacity:1;" d="M 431.378906 343.058594 L 431.757813 341.257813 L 433.339844 341.257813 L 432.960938 343.058594 Z M 429.058594 354.140625 L 431.011719 344.808594 L 432.601563 344.808594 L 430.648438 354.140625 Z M 429.058594 354.140625 "/>
  <path style=" stroke:none;fill-rule:nonzero;fill:rgb(0%,0%,0%);fill-opacity:1;" d="M 433.71875 356.296875 L 434.640625 356.21875 C 434.710938 356.671875 434.867188 357.007813 435.117188 357.234375 C 435.363281 357.460938 435.664063 357.574219 436.019531 357.570313 C 436.4375 357.574219 436.796875 357.414063 437.089844 357.09375 C 437.382813 356.773438 437.527344 356.351563 437.53125 355.824219 C 437.527344 355.324219 437.386719 354.929688 437.109375 354.636719 C 436.824219 354.351563 436.457031 354.207031 436.003906 354.203125 C 435.71875 354.207031 435.460938 354.269531 435.234375 354.398438 C 435.003906 354.527344 434.828125 354.695313 434.699219 354.894531 L 433.875 354.789063 L 434.570313 351.113281 L 438.128906 351.113281 L 438.128906 351.953125 L 435.273438 351.953125 L 434.886719 353.875 C 435.316406 353.578125 435.765625 353.425781 436.238281 353.425781 C 436.859375 353.425781 437.386719 353.644531 437.820313 354.078125 C 438.246094 354.511719 438.460938 355.066406 438.464844 355.746094 C 438.460938 356.394531 438.273438 356.957031 437.898438 357.425781 C 437.4375 358.003906 436.808594 358.289063 436.019531 358.292969 C 435.363281 358.289063 434.832031 358.109375 434.425781 357.746094 C 434.011719 357.382813 433.777344 356.898438 433.71875 356.296875 Z M 433.71875 356.296875 "/>
  <path style=" stroke:none;fill-rule:nonzero;fill:rgb(0%,0%,0%);fill-opacity:1;" d="M 333.421875 341.359375 L 333.800781 339.558594 L 335.382813 339.558594 L 335.003906 341.359375 Z M 331.101563 352.441406 L 333.054688 343.109375 L 334.644531 343.109375 L 332.691406 352.441406 Z M 331.101563 352.441406 "/>
  <path style=" stroke:none;fill-rule:nonzero;fill:rgb(0%,0%,0%);fill-opacity:1;" d="M 340.324219 351.066406 L 339.449219 351.136719 C 339.371094 350.792969 339.257813 350.542969 339.117188 350.382813 C 338.875 350.136719 338.582031 350.011719 338.238281 350.007813 C 337.953125 350.011719 337.707031 350.089844 337.5 350.242188 C 337.21875 350.449219 337 350.742188 336.84375 351.128906 C 336.679688 351.515625 336.597656 352.066406 336.597656 352.78125 C 336.804688 352.460938 337.0625 352.222656 337.371094 352.0625 C 337.675781 351.910156 338 351.832031 338.335938 351.828125 C 338.921875 351.832031 339.417969 352.046875 339.832031 352.476563 C 340.238281 352.910156 340.445313 353.46875 340.449219 354.148438 C 340.445313 354.601563 340.347656 355.019531 340.15625 355.402344 C 339.960938 355.789063 339.695313 356.085938 339.359375 356.289063 C 339.019531 356.492188 338.636719 356.589844 338.207031 356.59375 C 337.472656 356.589844 336.875 356.324219 336.414063 355.789063 C 335.953125 355.253906 335.722656 354.367188 335.722656 353.125 C 335.722656 351.742188 335.976563 350.734375 336.488281 350.105469 C 336.933594 349.5625 337.535156 349.289063 338.292969 349.285156 C 338.851563 349.289063 339.3125 349.449219 339.675781 349.761719 C 340.03125 350.082031 340.246094 350.515625 340.324219 351.066406 Z M 336.734375 354.152344 C 336.730469 354.457031 336.792969 354.75 336.925781 355.023438 C 337.050781 355.304688 337.230469 355.515625 337.464844 355.65625 C 337.691406 355.804688 337.9375 355.875 338.195313 355.871094 C 338.5625 355.875 338.878906 355.726563 339.148438 355.421875 C 339.414063 355.125 339.546875 354.71875 339.550781 354.203125 C 339.546875 353.710938 339.417969 353.320313 339.15625 353.035156 C 338.890625 352.75 338.558594 352.605469 338.160156 352.605469 C 337.761719 352.605469 337.421875 352.75 337.148438 353.035156 C 336.867188 353.320313 336.730469 353.691406 336.734375 354.152344 Z M 336.734375 354.152344 "/>
  <path style=" stroke:none;fill-rule:nonzero;fill:rgb(0%,0%,0%);fill-opacity:1;" d="M 325.171875 250.421875 L 325.550781 248.621094 L 327.132813 248.621094 L 326.753906 250.421875 Z M 322.851563 261.503906 L 324.804688 252.171875 L 326.394531 252.171875 L 324.441406 261.503906 Z M 322.851563 261.503906 "/>
  <path style=" stroke:none;fill-rule:nonzero;fill:rgb(0%,0%,0%);fill-opacity:1;" d="M 330.328125 265.535156 L 330.328125 263.820313 L 327.222656 263.820313 L 327.222656 263.015625 L 330.492188 258.378906 L 331.207031 258.378906 L 331.207031 263.015625 L 332.175781 263.015625 L 332.175781 263.820313 L 331.207031 263.820313 L 331.207031 265.535156 Z M 330.328125 263.015625 L 330.328125 259.789063 L 328.089844 263.015625 Z M 330.328125 263.015625 "/>
  <path style=" stroke:none;fill-rule:nonzero;fill:rgb(0%,0%,0%);fill-opacity:1;" d="M 479.03125 139.011719 L 479.410156 137.210938 L 480.992188 137.210938 L 480.613281 139.011719 Z M 476.710938 150.09375 L 478.664063 140.761719 L 480.253906 140.761719 L 478.300781 150.09375 Z M 476.710938 150.09375 "/>
  <path style=" stroke:none;fill-rule:nonzero;fill:rgb(0%,0%,0%);fill-opacity:1;" d="M 481.429688 147.90625 L 481.429688 147.058594 L 486.0625 147.058594 L 486.0625 147.742188 C 485.601563 148.234375 485.152344 148.878906 484.707031 149.679688 C 484.261719 150.484375 483.914063 151.308594 483.671875 152.15625 C 483.492188 152.757813 483.382813 153.414063 483.335938 154.125 L 482.429688 154.125 C 482.4375 153.5625 482.550781 152.882813 482.761719 152.085938 C 482.972656 151.289063 483.273438 150.519531 483.671875 149.777344 C 484.0625 149.039063 484.484375 148.417969 484.9375 147.90625 Z M 481.429688 147.90625 "/>
  <path style=" stroke:none;fill-rule:nonzero;fill:rgb(0%,0%,0%);fill-opacity:1;" d="M 426.464844 200.039063 L 426.84375 198.238281 L 428.425781 198.238281 L 428.046875 200.039063 Z M 424.144531 211.121094 L 426.097656 201.789063 L 427.6875 201.789063 L 425.734375 211.121094 Z M 424.144531 211.121094 "/>
  <path style=" stroke:none;fill-rule:nonzero;fill:rgb(0%,0%,0%);fill-opacity:1;" d="M 428.808594 213.261719 L 429.6875 213.144531 C 429.785156 213.648438 429.957031 214.007813 430.203125 214.222656 C 430.441406 214.445313 430.738281 214.554688 431.089844 214.550781 C 431.5 214.554688 431.847656 214.410156 432.136719 214.121094 C 432.417969 213.835938 432.5625 213.484375 432.566406 213.058594 C 432.5625 212.660156 432.429688 212.328125 432.167969 212.0625 C 431.902344 211.804688 431.566406 211.671875 431.164063 211.667969 C 430.992188 211.671875 430.785156 211.703125 430.542969 211.765625 L 430.640625 210.992188 C 430.699219 211 430.746094 211.003906 430.78125 211.003906 C 431.15625 211.003906 431.492188 210.90625 431.792969 210.710938 C 432.089844 210.515625 432.238281 210.214844 432.242188 209.804688 C 432.238281 209.488281 432.128906 209.222656 431.914063 209.007813 C 431.695313 208.796875 431.414063 208.691406 431.070313 208.6875 C 430.726563 208.691406 430.441406 208.796875 430.214844 209.011719 C 429.984375 209.226563 429.839844 209.550781 429.777344 209.976563 L 428.898438 209.820313 C 429.003906 209.234375 429.246094 208.78125 429.628906 208.453125 C 430.007813 208.132813 430.484375 207.96875 431.050781 207.964844 C 431.441406 207.96875 431.800781 208.054688 432.128906 208.21875 C 432.457031 208.390625 432.707031 208.617188 432.882813 208.902344 C 433.054688 209.195313 433.140625 209.503906 433.144531 209.824219 C 433.140625 210.136719 433.058594 210.417969 432.894531 210.671875 C 432.726563 210.925781 432.480469 211.128906 432.160156 211.277344 C 432.578125 211.378906 432.90625 211.578125 433.144531 211.882813 C 433.375 212.191406 433.492188 212.578125 433.496094 213.039063 C 433.492188 213.667969 433.265625 214.199219 432.8125 214.628906 C 432.355469 215.0625 431.78125 215.273438 431.085938 215.277344 C 430.457031 215.273438 429.933594 215.089844 429.519531 214.71875 C 429.101563 214.34375 428.863281 213.859375 428.808594 213.261719 Z M 428.808594 213.261719 "/>
  <path style=" stroke:none;fill-rule:nonzero;fill:rgb(0%,0%,0%);fill-opacity:1;" d="M 340.519531 84.488281 L 340.898438 82.6875 L 342.480469 82.6875 L 342.101563 84.488281 Z M 338.199219 95.570313 L 340.152344 86.238281 L 341.742188 86.238281 L 339.789063 95.570313 Z M 338.199219 95.570313 "/>
  <path style=" stroke:none;fill-rule:nonzero;fill:rgb(0%,0%,0%);fill-opacity:1;" d="M 347.480469 98.761719 L 347.480469 99.605469 L 342.746094 99.605469 C 342.738281 99.394531 342.773438 99.191406 342.851563 98.996094 C 342.96875 98.675781 343.164063 98.359375 343.429688 98.042969 C 343.695313 97.734375 344.078125 97.375 344.578125 96.960938 C 345.355469 96.328125 345.878906 95.820313 346.15625 95.445313 C 346.425781 95.070313 346.5625 94.71875 346.566406 94.386719 C 346.5625 94.039063 346.4375 93.746094 346.191406 93.503906 C 345.941406 93.269531 345.617188 93.148438 345.21875 93.144531 C 344.789063 93.148438 344.449219 93.277344 344.199219 93.527344 C 343.941406 93.785156 343.816406 94.136719 343.816406 94.582031 L 342.914063 94.488281 C 342.976563 93.816406 343.207031 93.300781 343.613281 92.949219 C 344.011719 92.597656 344.554688 92.421875 345.238281 92.417969 C 345.921875 92.421875 346.464844 92.613281 346.867188 92.992188 C 347.265625 93.375 347.464844 93.847656 347.46875 94.40625 C 347.464844 94.695313 347.40625 94.976563 347.292969 95.25 C 347.171875 95.53125 346.976563 95.820313 346.707031 96.125 C 346.433594 96.429688 345.984375 96.851563 345.355469 97.382813 C 344.824219 97.828125 344.484375 98.128906 344.335938 98.285156 C 344.183594 98.449219 344.0625 98.605469 343.96875 98.761719 Z M 347.480469 98.761719 "/>
  <!--  v texts-->
  <path style=" stroke:none;fill-rule:nonzero;fill:rgb(0%,0%,0%);fill-opacity:1;" d="M 461.742188 112.257813 L 460.210938 102.925781 L 461.757813 102.925781 L 462.558594 108.066406 C 462.644531 108.632813 462.753906 109.546875 462.882813 110.816406 C 463.183594 110.15625 463.574219 109.398438 464.054688 108.539063 L 467.171875 102.925781 L 468.851563 102.925781 L 463.507813 112.257813 Z M 461.742188 112.257813 "/>
  <path style=" stroke:none;fill-rule:nonzero;fill:rgb(0%,0%,0%);fill-opacity:1;" d="M 466.585938 115.734375 L 467.464844 115.617188 C 467.5625 116.121094 467.734375 116.480469 467.980469 116.695313 C 468.21875 116.917969 468.515625 117.027344 468.867188 117.023438 C 469.277344 117.027344 469.625 116.882813 469.914063 116.59375 C 470.195313 116.308594 470.339844 115.957031 470.34375 115.53125 C 470.339844 115.132813 470.207031 114.800781 469.945313 114.535156 C 469.679688 114.277344 469.34375 114.144531 468.941406 114.140625 C 468.769531 114.144531 468.5625 114.175781 468.320313 114.238281 L 468.417969 113.464844 C 468.476563 113.472656 468.523438 113.476563 468.558594 113.476563 C 468.933594 113.476563 469.269531 113.378906 469.570313 113.183594 C 469.867188 112.988281 470.015625 112.6875 470.019531 112.277344 C 470.015625 111.960938 469.90625 111.695313 469.691406 111.480469 C 469.472656 111.269531 469.191406 111.164063 468.847656 111.160156 C 468.503906 111.164063 468.21875 111.269531 467.992188 111.484375 C 467.761719 111.699219 467.617188 112.023438 467.554688 112.449219 L 466.675781 112.292969 C 466.78125 111.707031 467.023438 111.253906 467.40625 110.925781 C 467.785156 110.605469 468.261719 110.441406 468.828125 110.4375 C 469.21875 110.441406 469.578125 110.527344 469.90625 110.691406 C 470.234375 110.863281 470.484375 111.089844 470.660156 111.375 C 470.832031 111.667969 470.917969 111.976563 470.921875 112.296875 C 470.917969 112.609375 470.835938 112.890625 470.671875 113.144531 C 470.503906 113.398438 470.257813 113.601563 469.9375 113.75 C 470.355469 113.851563 470.683594 114.050781 470.921875 114.355469 C 471.152344 114.664063 471.269531 115.050781 471.273438 115.511719 C 471.269531 116.140625 471.042969 116.671875 470.589844 117.101563 C 470.132813 117.535156 469.558594 117.746094 468.863281 117.75 C 468.234375 117.746094 467.710938 117.5625 467.296875 117.191406 C 466.878906 116.816406 466.640625 116.332031 466.585938 115.734375 Z M 466.585938 115.734375 "/>
  <path style=" stroke:none;fill-rule:nonzero;fill:rgb(0%,0%,0%);fill-opacity:1;" d="M 313.085938 222.667969 L 311.554688 213.335938 L 313.101563 213.335938 L 313.902344 218.476563 C 313.988281 219.042969 314.097656 219.957031 314.226563 221.226563 C 314.527344 220.566406 314.917969 219.808594 315.398438 218.949219 L 318.515625 213.335938 L 320.195313 213.335938 L 314.851563 222.667969 Z M 313.085938 222.667969 "/>
  <path style=" stroke:none;fill-rule:nonzero;fill:rgb(0%,0%,0%);fill-opacity:1;" d="M 321.238281 228.035156 L 320.359375 228.035156 L 320.359375 222.433594 C 320.144531 222.636719 319.863281 222.839844 319.523438 223.042969 C 319.179688 223.246094 318.875 223.398438 318.601563 223.496094 L 318.601563 222.644531 C 319.089844 222.414063 319.515625 222.136719 319.886719 221.804688 C 320.253906 221.480469 320.515625 221.160156 320.671875 220.847656 L 321.238281 220.847656 Z M 321.238281 228.035156 "/>
  <path style=" stroke:none;fill-rule:nonzero;fill:rgb(0%,0%,0%);fill-opacity:1;" d="M 175.042969 224.980469 L 173.511719 215.648438 L 175.058594 215.648438 L 175.859375 220.789063 C 175.945313 221.355469 176.054688 222.269531 176.183594 223.539063 C 176.484375 222.878906 176.875 222.121094 177.355469 221.261719 L 180.472656 215.648438 L 182.152344 215.648438 L 176.808594 224.980469 Z M 175.042969 224.980469 "/>
  <path style=" stroke:none;fill-rule:nonzero;fill:rgb(0%,0%,0%);fill-opacity:1;" d="M 179.882813 226.816406 C 179.878906 225.972656 179.964844 225.292969 180.144531 224.773438 C 180.316406 224.261719 180.578125 223.863281 180.921875 223.582031 C 181.265625 223.304688 181.695313 223.164063 182.21875 223.160156 C 182.597656 223.164063 182.933594 223.242188 183.226563 223.394531 C 183.515625 223.550781 183.757813 223.773438 183.945313 224.0625 C 184.132813 224.355469 184.28125 224.710938 184.390625 225.128906 C 184.496094 225.546875 184.546875 226.109375 184.550781 226.816406 C 184.546875 227.660156 184.460938 228.339844 184.292969 228.851563 C 184.117188 229.371094 183.859375 229.769531 183.519531 230.046875 C 183.171875 230.328125 182.738281 230.464844 182.21875 230.46875 C 181.523438 230.464844 180.980469 230.21875 180.589844 229.726563 C 180.113281 229.132813 179.878906 228.164063 179.882813 226.816406 Z M 180.785156 226.816406 C 180.78125 227.996094 180.917969 228.777344 181.199219 229.164063 C 181.472656 229.554688 181.8125 229.75 182.21875 229.746094 C 182.617188 229.75 182.957031 229.554688 183.234375 229.160156 C 183.507813 228.773438 183.644531 227.992188 183.648438 226.816406 C 183.644531 225.640625 183.507813 224.859375 183.234375 224.46875 C 182.957031 224.085938 182.613281 223.890625 182.207031 223.886719 C 181.800781 223.890625 181.480469 224.0625 181.242188 224.402344 C 180.933594 224.839844 180.78125 225.644531 180.785156 226.816406 Z M 180.785156 226.816406 "/>
  <path style=" stroke:none;fill-rule:nonzero;fill:rgb(0%,0%,0%);fill-opacity:1;" d="M 473.273438 232.113281 L 471.742188 222.78125 L 473.289063 222.78125 L 474.089844 227.921875 C 474.175781 228.488281 474.285156 229.402344 474.414063 230.671875 C 474.714844 230.011719 475.105469 229.253906 475.585938 228.394531 L 478.703125 222.78125 L 480.382813 222.78125 L 475.039063 232.113281 Z M 473.273438 232.113281 "/>
  <path style=" stroke:none;fill-rule:nonzero;fill:rgb(0%,0%,0%);fill-opacity:1;" d="M 482.734375 236.636719 L 482.734375 237.480469 L 478 237.480469 C 477.992188 237.269531 478.027344 237.066406 478.105469 236.871094 C 478.222656 236.550781 478.417969 236.234375 478.683594 235.917969 C 478.949219 235.609375 479.332031 235.25 479.832031 234.835938 C 480.609375 234.203125 481.132813 233.695313 481.410156 233.320313 C 481.679688 232.945313 481.816406 232.59375 481.820313 232.261719 C 481.816406 231.914063 481.691406 231.621094 481.445313 231.378906 C 481.195313 231.144531 480.871094 231.023438 480.472656 231.019531 C 480.042969 231.023438 479.703125 231.152344 479.453125 231.402344 C 479.195313 231.660156 479.070313 232.011719 479.070313 232.457031 L 478.167969 232.363281 C 478.230469 231.691406 478.460938 231.175781 478.867188 230.824219 C 479.265625 230.472656 479.808594 230.296875 480.492188 230.292969 C 481.175781 230.296875 481.71875 230.488281 482.121094 230.867188 C 482.519531 231.25 482.71875 231.722656 482.722656 232.28125 C 482.71875 232.570313 482.660156 232.851563 482.546875 233.125 C 482.425781 233.40625 482.230469 233.695313 481.960938 234 C 481.6875 234.304688 481.238281 234.726563 480.609375 235.257813 C 480.078125 235.703125 479.738281 236.003906 479.589844 236.160156 C 479.4375 236.324219 479.316406 236.480469 479.222656 236.636719 Z M 482.734375 236.636719 "/>
  <path style=" stroke:none;fill-rule:nonzero;fill:rgb(0%,0%,0%);fill-opacity:1;" d="M 462.324219 340.589844 L 460.792969 331.257813 L 462.339844 331.257813 L 463.140625 336.398438 C 463.226563 336.964844 463.335938 337.878906 463.464844 339.148438 C 463.765625 338.488281 464.15625 337.730469 464.636719 336.871094 L 467.753906 331.257813 L 469.433594 331.257813 L 464.089844 340.589844 Z M 462.324219 340.589844 "/>
  <path style=" stroke:none;fill-rule:nonzero;fill:rgb(0%,0%,0%);fill-opacity:1;" d="M 469.980469 345.957031 L 469.980469 344.242188 L 466.875 344.242188 L 466.875 343.4375 L 470.144531 338.800781 L 470.859375 338.800781 L 470.859375 343.4375 L 471.828125 343.4375 L 471.828125 344.242188 L 470.859375 344.242188 L 470.859375 345.957031 Z M 469.980469 343.4375 L 469.980469 340.210938 L 467.742188 343.4375 Z M 469.980469 343.4375 "/>
  <!--  ground-->
  <path style="fill:none;stroke-width:0.264583;stroke-linecap:butt;stroke-linejoin:miter;stroke:rgb(0%,0%,0%);stroke-opacity:1;stroke-miterlimit:4;" d="M 87.326416 121.955175 L 87.312493 124.546887 L 83.610899 124.527992 " transform="matrix(3.927784,0,0,3.927784,-166.358676,-125.607334)"/>
  <path style="fill:none;stroke-width:0.264583;stroke-linecap:butt;stroke-linejoin:miter;stroke:rgb(0%,0%,0%);stroke-opacity:1;stroke-miterlimit:4;" d="M 87.312493 124.548876 L 91.129451 124.5628 " transform="matrix(3.927784,0,0,3.927784,-166.358676,-125.607334)"/>
  <path style="fill:none;stroke-width:0.264583;stroke-linecap:butt;stroke-linejoin:miter;stroke:rgb(0%,0%,0%);stroke-opacity:1;stroke-miterlimit:4;" d="M 84.554696 125.761193 L 90.210517 125.773127 " transform="matrix(3.927784,0,0,3.927784,-166.358676,-125.607334)"/>
  <path style="fill:none;stroke-width:0.264583;stroke-linecap:butt;stroke-linejoin:miter;stroke:rgb(0%,0%,0%);stroke-opacity:1;stroke-miterlimit:4;" d="M 85.761046 126.917817 C 87.076792 126.917817 88.041474 126.916823 89.044943 126.916823 " transform="matrix(3.927784,0,0,3.927784,-166.358676,-125.607334)"/>
  <!--???-->
  <!--<path style="fill:none;stroke-width:1;stroke-linecap:butt;stroke-linejoin:miter;stroke:rgb(0%,0%,0%);stroke-opacity:1;stroke-miterlimit:4;" d="M 366.649024 311.09783 L 366.649024 310.534076 " transform="matrix(0.471172,0,0,0.471172,293.354621,140.978007)"/>-->
  <!--<path style="fill:none;stroke-width:1;stroke-linecap:butt;stroke-linejoin:miter;stroke:rgb(0%,0%,0%);stroke-opacity:1;stroke-miterlimit:4;" d="M 366.649024 287.942472 L 366.649024 287.378718 " transform="matrix(0.471172,0,0,0.471172,293.354621,140.978007)"/>-->
  <!--<path style="fill:none;stroke-width:1;stroke-linecap:butt;stroke-linejoin:miter;stroke:rgb(0%,0%,0%);stroke-opacity:1;stroke-miterlimit:4;" d="M 345.922782 253.478877 L 345.740391 255.443724 " transform="matrix(0.471172,0,0,0.471172,293.354621,140.978007)"/>-->
  <!--<path style=" stroke:none;fill-rule:nonzero;fill:rgb(0%,0%,0%);fill-opacity:1;" d="M 466.585938 115.734375 L 467.464844 115.617188 C 467.5625 116.121094 467.734375 116.480469 467.980469 116.695313 C 468.21875 116.917969 468.515625 117.027344 468.867188 117.023438 C 469.277344 117.027344 469.625 116.882813 469.914063 116.59375 C 470.195313 116.308594 470.339844 115.957031 470.34375 115.53125 C 470.339844 115.132813 470.207031 114.800781 469.945313 114.535156 C 469.679688 114.277344 469.34375 114.144531 468.941406 114.140625 C 468.769531 114.144531 468.5625 114.175781 468.320313 114.238281 L 468.417969 113.464844 C 468.476563 113.472656 468.523438 113.476563 468.558594 113.476563 C 468.933594 113.476563 469.269531 113.378906 469.570313 113.183594 C 469.867188 112.988281 470.015625 112.6875 470.019531 112.277344 C 470.015625 111.960938 469.90625 111.695313 469.691406 111.480469 C 469.472656 111.269531 469.191406 111.164063 468.847656 111.160156 C 468.503906 111.164063 468.21875 111.269531 467.992188 111.484375 C 467.761719 111.699219 467.617188 112.023438 467.554688 112.449219 L 466.675781 112.292969 C 466.78125 111.707031 467.023438 111.253906 467.40625 110.925781 C 467.785156 110.605469 468.261719 110.441406 468.828125 110.4375 C 469.21875 110.441406 469.578125 110.527344 469.90625 110.691406 C 470.234375 110.863281 470.484375 111.089844 470.660156 111.375 C 470.832031 111.667969 470.917969 111.976563 470.921875 112.296875 C 470.917969 112.609375 470.835938 112.890625 470.671875 113.144531 C 470.503906 113.398438 470.257813 113.601563 469.9375 113.75 C 470.355469 113.851563 470.683594 114.050781 470.921875 114.355469 C 471.152344 114.664063 471.269531 115.050781 471.273438 115.511719 C 471.269531 116.140625 471.042969 116.671875 470.589844 117.101563 C 470.132813 117.535156 469.558594 117.746094 468.863281 117.75 C 468.234375 117.746094 467.710938 117.5625 467.296875 117.191406 C 466.878906 116.816406 466.640625 116.332031 466.585938 115.734375 Z M 466.585938 115.734375 "/>-->
</g>
</svg>
