<?xml version="1.0" encoding="UTF-8"?>
<svg xmlns="http://www.w3.org/2000/svg" xmlns:xlink="http://www.w3.org/1999/xlink" width="595.275591pt" height="841.889764pt" viewBox="0 0 595.275591 841.889764" version="1.1">
<g id="surface1">
<!--arrow base-->
  <path style="fill:none;stroke-width:1;stroke-linecap:butt;stroke-linejoin:miter;stroke:rgb(0%,0%,0%);stroke-opacity:1;stroke-miterlimit:4;" d="M 25.001271 35.0476 L 25.001271 17.001115 " transform="matrix(1.254789,0,0,1.254789,255.351336,298.960157)"/>
<!--arrow tip-->
  <path style="fill-rule:evenodd;fill:rgb(0%,0%,0%);fill-opacity:1;stroke-width:1;stroke-linecap:butt;stroke-linejoin:miter;stroke:rgb(0%,0%,0%);stroke-opacity:1;stroke-miterlimit:4;" d="M 25.001516 15.500613 L 27.001875 18.501616 L 23.001157 18.501616 Z M 25.001516 15.500613 " transform="matrix(1.238059,0,0,1.254789,255.351336,298.960157)"/>
<!--lines-->
  <path style="fill:none;stroke-width:1;stroke-linecap:square;stroke-linejoin:miter;stroke:rgb(0%,0%,0%);stroke-opacity:1;stroke-miterlimit:4;" d="M 40.000058 25.001713 C 40.000058 33.288714 33.285159 40.000499 25.001271 40.000499 C 16.71427 40.000499 10.002485 33.285601 10.002485 25.001713 C 10.002485 16.714712 16.717384 10.002926 25.001271 10.002926 C 33.288272 10.002926 40.000058 16.717825 40.000058 25.001713 Z M 40.000058 25.001713 " transform="matrix(1.254789,0,0,1.254789,255.351336,298.960157)"/>
  <path style="fill:none;stroke-width:1;stroke-linecap:butt;stroke-linejoin:miter;stroke:rgb(0%,0%,0%);stroke-opacity:1;stroke-miterlimit:4;" d="M 25.001271 9.999813 L 25.001271 2.998512 " transform="matrix(1.254789,0,0,1.254789,255.351336,298.960157)"/>
  <path style="fill:none;stroke-width:1;stroke-linecap:butt;stroke-linejoin:miter;stroke:rgb(0%,0%,0%);stroke-opacity:1;stroke-miterlimit:4;" d="M 25.001271 40.000499 L 25.001271 47.001801 " transform="matrix(1.254789,0,0,1.254789,255.351336,298.960157)"/>
  <path style="fill:none;stroke-width:3.4;stroke-linecap:round;stroke-linejoin:miter;stroke:rgb(0%,0%,0%);stroke-opacity:1;stroke-miterlimit:4;" d="M 345.852704 257.051793 L 345.920578 230.396674 " transform="matrix(0.40286,0,0,0.40286,219.943217,168.354271)"/>
  <path style="fill:none;stroke-width:3.4;stroke-linecap:round;stroke-linejoin:round;stroke:rgb(0%,0%,0%);stroke-opacity:1;stroke-miterlimit:4;" d="M 366.641564 287.381808 C 366.777312 286.150379 366.660957 284.715327 366.418549 283.076653 C 365.429527 276.318334 360.222616 266.757786 345.678171 267.775897 C 333.703245 268.619475 332.578475 269.404875 329.73746 271.508971 C 327.769111 272.973112 327.584882 276.017749 327.584882 276.017749 M 345.736349 255.451904 C 348.66463 255.839756 355.868979 256.091859 360.494112 259.417689 C 364.498683 262.307185 366.156749 266.854749 366.418549 269.113986 C 367.203949 275.891697 360.222616 285.432853 345.678171 284.414741 C 333.703245 283.571164 332.578475 282.785764 329.73746 280.681667 C 327.769111 279.217527 327.584882 276.172889 327.584882 276.172889 M 366.65126 310.536564 C 366.787009 309.305135 366.670653 307.870083 366.428246 306.231409 C 365.439223 299.47309 360.232312 289.912542 345.687867 290.930653 C 333.712941 291.774231 332.588171 292.559631 329.747156 294.663727 C 327.778808 296.127868 327.594578 299.172505 327.594578 299.172505 M 366.660957 287.963586 C 366.796705 289.195016 366.680349 290.630068 366.437942 292.268742 C 365.44892 299.02706 360.242008 308.587609 345.697564 307.569497 C 333.722638 306.72592 332.597867 305.94052 329.756852 303.836423 C 327.788504 302.372283 327.604274 299.327645 327.604274 299.327645 M 366.670653 311.118342 C 366.806401 312.349772 366.690046 313.784824 366.447638 315.423498 C 365.458616 322.181816 360.251705 331.742365 345.70726 330.724253 C 333.732334 329.880676 332.607563 329.095276 329.766549 326.991179 C 327.7982 325.536735 327.613971 322.482401 327.613971 322.482401 M 345.794527 366.348447 C 348.228297 366.658728 355.102971 365.950899 359.999601 363.313506 C 365.44892 360.375528 366.505816 355.944321 366.447638 352.540921 C 366.360371 347.867306 360.251705 336.222054 345.70726 337.240165 C 333.732334 338.083742 332.607563 338.869143 329.766549 340.973239 C 327.7982 342.427683 327.613971 345.482017 327.613971 345.482017 M 366.680349 334.273098 C 366.816097 335.504528 366.699742 336.93958 366.457334 338.578254 C 365.468312 345.336572 360.261401 354.897121 345.716956 353.879009 C 333.74203 353.035432 332.61726 352.250032 329.776245 350.145935 C 327.807897 348.691491 327.623667 345.637157 327.623667 345.637157 M 327.623667 322.336957 C 327.623667 322.336957 327.807897 319.29232 329.776245 317.828179 C 332.61726 315.714387 333.74203 314.938683 345.716956 314.095105 C 360.261401 313.067298 365.478008 322.637542 366.457334 329.395861 C 366.699742 331.044231 366.825794 332.479283 366.680349 333.701016 L 366.680349 334.273098 " transform="matrix(0.40286,0,0,0.40286,219.943217,168.354271)"/>
  <path style="fill:none;stroke-width:3.4;stroke-linecap:round;stroke-linejoin:miter;stroke:rgb(0%,0%,0%);stroke-opacity:1;stroke-miterlimit:4;" d="M 345.736349 389.435329 L 345.619993 364.632202 " transform="matrix(0.40286,0,0,0.40286,219.943217,168.354271)"/>
  <path style="fill:none;stroke-width:0.883107;stroke-linecap:butt;stroke-linejoin:bevel;stroke:rgb(0%,0%,0%);stroke-opacity:1;stroke-miterlimit:4;" d="M 18.384527 14.858664 L 30.082164 14.858664 L 32.029422 9.859481 L 35.929574 19.860665 L 39.829726 9.859481 L 43.729877 19.860665 L 47.630029 9.859481 L 51.530181 19.860665 L 53.477439 14.861482 L 65.175076 14.861482 " transform="matrix(0,1.386164,-1.386164,0,379.827014,299.754312)"/>
  <path style="fill:none;stroke-width:0.264583;stroke-linecap:butt;stroke-linejoin:miter;stroke:rgb(0%,0%,0%);stroke-opacity:1;stroke-miterlimit:4;" d="M 126.531452 137.621902 L 101.197601 137.597098 L 101.14937 126.272381 " transform="matrix(2.834646,0,0,2.834646,0.000000000000040283,-0.000000000000056843)"/>
  <path style="fill:none;stroke-width:0.264583;stroke-linecap:butt;stroke-linejoin:miter;stroke:rgb(0%,0%,0%);stroke-opacity:1;stroke-miterlimit:4;" d="M 101.14937 106.793813 L 101.17004 92.187988 L 126.753316 92.134245 " transform="matrix(2.834646,0,0,2.834646,0.000000000000040283,-0.000000000000056843)"/>

<!--arrow  -->
  <path style="fill:none;stroke-width:0.264583;stroke-linecap:butt;stroke-linejoin:miter;stroke:rgb(0%,0%,0%);stroke-opacity:1;stroke-miterlimit:4;" d="M 107.697806 95.196245 L 107.69505 89.12461 L 109.963301 92.16594 " transform="matrix(2.834646,0,0,2.834646,0.000000000000040283,-0.000000000000056843)"/>

<!--i label  -->
  <path style=" stroke:none;fill-rule:nonzero;fill:rgb(0%,0%,0%);fill-opacity:1;" d="M 307.175781 238.25 L 307.175781 236.632813 L 308.582031 236.632813 L 308.582031 238.25 Z M 307.175781 248.085938 L 307.175781 239.789063 L 308.582031 239.789063 L 308.582031 248.085938 Z M 307.175781 248.085938 "/>

<!--v0  -->
  <path style=" stroke:none;fill-rule:nonzero;fill:rgb(0%,0%,0%);fill-opacity:1;" d="M 359.804688 255.519531 L 358.445313 247.222656 L 359.820313 247.222656 L 360.53125 251.792969 C 360.609375 252.292969 360.703125 253.109375 360.820313 254.238281 C 361.085938 253.652344 361.433594 252.976563 361.859375 252.214844 L 364.632813 247.222656 L 366.125 247.222656 L 361.375 255.519531 Z M 359.804688 255.519531 "/>
  <path style=" stroke:none;fill-rule:nonzero;fill:rgb(0%,0%,0%);fill-opacity:1;" d="M 365.503906 256.023438 C 365.5 255.179688 365.585938 254.5 365.765625 253.980469 C 365.9375 253.46875 366.199219 253.070313 366.542969 252.789063 C 366.886719 252.511719 367.316406 252.371094 367.839844 252.367188 C 368.21875 252.371094 368.554688 252.449219 368.847656 252.601563 C 369.136719 252.757813 369.378906 252.980469 369.566406 253.269531 C 369.753906 253.5625 369.902344 253.917969 370.011719 254.332031 C 370.117188 254.753906 370.167969 255.316406 370.171875 256.023438 C 370.167969 256.867188 370.082031 257.546875 369.914063 258.058594 C 369.738281 258.578125 369.480469 258.976563 369.140625 259.253906 C 368.792969 259.535156 368.359375 259.671875 367.839844 259.675781 C 367.144531 259.671875 366.605469 259.425781 366.214844 258.933594 C 365.738281 258.339844 365.5 257.371094 365.503906 256.023438 Z M 366.410156 256.023438 C 366.40625 257.199219 366.542969 257.980469 366.820313 258.371094 C 367.09375 258.761719 367.433594 258.957031 367.839844 258.953125 C 368.238281 258.957031 368.578125 258.761719 368.855469 258.367188 C 369.128906 257.980469 369.265625 257.199219 369.269531 256.023438 C 369.265625 254.847656 369.128906 254.066406 368.855469 253.675781 C 368.578125 253.292969 368.234375 253.097656 367.828125 253.09375 C 367.421875 253.097656 367.101563 253.269531 366.863281 253.605469 C 366.558594 254.046875 366.40625 254.851563 366.410156 256.023438 Z M 366.410156 256.023438 "/>

<!--v1-->
  <path style=" stroke:none;fill-rule:nonzero;fill:rgb(0%,0%,0%);fill-opacity:1;" d="M 367.933594 330.625 L 366.574219 322.328125 L 367.949219 322.328125 L 368.660156 326.898438 C 368.738281 327.398438 368.832031 328.214844 368.949219 329.34375 C 369.214844 328.757813 369.5625 328.082031 369.988281 327.320313 L 372.761719 322.328125 L 374.253906 322.328125 L 369.503906 330.625 Z M 367.933594 330.625 "/>
  <path style=" stroke:none;fill-rule:nonzero;fill:rgb(0%,0%,0%);fill-opacity:1;" d="M 376.316406 335.625 L 375.4375 335.625 L 375.4375 330.023438 C 375.226563 330.226563 374.949219 330.429688 374.605469 330.632813 C 374.261719 330.835938 373.953125 330.988281 373.679688 331.082031 L 373.679688 330.234375 C 374.171875 330.003906 374.601563 329.726563 374.96875 329.394531 C 375.335938 329.070313 375.59375 328.75 375.75 328.4375 L 376.316406 328.4375 Z M 376.316406 335.625 "/>

<!--L text  -->
  <path style=" stroke:none;fill-rule:nonzero;fill:rgb(0%,0%,0%);fill-opacity:1;" d="M 374.957031 298.125 L 374.957031 288.101563 L 376.28125 288.101563 L 376.28125 296.941406 L 381.21875 296.941406 L 381.21875 298.125 Z M 374.957031 298.125 "/>
  <path style=" stroke:none;fill-rule:nonzero;fill:rgb(0%,0%,0%);fill-opacity:1;" d="M 386.195313 298.125 L 388.292969 288.101563 L 389.625 288.101563 L 388.757813 292.265625 L 393.953125 292.265625 L 394.820313 288.101563 L 396.160156 288.101563 L 394.070313 298.125 L 392.730469 298.125 L 393.714844 293.402344 L 388.523438 293.402344 L 387.535156 298.125 Z M 386.195313 298.125 "/>

<!--R text  -->
  <path style=" stroke:none;fill-rule:nonzero;fill:rgb(0%,0%,0%);fill-opacity:1;" d="M 373.15625 361.875 L 373.15625 351.851563 L 377.597656 351.851563 C 378.488281 351.855469 379.164063 351.945313 379.632813 352.125 C 380.09375 352.304688 380.46875 352.625 380.75 353.078125 C 381.027344 353.539063 381.164063 354.039063 381.167969 354.585938 C 381.164063 355.296875 380.933594 355.898438 380.476563 356.386719 C 380.011719 356.875 379.300781 357.183594 378.34375 357.316406 C 378.691406 357.484375 378.960938 357.652344 379.144531 357.8125 C 379.53125 358.171875 379.898438 358.617188 380.246094 359.148438 L 381.988281 361.875 L 380.320313 361.875 L 378.992188 359.789063 C 378.605469 359.1875 378.285156 358.730469 378.035156 358.410156 C 377.78125 358.09375 377.558594 357.867188 377.363281 357.738281 C 377.164063 357.613281 376.960938 357.527344 376.757813 357.472656 C 376.605469 357.445313 376.359375 357.429688 376.019531 357.425781 L 374.480469 357.425781 L 374.480469 361.875 Z M 374.480469 356.277344 L 377.332031 356.277344 C 377.9375 356.28125 378.410156 356.21875 378.753906 356.089844 C 379.089844 355.964844 379.351563 355.761719 379.53125 355.488281 C 379.710938 355.214844 379.800781 354.914063 379.800781 354.585938 C 379.800781 354.113281 379.628906 353.726563 379.285156 353.417969 C 378.941406 353.117188 378.394531 352.964844 377.652344 352.960938 L 374.480469 352.960938 Z M 374.480469 356.277344 "/>
  <path style=" stroke:none;fill-rule:nonzero;fill:rgb(0%,0%,0%);fill-opacity:1;" d="M 386.101563 361.875 L 386.347656 360.738281 L 388.84375 360.738281 C 387.859375 359.808594 387.367188 358.675781 387.367188 357.335938 C 387.367188 356.390625 387.597656 355.472656 388.066406 354.585938 C 388.53125 353.699219 389.160156 352.996094 389.949219 352.46875 C 390.734375 351.949219 391.625 351.6875 392.625 351.683594 C 393.78125 351.6875 394.738281 352.097656 395.496094 352.921875 C 396.246094 353.746094 396.625 354.832031 396.628906 356.179688 C 396.625 358.140625 395.84375 359.660156 394.285156 360.738281 L 396.460938 360.738281 L 396.214844 361.875 L 392.042969 361.875 L 392.28125 360.828125 C 393.269531 360.515625 394.023438 359.921875 394.546875 359.050781 C 395.066406 358.183594 395.328125 357.222656 395.332031 356.160156 C 395.328125 355.136719 395.0625 354.320313 394.527344 353.710938 C 393.992188 353.105469 393.316406 352.800781 392.507813 352.796875 C 391.464844 352.800781 390.570313 353.269531 389.820313 354.210938 C 389.066406 355.15625 388.691406 356.265625 388.695313 357.535156 C 388.691406 359.078125 389.3125 360.175781 390.554688 360.828125 L 390.320313 361.875 Z M 386.101563 361.875 "/>

<!--voltage source text-->
  <path style=" stroke:none;fill-rule:nonzero;fill:rgb(0%,0%,0%);fill-opacity:1;" d="M 173.28125 332.972656 L 173.28125 322.949219 L 174.609375 322.949219 L 174.609375 332.972656 Z M 173.28125 332.972656 "/>
  <path style=" stroke:none;fill-rule:nonzero;fill:rgb(0%,0%,0%);fill-opacity:1;" d="M 176.460938 332.972656 L 176.460938 327.246094 L 177.601563 327.246094 L 178.957031 331.300781 C 179.078125 331.683594 179.171875 331.964844 179.230469 332.148438 C 179.292969 331.941406 179.394531 331.636719 179.535156 331.230469 L 180.90625 327.246094 L 181.925781 327.246094 L 181.925781 332.972656 L 181.195313 332.972656 L 181.195313 328.179688 L 179.53125 332.972656 L 178.847656 332.972656 L 177.191406 328.097656 L 177.191406 332.972656 Z M 176.460938 332.972656 "/>
  <path style=" stroke:none;fill-rule:nonzero;fill:rgb(0%,0%,0%);fill-opacity:1;" d="M 188.191406 330.3125 L 189.402344 330.46875 C 189.265625 331.308594 188.925781 331.960938 188.386719 332.429688 C 187.839844 332.902344 187.171875 333.136719 186.378906 333.136719 C 185.382813 333.136719 184.585938 332.8125 183.984375 332.164063 C 183.378906 331.515625 183.074219 330.585938 183.078125 329.371094 C 183.074219 328.589844 183.207031 327.902344 183.46875 327.3125 C 183.726563 326.726563 184.121094 326.285156 184.652344 325.988281 C 185.183594 325.695313 185.761719 325.550781 186.386719 325.546875 C 187.175781 325.550781 187.820313 325.75 188.320313 326.148438 C 188.820313 326.550781 189.140625 327.117188 189.285156 327.84375 L 188.089844 328.03125 C 187.972656 327.546875 187.769531 327.179688 187.484375 326.929688 C 187.191406 326.6875 186.84375 326.5625 186.433594 326.558594 C 185.8125 326.5625 185.308594 326.785156 184.921875 327.226563 C 184.535156 327.675781 184.339844 328.378906 184.34375 329.335938 C 184.339844 330.3125 184.527344 331.019531 184.902344 331.460938 C 185.273438 331.90625 185.761719 332.128906 186.367188 332.125 C 186.847656 332.128906 187.25 331.980469 187.574219 331.679688 C 187.898438 331.386719 188.105469 330.929688 188.191406 330.3125 Z M 188.191406 330.3125 "/>
  <path style=" stroke:none;fill-rule:nonzero;fill:rgb(0%,0%,0%);fill-opacity:1;" d="M 189.996094 329.34375 C 189.992188 328 190.367188 327.003906 191.117188 326.355469 C 191.738281 325.820313 192.5 325.550781 193.402344 325.546875 C 194.398438 325.550781 195.214844 325.878906 195.847656 326.53125 C 196.480469 327.1875 196.796875 328.089844 196.796875 329.238281 C 196.796875 330.175781 196.65625 330.910156 196.375 331.445313 C 196.09375 331.980469 195.683594 332.394531 195.152344 332.691406 C 194.613281 332.988281 194.03125 333.136719 193.402344 333.136719 C 192.382813 333.136719 191.558594 332.8125 190.933594 332.160156 C 190.304688 331.507813 189.992188 330.570313 189.996094 329.34375 Z M 191.261719 329.34375 C 191.257813 330.277344 191.460938 330.972656 191.867188 331.433594 C 192.269531 331.898438 192.78125 332.128906 193.402344 332.125 C 194.007813 332.128906 194.515625 331.898438 194.925781 331.429688 C 195.328125 330.96875 195.53125 330.257813 195.535156 329.300781 C 195.53125 328.40625 195.328125 327.726563 194.921875 327.261719 C 194.511719 326.800781 194.003906 326.570313 193.402344 326.566406 C 192.78125 326.570313 192.269531 326.800781 191.867188 327.257813 C 191.460938 327.722656 191.257813 328.417969 191.261719 329.34375 Z M 191.261719 329.34375 "/>
  <path style=" stroke:none;fill-rule:nonzero;fill:rgb(0%,0%,0%);fill-opacity:1;" d="M 197.746094 330.804688 L 198.964844 330.613281 C 199.027344 331.101563 199.21875 331.476563 199.535156 331.734375 C 199.84375 332 200.28125 332.128906 200.84375 332.125 C 201.40625 332.128906 201.824219 332.015625 202.101563 331.78125 C 202.371094 331.554688 202.507813 331.28125 202.511719 330.96875 C 202.507813 330.691406 202.386719 330.472656 202.148438 330.3125 C 201.980469 330.203125 201.5625 330.066406 200.890625 329.894531 C 199.988281 329.671875 199.363281 329.472656 199.015625 329.304688 C 198.664063 329.140625 198.398438 328.910156 198.222656 328.613281 C 198.039063 328.320313 197.949219 327.996094 197.953125 327.640625 C 197.949219 327.320313 198.023438 327.023438 198.175781 326.742188 C 198.320313 326.46875 198.523438 326.238281 198.78125 326.054688 C 198.96875 325.917969 199.226563 325.796875 199.5625 325.695313 C 199.890625 325.597656 200.246094 325.550781 200.625 325.546875 C 201.191406 325.550781 201.691406 325.632813 202.125 325.792969 C 202.554688 325.960938 202.871094 326.183594 203.078125 326.460938 C 203.28125 326.746094 203.425781 327.121094 203.503906 327.585938 L 202.300781 327.75 C 202.242188 327.378906 202.082031 327.085938 201.824219 326.875 C 201.558594 326.667969 201.191406 326.5625 200.714844 326.558594 C 200.148438 326.5625 199.742188 326.65625 199.503906 326.839844 C 199.257813 327.03125 199.136719 327.25 199.140625 327.496094 C 199.136719 327.65625 199.1875 327.800781 199.292969 327.925781 C 199.386719 328.0625 199.546875 328.171875 199.765625 328.253906 C 199.886719 328.304688 200.246094 328.410156 200.851563 328.570313 C 201.71875 328.804688 202.328125 328.992188 202.671875 329.140625 C 203.015625 329.289063 203.285156 329.507813 203.480469 329.789063 C 203.675781 330.074219 203.773438 330.421875 203.777344 330.839844 C 203.773438 331.25 203.652344 331.636719 203.417969 332 C 203.175781 332.363281 202.832031 332.644531 202.382813 332.839844 C 201.929688 333.039063 201.417969 333.136719 200.851563 333.136719 C 199.90625 333.136719 199.1875 332.941406 198.695313 332.550781 C 198.195313 332.160156 197.878906 331.578125 197.746094 330.804688 Z M 197.746094 330.804688 "/>
  <path style=" stroke:none;fill-rule:nonzero;fill:rgb(0%,0%,0%);fill-opacity:1;" d="M 207.589844 335.917969 C 206.910156 335.058594 206.335938 334.058594 205.867188 332.910156 C 205.394531 331.765625 205.160156 330.578125 205.164063 329.34375 C 205.160156 328.261719 205.335938 327.222656 205.691406 326.226563 C 206.097656 325.078125 206.730469 323.929688 207.589844 322.78125 L 208.472656 322.78125 C 207.917969 323.734375 207.554688 324.410156 207.378906 324.808594 C 207.097656 325.441406 206.878906 326.097656 206.722656 326.777344 C 206.523438 327.636719 206.425781 328.492188 206.429688 329.347656 C 206.425781 331.542969 207.105469 333.730469 208.472656 335.917969 Z M 207.589844 335.917969 "/>
  <path style=" stroke:none;fill-rule:nonzero;fill:rgb(0%,0%,0%);fill-opacity:1;" d="M 210.65625 325.710938 L 211.84375 325.710938 C 211.164063 327.214844 210.824219 328.480469 210.828125 329.511719 C 210.824219 330.3125 210.972656 330.957031 211.265625 331.441406 C 211.554688 331.933594 211.925781 332.175781 212.378906 332.171875 C 212.667969 332.175781 212.941406 332.0625 213.199219 331.832031 C 213.453125 331.605469 213.621094 331.332031 213.707031 331.011719 C 213.789063 330.695313 213.832031 330.25 213.835938 329.671875 L 213.835938 327.542969 L 215.058594 327.542969 L 215.058594 329.671875 C 215.054688 330.234375 215.097656 330.675781 215.183594 331.003906 C 215.265625 331.332031 215.4375 331.609375 215.695313 331.835938 C 215.953125 332.0625 216.226563 332.175781 216.519531 332.171875 C 216.964844 332.175781 217.335938 331.933594 217.628906 331.445313 C 217.917969 330.960938 218.0625 330.316406 218.066406 329.511719 C 218.0625 328.480469 217.726563 327.214844 217.054688 325.710938 L 218.238281 325.710938 C 218.957031 326.996094 219.316406 328.238281 219.316406 329.4375 C 219.316406 330.648438 219.066406 331.566406 218.566406 332.195313 C 218.066406 332.824219 217.429688 333.136719 216.65625 333.136719 C 215.625 333.136719 214.886719 332.59375 214.449219 331.503906 C 214 332.59375 213.261719 333.136719 212.234375 333.136719 C 211.414063 333.136719 210.769531 332.808594 210.292969 332.144531 C 209.8125 331.488281 209.570313 330.585938 209.574219 329.4375 C 209.570313 328.238281 209.933594 326.996094 210.65625 325.710938 Z M 210.65625 325.710938 "/>
  <path style=" stroke:none;fill-rule:nonzero;fill:rgb(0%,0%,0%);fill-opacity:1;" d="M 223.519531 331.871094 L 223.699219 332.957031 C 223.351563 333.03125 223.042969 333.066406 222.769531 333.070313 C 222.320313 333.066406 221.972656 333 221.726563 332.859375 C 221.480469 332.71875 221.304688 332.53125 221.207031 332.300781 C 221.105469 332.070313 221.058594 331.585938 221.058594 330.847656 L 221.058594 326.667969 L 220.15625 326.667969 L 220.15625 325.710938 L 221.058594 325.710938 L 221.058594 323.914063 L 222.28125 323.175781 L 222.28125 325.710938 L 223.519531 325.710938 L 223.519531 326.667969 L 222.28125 326.667969 L 222.28125 330.914063 C 222.277344 331.269531 222.300781 331.496094 222.347656 331.59375 C 222.390625 331.695313 222.460938 331.773438 222.558594 331.832031 C 222.65625 331.890625 222.796875 331.917969 222.980469 331.917969 C 223.113281 331.917969 223.292969 331.902344 223.519531 331.871094 Z M 223.519531 331.871094 "/>
  <path style=" stroke:none;fill-rule:nonzero;fill:rgb(0%,0%,0%);fill-opacity:1;" d="M 224.246094 329.964844 L 224.246094 328.726563 L 228.027344 328.726563 L 228.027344 329.964844 Z M 224.246094 329.964844 "/>
  <path style=" stroke:none;fill-rule:nonzero;fill:rgb(0%,0%,0%);fill-opacity:1;" d="M 231.871094 325.570313 L 231.632813 326.636719 C 230.6875 326.953125 230.21875 327.777344 230.21875 329.109375 C 230.21875 329.820313 230.402344 330.449219 230.773438 331 C 231.144531 331.558594 231.699219 331.914063 232.441406 332.070313 L 232.441406 327.558594 C 232.4375 327.074219 232.472656 326.703125 232.542969 326.441406 C 232.609375 326.179688 232.765625 325.964844 233.007813 325.796875 C 233.25 325.632813 233.582031 325.550781 234.003906 325.546875 C 234.65625 325.550781 235.183594 325.683594 235.59375 325.945313 C 236 326.210938 236.347656 326.625 236.628906 327.195313 C 236.910156 327.765625 237.050781 328.378906 237.054688 329.035156 C 237.050781 329.582031 236.9375 330.132813 236.71875 330.679688 C 236.492188 331.234375 236.128906 331.738281 235.628906 332.195313 C 235.125 332.65625 234.46875 332.96875 233.65625 333.144531 L 233.65625 335.753906 L 232.441406 335.753906 L 232.441406 333.144531 C 231.589844 333.140625 230.796875 332.773438 230.058594 332.03125 C 229.320313 331.289063 228.953125 330.332031 228.953125 329.164063 C 228.953125 328.085938 229.246094 327.214844 229.835938 326.542969 C 230.425781 325.878906 231.105469 325.554688 231.871094 325.570313 Z M 233.65625 332.015625 C 234.230469 331.914063 234.726563 331.589844 235.140625 331.046875 C 235.554688 330.503906 235.761719 329.792969 235.761719 328.910156 C 235.761719 328.097656 235.609375 327.503906 235.308594 327.128906 C 235.007813 326.757813 234.691406 326.570313 234.355469 326.566406 C 234.113281 326.570313 233.933594 326.652344 233.824219 326.816406 C 233.707031 326.984375 233.652344 327.351563 233.65625 327.914063 Z M 233.65625 332.015625 "/>
  <path style=" stroke:none;fill-rule:nonzero;fill:rgb(0%,0%,0%);fill-opacity:1;" d="M 239.269531 335.917969 L 238.386719 335.917969 C 239.746094 333.730469 240.425781 331.542969 240.429688 329.347656 C 240.425781 328.492188 240.328125 327.644531 240.136719 326.800781 C 239.980469 326.121094 239.765625 325.464844 239.488281 324.832031 C 239.308594 324.425781 238.941406 323.742188 238.386719 322.78125 L 239.269531 322.78125 C 240.121094 323.929688 240.753906 325.078125 241.167969 326.226563 C 241.515625 327.222656 241.691406 328.261719 241.695313 329.34375 C 241.691406 330.578125 241.457031 331.765625 240.988281 332.910156 C 240.515625 334.058594 239.941406 335.058594 239.269531 335.917969 Z M 239.269531 335.917969 "/>
  <path style=" stroke:none;fill-rule:nonzero;fill:rgb(0%,0%,0%);fill-opacity:1;" d="M 249.757813 332.972656 L 247.832031 322.949219 L 249.121094 322.949219 L 250.285156 328.925781 C 250.496094 330.011719 250.636719 330.886719 250.703125 331.550781 C 251.121094 330.695313 251.464844 330.015625 251.734375 329.511719 L 255.308594 322.949219 L 256.691406 322.949219 L 251.195313 332.972656 Z M 249.757813 332.972656 "/>

<!--  ground-->
  <path style="fill:none;stroke-width:0.205363;stroke-linecap:butt;stroke-linejoin:miter;stroke:rgb(0%,0%,0%);stroke-opacity:1;stroke-miterlimit:4;" d="M 101.197601 137.597098 L 101.186577 139.609033 L 98.313367 139.593875 " transform="matrix(2.834646,0,0,2.834646,0.000000000000040283,-0.000000000000056843)"/>
  <path style="fill:none;stroke-width:0.205363;stroke-linecap:butt;stroke-linejoin:miter;stroke:rgb(0%,0%,0%);stroke-opacity:1;stroke-miterlimit:4;" d="M 101.186577 139.610411 L 104.149359 139.621436 " transform="matrix(2.834646,0,0,2.834646,0.000000000000040283,-0.000000000000056843)"/>
  <path style="fill:none;stroke-width:0.205363;stroke-linecap:butt;stroke-linejoin:miter;stroke:rgb(0%,0%,0%);stroke-opacity:1;stroke-miterlimit:4;" d="M 99.046484 140.550233 L 103.436913 140.559879 " transform="matrix(2.834646,0,0,2.834646,0.000000000000040283,-0.000000000000056843)"/>
  <path style="fill:none;stroke-width:0.205363;stroke-linecap:butt;stroke-linejoin:miter;stroke:rgb(0%,0%,0%);stroke-opacity:1;stroke-miterlimit:4;" d="M 99.982171 141.448714 C 101.003298 141.448714 101.751572 141.448714 102.531542 141.448714 " transform="matrix(2.834646,0,0,2.834646,0.000000000000040283,-0.000000000000056843)"/>

<!--???-->
<!--  <path style="fill:none;stroke-width:1;stroke-linecap:butt;stroke-linejoin:miter;stroke:rgb(0%,0%,0%);stroke-opacity:1;stroke-miterlimit:4;" d="M 366.641564 311.098949 L 366.641564 310.526868 " transform="matrix(0.40286,0,0,0.40286,219.943217,168.354271)"/>-->
<!--  <path style="fill:none;stroke-width:1;stroke-linecap:butt;stroke-linejoin:miter;stroke:rgb(0%,0%,0%);stroke-opacity:1;stroke-miterlimit:4;" d="M 366.641564 287.95389 L 366.641564 287.381808 " transform="matrix(0.40286,0,0,0.40286,219.943217,168.354271)"/>-->
<!--  <path style="fill:none;stroke-width:1;stroke-linecap:butt;stroke-linejoin:miter;stroke:rgb(0%,0%,0%);stroke-opacity:1;stroke-miterlimit:4;" d="M 345.920578 253.483556 L 345.736349 255.451904 " transform="matrix(0.40286,0,0,0.40286,219.943217,168.354271)"/>-->

</g>
</svg>
