<?xml version="1.0" encoding="UTF-8"?>
<svg xmlns="http://www.w3.org/2000/svg" xmlns:xlink="http://www.w3.org/1999/xlink" width="595.275591pt" height="841.889764pt" viewBox="0 0 595.275591 841.889764" version="1.1">
<g id="surface1">
<path style="fill:none;stroke-width:1;stroke-linecap:butt;stroke-linejoin:miter;stroke:rgb(0%,0%,0%);stroke-opacity:1;stroke-miterlimit:4;" d="M 24.999791 9.999749 L 24.999791 3.000196 " transform="matrix(1.610594,0,0,1.610594,136.547986,246.734308)"/>
<path style="fill:none;stroke-width:1;stroke-linecap:butt;stroke-linejoin:miter;stroke:rgb(0%,0%,0%);stroke-opacity:1;stroke-miterlimit:4;" d="M 24.999791 39.998871 L 24.999791 46.998424 " transform="matrix(1.610594,0,0,1.610594,136.547986,246.734308)"/>
<path style="fill:none;stroke-width:1;stroke-linecap:square;stroke-linejoin:miter;stroke:rgb(0%,0%,0%);stroke-opacity:1;stroke-miterlimit:4;" d="M 39.99814 25.000523 C 39.99814 33.287935 33.284778 40.001297 24.997366 40.001297 C 16.709954 40.001297 9.996592 33.287935 9.996592 25.000523 C 9.996592 16.713111 16.709954 9.999749 24.997366 9.999749 C 33.284778 9.999749 39.99814 16.713111 39.99814 25.000523 Z M 39.99814 25.000523 " transform="matrix(1.610594,0,0,1.610594,136.547986,246.734308)"/>
<path style="fill:none;stroke-width:0.883107;stroke-linecap:butt;stroke-linejoin:bevel;stroke:rgb(0%,0%,0%);stroke-opacity:1;stroke-miterlimit:4;" d="M 18.385301 14.859271 L 30.083878 14.859271 L 32.032845 9.860267 L 35.933167 19.860663 L 39.833489 9.860267 L 43.733811 19.860663 L 47.634132 9.860267 L 51.534454 19.860663 L 53.483421 14.861659 L 65.181998 14.861659 " transform="matrix(1.635482,0,0,1.635482,168.302265,207.350274)"/>
<path style="fill:none;stroke-width:1;stroke-linecap:butt;stroke-linejoin:miter;stroke:rgb(0%,0%,0%);stroke-opacity:1;stroke-miterlimit:4;" d="M 18.978875 15.999513 L 29.375349 15.999513 " transform="matrix(0,2.163068,-2.163068,0,341.076784,248.970841)"/>
<path style="fill:none;stroke-width:0.75;stroke-linecap:butt;stroke-linejoin:miter;stroke:rgb(0%,0%,0%);stroke-opacity:1;stroke-miterlimit:4;" d="M 4.340168 12.049746 L 12.137523 12.049746 " transform="matrix(0,2.884091,-2.884091,0,341.076784,248.970841)"/>
<path style="fill:none;stroke-width:0.883107;stroke-linecap:butt;stroke-linejoin:bevel;stroke:rgb(0%,0%,0%);stroke-opacity:1;stroke-miterlimit:4;" d="M 18.385693 14.859271 L 30.084271 14.859271 L 32.033237 9.860267 L 35.933559 19.860663 L 39.833881 9.860267 L 43.734203 19.860663 L 47.634525 9.860267 L 51.534847 19.860663 L 53.483814 14.861659 L 65.182391 14.861659 " transform="matrix(1.635482,0,0,1.635482,313.879748,207.350274)"/>
<path style="fill:none;stroke-width:1;stroke-linecap:butt;stroke-linejoin:miter;stroke:rgb(0%,0%,0%);stroke-opacity:1;stroke-miterlimit:4;" d="M 18.979977 15.999744 L 29.374646 15.999744 " transform="matrix(-2.163068,0,0,-2.163068,421.195606,150.499159)"/>
<path style="fill:none;stroke-width:0.75;stroke-linecap:butt;stroke-linejoin:miter;stroke:rgb(0%,0%,0%);stroke-opacity:1;stroke-miterlimit:4;" d="M 4.339641 12.04992 L 12.136996 12.04992 " transform="matrix(-2.884091,0,0,-2.884091,421.195606,150.499159)"/>
<path style="fill:none;stroke-width:0.883107;stroke-linecap:butt;stroke-linejoin:bevel;stroke:rgb(0%,0%,0%);stroke-opacity:1;stroke-miterlimit:4;" d="M 18.385559 14.858356 L 30.084137 14.858356 L 32.033103 9.859352 L 35.933425 19.859748 L 39.833747 9.859352 L 43.734069 19.859748 L 47.634391 9.859352 L 51.534713 19.859748 L 53.483679 14.860744 L 65.182257 14.860744 " transform="matrix(0,1.635482,-1.635482,0,481.214636,118.79403)"/>
<path style="fill:none;stroke-width:0.883107;stroke-linecap:butt;stroke-linejoin:bevel;stroke:rgb(0%,0%,0%);stroke-opacity:1;stroke-miterlimit:4;" d="M 18.385711 14.857617 L 30.084288 14.857617 L 32.033255 9.858613 L 35.933576 19.859009 L 39.833898 9.858613 L 43.73422 19.859009 L 47.634542 9.858613 L 51.534864 19.859009 L 53.483831 14.860005 L 65.182408 14.860005 " transform="matrix(1.635482,0,0,1.635482,313.87972,308.290479)"/>
<path style="fill:none;stroke-width:3.4;stroke-linecap:round;stroke-linejoin:miter;stroke:rgb(0%,0%,0%);stroke-opacity:1;stroke-miterlimit:4;" d="M 345.856458 257.04379 L 345.922782 230.381552 " transform="matrix(0.471172,0,0,0.471172,293.354621,140.978007)"/>
<path style="fill:none;stroke-width:3.4;stroke-linecap:round;stroke-linejoin:miter;stroke:rgb(0%,0%,0%);stroke-opacity:1;stroke-miterlimit:4;" d="M 345.748681 389.426445 L 345.632615 364.621278 " transform="matrix(0.471172,0,0,0.471172,293.354621,140.978007)"/>
<path style="fill:none;stroke-width:0.264583;stroke-linecap:butt;stroke-linejoin:miter;stroke:rgb(0%,0%,0%);stroke-opacity:1;stroke-miterlimit:4;" d="M 62.375514 88.747027 L 62.407208 81.65151 L 69.980905 81.723168 " transform="matrix(2.834646,0,0,2.834646,0.000000000000040283,-0.000000000000170529)"/>
<path style="fill:none;stroke-width:0.264583;stroke-linecap:butt;stroke-linejoin:miter;stroke:rgb(0%,0%,0%);stroke-opacity:1;stroke-miterlimit:4;" d="M 161.288328 79.515551 L 161.087134 88.02907 " transform="matrix(2.834646,0,0,2.834646,0.000000000000040283,-0.000000000000170529)"/>
<path style="fill:none;stroke-width:0.264583;stroke-linecap:butt;stroke-linejoin:miter;stroke:rgb(0%,0%,0%);stroke-opacity:1;stroke-miterlimit:4;" d="M 148.337526 81.72179 L 161.187731 81.72179 " transform="matrix(2.834646,0,0,2.834646,0.000000000000040283,-0.000000000000170529)"/>
<path style="fill:none;stroke-width:0.264583;stroke-linecap:butt;stroke-linejoin:miter;stroke:rgb(0%,0%,0%);stroke-opacity:1;stroke-miterlimit:4;" d="M 144.173095 40.831267 L 161.197377 40.894657 L 161.187731 52.514273 " transform="matrix(2.834646,0,0,2.834646,0.000000000000040283,-0.000000000000170529)"/>
<path style="fill:none;stroke-width:0.264583;stroke-linecap:butt;stroke-linejoin:miter;stroke:rgb(0%,0%,0%);stroke-opacity:1;stroke-miterlimit:4;" d="M 96.980805 81.72179 L 121.337627 81.72179 " transform="matrix(2.834646,0,0,2.834646,0.000000000000040283,-0.000000000000170529)"/>
<path style="fill:none;stroke-width:0.264583;stroke-linecap:butt;stroke-linejoin:miter;stroke:rgb(0%,0%,0%);stroke-opacity:1;stroke-miterlimit:4;" d="M 108.062987 92.247244 L 107.856281 40.926352 L 126.173162 40.883632 " transform="matrix(2.834646,0,0,2.834646,0.000000000000040283,-0.000000000000170529)"/>
<path style="fill:none;stroke-width:0.264583;stroke-linecap:butt;stroke-linejoin:miter;stroke:rgb(0%,0%,0%);stroke-opacity:1;stroke-miterlimit:4;" d="M 148.337526 117.33167 L 160.965867 117.375768 L 160.957598 114.463973 " transform="matrix(2.834646,0,0,2.834646,0.000000000000040283,-0.000000000000170529)"/>
<path style="fill:none;stroke-width:0.264583;stroke-linecap:butt;stroke-linejoin:miter;stroke:rgb(0%,0%,0%);stroke-opacity:1;stroke-miterlimit:4;" d="M 121.337627 117.33167 L 62.375514 117.342695 L 62.375514 113.747393 " transform="matrix(2.834646,0,0,2.834646,0.000000000000040283,-0.000000000000170529)"/>
<path style="fill:none;stroke-width:0.264583;stroke-linecap:butt;stroke-linejoin:miter;stroke:rgb(0%,0%,0%);stroke-opacity:1;stroke-miterlimit:4;" d="M 108.115352 110.247177 L 108.148425 117.276549 " transform="matrix(2.834646,0,0,2.834646,0.000000000000040283,-0.000000000000170529)"/>
<path style="fill:none;stroke-width:0.264583;stroke-linecap:butt;stroke-linejoin:miter;stroke:rgb(0%,0%,0%);stroke-opacity:1;stroke-miterlimit:4;" d="M 62.31488 124.673857 L 62.375514 117.342695 " transform="matrix(2.834646,0,0,2.834646,0.000000000000040283,-0.000000000000170529)"/>
<path style="fill:none;stroke-width:1;stroke-linecap:butt;stroke-linejoin:miter;stroke:rgb(0%,0%,0%);stroke-opacity:1;stroke-miterlimit:4;" d="M 24.999791 13.999147 L 24.999791 19.999456 " transform="matrix(1.610594,0,0,1.610594,136.547986,246.734308)"/>
<path style="fill:none;stroke-width:1;stroke-linecap:butt;stroke-linejoin:miter;stroke:rgb(0%,0%,0%);stroke-opacity:1;stroke-miterlimit:4;" d="M 27.999946 16.999302 L 21.999637 16.999302 " transform="matrix(1.610594,0,0,1.610594,136.547986,246.734308)"/>
<path style="fill:none;stroke-width:1;stroke-linecap:butt;stroke-linejoin:miter;stroke:rgb(0%,0%,0%);stroke-opacity:1;stroke-miterlimit:4;" d="M 27.999946 33.49894 L 21.999637 33.49894 " transform="matrix(1.610594,0,0,1.610594,136.547986,246.734308)"/>
<path style="fill:none;stroke-width:1.5;stroke-linecap:butt;stroke-linejoin:miter;stroke:rgb(0%,0%,0%);stroke-opacity:1;stroke-miterlimit:4;" d="M 16.000972 4.999873 C 16.000972 26.999152 16.000972 26.999152 16.000972 26.999152 " transform="matrix(0,2.163068,-2.163068,0,341.076784,248.970841)"/>
<path style="fill:none;stroke-width:1.5;stroke-linecap:butt;stroke-linejoin:miter;stroke:rgb(0%,0%,0%);stroke-opacity:1;stroke-miterlimit:4;" d="M 19.000545 26.999152 L 19.000545 4.999873 " transform="matrix(0,2.163068,-2.163068,0,341.076784,248.970841)"/>
<path style="fill:none;stroke-width:1.5;stroke-linecap:butt;stroke-linejoin:miter;stroke:rgb(0%,0%,0%);stroke-opacity:1;stroke-miterlimit:4;" d="M 16.000268 5.000104 C 16.000268 26.999384 16.000268 26.999384 16.000268 26.999384 " transform="matrix(-2.163068,0,0,-2.163068,421.195606,150.499159)"/>
<path style="fill:none;stroke-width:1.5;stroke-linecap:butt;stroke-linejoin:miter;stroke:rgb(0%,0%,0%);stroke-opacity:1;stroke-miterlimit:4;" d="M 18.999842 26.999384 L 18.999842 5.000104 " transform="matrix(-2.163068,0,0,-2.163068,421.195606,150.499159)"/>
<path style="fill:none;stroke-width:3.4;stroke-linecap:round;stroke-linejoin:round;stroke:rgb(0%,0%,0%);stroke-opacity:1;stroke-miterlimit:4;" d="M 366.649024 287.378718 C 366.781672 286.151725 366.665605 284.709178 366.425181 283.06766 C 365.438612 276.310905 360.223889 266.751962 345.682358 267.771693 C 333.70259 268.617324 332.575082 269.404921 329.739732 271.502417 C 327.774884 272.969835 327.584203 276.004157 327.584203 276.004157 M 345.740391 255.435434 C 348.666936 255.816797 355.879669 256.073802 360.497475 259.406582 C 364.501785 262.291675 366.168175 266.834867 366.425181 269.098173 C 367.212778 275.879799 360.223889 285.413871 345.682358 284.39414 C 333.70259 283.548509 332.575082 282.760912 329.739732 280.663416 C 327.774884 279.195998 327.584203 276.161676 327.584203 276.161676 M 366.649024 310.525786 C 366.781672 309.298792 366.665605 307.856246 366.425181 306.214727 C 365.438612 299.457972 360.223889 289.899029 345.682358 290.918761 C 333.70259 291.764391 332.575082 292.551988 329.739732 294.649484 C 327.774884 296.116902 327.584203 299.151224 327.584203 299.151224 M 366.649024 287.934182 C 366.781672 289.161175 366.665605 290.603722 366.425181 292.24524 C 365.438612 299.001995 360.223889 308.560938 345.682358 307.541207 C 333.70259 306.695576 332.575082 305.907979 329.739732 303.810483 C 327.774884 302.343065 327.584203 299.308743 327.584203 299.308743 M 366.649024 311.09783 C 366.781672 312.324824 366.665605 313.76737 366.425181 315.408888 C 365.438612 322.165643 360.223889 331.724586 345.682358 330.704855 C 333.70259 329.859224 332.575082 329.071627 329.739732 326.974132 C 327.774884 325.515004 327.584203 322.472392 327.584203 322.472392 M 345.765262 366.345701 C 348.194378 366.65245 355.07549 365.947757 359.975174 363.311379 C 365.430321 360.376543 366.483214 355.949418 366.425181 352.533733 C 366.333985 347.857893 360.223889 336.218036 345.682358 337.237767 C 333.70259 338.083397 332.575082 338.870995 329.739732 340.96849 C 327.774884 342.427618 327.584203 345.47023 327.584203 345.47023 M 366.649024 334.253188 C 366.781672 335.480181 366.665605 336.922728 366.425181 338.564246 C 365.438612 345.321001 360.223889 354.879944 345.682358 353.860213 C 333.70259 353.014582 332.575082 352.226985 329.739732 350.129489 C 327.774884 348.670362 327.584203 345.62775 327.584203 345.62775 M 327.584203 322.331453 C 327.584203 322.331453 327.774884 319.288841 329.739732 317.829713 C 332.575082 315.723927 333.70259 314.93633 345.682358 314.09899 C 360.223889 313.070968 365.438612 322.638202 366.425181 329.394957 C 366.665605 331.044765 366.789963 332.479021 366.649024 333.706015 L 366.649024 334.269769 " transform="matrix(0.471172,0,0,0.471172,293.354621,140.978007)"/>
<path style="fill-rule:nonzero;fill:rgb(0%,0%,0%);fill-opacity:1;stroke-width:0.264999;stroke-linecap:butt;stroke-linejoin:miter;stroke:rgb(100%,100%,100%);stroke-opacity:1;stroke-miterlimit:4;" d="M 109.602255 81.72179 L 109.602255 81.72179 C 109.602255 82.658855 108.844334 83.419532 107.907268 83.422288 C 106.970202 83.425045 106.208147 82.668502 106.202635 81.731436 C 106.197123 80.79437 106.952288 80.029559 107.889354 80.021291 C 108.82642 80.0144 109.592609 80.766809 109.602255 81.703875 " transform="matrix(2.834646,0,0,2.834646,0.000000000000040283,-0.000000000000170529)"/>
<path style="fill-rule:nonzero;fill:rgb(0%,0%,0%);fill-opacity:1;stroke-width:0.264999;stroke-linecap:butt;stroke-linejoin:miter;stroke:rgb(100%,100%,100%);stroke-opacity:1;stroke-miterlimit:4;" d="M 109.789668 117.288951 L 109.789668 117.288951 C 109.789668 118.226017 109.031747 118.986694 108.094681 118.98945 C 107.157616 118.990828 106.395561 118.235663 106.390048 117.298597 C 106.384536 116.361532 107.139701 115.59672 108.076767 115.588452 C 109.013833 115.581562 109.780022 116.332593 109.789668 117.269659 " transform="matrix(2.834646,0,0,2.834646,0.000000000000040283,-0.000000000000170529)"/>
<path style="fill-rule:nonzero;fill:rgb(0%,0%,0%);fill-opacity:1;stroke-width:0.264999;stroke-linecap:butt;stroke-linejoin:miter;stroke:rgb(100%,100%,100%);stroke-opacity:1;stroke-miterlimit:4;" d="M 64.076012 117.276549 L 64.076012 117.276549 C 64.076012 118.213615 63.316714 118.974292 62.379648 118.977048 C 61.442582 118.978426 60.680527 118.223261 60.675015 117.286195 C 60.670881 116.349129 61.424667 115.584318 62.361733 115.57605 C 63.298799 115.56916 64.064988 116.321568 64.076012 117.257256 " transform="matrix(2.834646,0,0,2.834646,0.000000000000040283,-0.000000000000170529)"/>
<path style="fill-rule:nonzero;fill:rgb(0%,0%,0%);fill-opacity:1;stroke-width:0.264999;stroke-linecap:butt;stroke-linejoin:miter;stroke:rgb(100%,100%,100%);stroke-opacity:1;stroke-miterlimit:4;" d="M 162.88823 81.72179 L 162.88823 81.72179 C 162.88823 82.658855 162.130309 83.419532 161.193243 83.422288 C 160.256177 83.425045 159.494122 82.668502 159.48861 81.731436 C 159.483098 80.79437 160.236885 80.029559 161.17395 80.021291 C 162.111016 80.0144 162.878583 80.766809 162.88823 81.703875 " transform="matrix(2.834646,0,0,2.834646,0.000000000000040283,-0.000000000000170529)"/>
<path style=" stroke:none;fill-rule:nonzero;fill:rgb(0%,0%,0%);fill-opacity:1;" d="M 221.644531 216.921875 L 220.414063 216.921875 L 220.414063 209.082031 C 220.117188 209.363281 219.726563 209.648438 219.25 209.929688 C 218.765625 210.214844 218.335938 210.425781 217.953125 210.5625 L 217.953125 209.375 C 218.640625 209.054688 219.242188 208.664063 219.757813 208.199219 C 220.273438 207.742188 220.636719 207.296875 220.851563 206.859375 L 221.644531 206.859375 Z M 221.644531 216.921875 "/>
<path style=" stroke:none;fill-rule:nonzero;fill:rgb(0%,0%,0%);fill-opacity:1;" d="M 224.796875 214.296875 L 226.089844 214.1875 C 226.183594 214.816406 226.402344 215.289063 226.753906 215.605469 C 227.097656 215.925781 227.519531 216.085938 228.015625 216.082031 C 228.605469 216.085938 229.105469 215.863281 229.519531 215.414063 C 229.925781 214.96875 230.132813 214.375 230.136719 213.632813 C 230.132813 212.9375 229.933594 212.382813 229.542969 211.972656 C 229.144531 211.570313 228.628906 211.367188 227.996094 211.363281 C 227.597656 211.367188 227.242188 211.457031 226.921875 211.632813 C 226.601563 211.816406 226.351563 212.050781 226.171875 212.335938 L 225.015625 212.183594 L 225.984375 207.035156 L 230.96875 207.035156 L 230.96875 208.210938 L 226.96875 208.210938 L 226.429688 210.90625 C 227.03125 210.488281 227.660156 210.277344 228.324219 210.277344 C 229.195313 210.277344 229.933594 210.582031 230.539063 211.1875 C 231.136719 211.792969 231.4375 212.570313 231.441406 213.523438 C 231.4375 214.429688 231.175781 215.214844 230.648438 215.875 C 230.003906 216.6875 229.125 217.089844 228.015625 217.09375 C 227.101563 217.089844 226.355469 216.839844 225.78125 216.328125 C 225.203125 215.820313 224.875 215.140625 224.796875 214.296875 Z M 224.796875 214.296875 "/>
<path style=" stroke:none;fill-rule:nonzero;fill:rgb(0%,0%,0%);fill-opacity:1;" d="M 232.585938 211.980469 C 232.582031 210.800781 232.703125 209.847656 232.949219 209.121094 C 233.191406 208.402344 233.554688 207.84375 234.035156 207.449219 C 234.515625 207.058594 235.121094 206.863281 235.851563 206.859375 C 236.386719 206.863281 236.859375 206.96875 237.265625 207.183594 C 237.671875 207.402344 238.003906 207.714844 238.269531 208.121094 C 238.53125 208.527344 238.742188 209.023438 238.894531 209.609375 C 239.042969 210.195313 239.117188 210.988281 239.121094 211.980469 C 239.117188 213.160156 238.996094 214.109375 238.757813 214.828125 C 238.511719 215.554688 238.148438 216.113281 237.671875 216.503906 C 237.1875 216.898438 236.582031 217.089844 235.851563 217.09375 C 234.882813 217.089844 234.125 216.746094 233.578125 216.054688 C 232.914063 215.21875 232.582031 213.863281 232.585938 211.980469 Z M 233.851563 211.980469 C 233.847656 213.628906 234.039063 214.722656 234.425781 215.265625 C 234.808594 215.8125 235.285156 216.085938 235.851563 216.082031 C 236.414063 216.085938 236.890625 215.8125 237.277344 215.261719 C 237.660156 214.71875 237.851563 213.625 237.855469 211.980469 C 237.851563 210.332031 237.660156 209.234375 237.277344 208.691406 C 236.890625 208.152344 236.410156 207.882813 235.839844 207.878906 C 235.273438 207.882813 234.820313 208.121094 234.484375 208.59375 C 234.058594 209.210938 233.847656 210.339844 233.851563 211.980469 Z M 233.851563 211.980469 "/>
<path style=" stroke:none;fill-rule:nonzero;fill:rgb(0%,0%,0%);fill-opacity:1;" d="M 244.34375 215.738281 L 246.53125 215.738281 C 245.144531 214.582031 244.453125 213.171875 244.453125 211.5 C 244.453125 210.597656 244.632813 209.785156 245 209.0625 C 245.359375 208.34375 245.875 207.773438 246.542969 207.355469 C 247.207031 206.941406 248.007813 206.734375 248.945313 206.730469 C 249.867188 206.734375 250.636719 206.925781 251.257813 207.304688 C 251.871094 207.691406 252.378906 208.238281 252.78125 208.953125 C 253.175781 209.667969 253.375 210.519531 253.378906 211.5 C 253.375 213.171875 252.683594 214.582031 251.300781 215.738281 L 253.488281 215.738281 L 253.488281 216.921875 L 249.59375 216.921875 L 249.59375 215.8125 C 251.210938 215.0625 252.023438 213.691406 252.027344 211.707031 C 252.023438 210.589844 251.738281 209.671875 251.167969 208.949219 C 250.597656 208.226563 249.851563 207.863281 248.9375 207.863281 C 247.992188 207.863281 247.238281 208.226563 246.675781 208.953125 C 246.105469 209.679688 245.824219 210.574219 245.828125 211.636719 C 245.824219 213.648438 246.628906 215.042969 248.246094 215.8125 L 248.246094 216.921875 L 244.34375 216.921875 Z M 244.34375 215.738281 "/>
<path style=" stroke:none;fill-rule:nonzero;fill:rgb(0%,0%,0%);fill-opacity:1;" d="M 364.011719 215.097656 L 362.78125 215.097656 L 362.78125 207.257813 C 362.484375 207.539063 362.09375 207.824219 361.617188 208.105469 C 361.132813 208.390625 360.703125 208.601563 360.320313 208.738281 L 360.320313 207.550781 C 361.007813 207.230469 361.609375 206.839844 362.125 206.375 C 362.640625 205.917969 363.003906 205.472656 363.21875 205.035156 L 364.011719 205.035156 Z M 364.011719 215.097656 "/>
<path style=" stroke:none;fill-rule:nonzero;fill:rgb(0%,0%,0%);fill-opacity:1;" d="M 367.167969 210.15625 C 367.164063 208.976563 367.285156 208.023438 367.53125 207.296875 C 367.773438 206.578125 368.136719 206.019531 368.617188 205.625 C 369.097656 205.234375 369.703125 205.039063 370.433594 205.035156 C 370.96875 205.039063 371.441406 205.144531 371.847656 205.359375 C 372.253906 205.578125 372.585938 205.890625 372.851563 206.296875 C 373.113281 206.703125 373.324219 207.199219 373.476563 207.785156 C 373.625 208.371094 373.699219 209.164063 373.703125 210.15625 C 373.699219 211.335938 373.578125 212.285156 373.339844 213.003906 C 373.09375 213.730469 372.730469 214.289063 372.253906 214.679688 C 371.769531 215.074219 371.164063 215.265625 370.433594 215.269531 C 369.464844 215.265625 368.707031 214.921875 368.160156 214.230469 C 367.496094 213.394531 367.164063 212.039063 367.167969 210.15625 Z M 368.433594 210.15625 C 368.429688 211.804688 368.621094 212.898438 369.007813 213.441406 C 369.390625 213.988281 369.867188 214.261719 370.433594 214.257813 C 370.996094 214.261719 371.472656 213.988281 371.859375 213.4375 C 372.242188 212.894531 372.433594 211.800781 372.4375 210.15625 C 372.433594 208.507813 372.242188 207.410156 371.859375 206.867188 C 371.472656 206.328125 370.992188 206.058594 370.421875 206.054688 C 369.855469 206.058594 369.402344 206.296875 369.066406 206.769531 C 368.640625 207.386719 368.429688 208.515625 368.433594 210.15625 Z M 368.433594 210.15625 "/>
<path style=" stroke:none;fill-rule:nonzero;fill:rgb(0%,0%,0%);fill-opacity:1;" d="M 374.953125 210.15625 C 374.949219 208.976563 375.070313 208.023438 375.316406 207.296875 C 375.558594 206.578125 375.921875 206.019531 376.402344 205.625 C 376.882813 205.234375 377.488281 205.039063 378.21875 205.035156 C 378.753906 205.039063 379.226563 205.144531 379.632813 205.359375 C 380.039063 205.578125 380.371094 205.890625 380.636719 206.296875 C 380.898438 206.703125 381.109375 207.199219 381.261719 207.785156 C 381.410156 208.371094 381.484375 209.164063 381.488281 210.15625 C 381.484375 211.335938 381.363281 212.285156 381.125 213.003906 C 380.878906 213.730469 380.515625 214.289063 380.039063 214.679688 C 379.554688 215.074219 378.949219 215.265625 378.21875 215.269531 C 377.25 215.265625 376.492188 214.921875 375.945313 214.230469 C 375.28125 213.394531 374.949219 212.039063 374.953125 210.15625 Z M 376.21875 210.15625 C 376.214844 211.804688 376.40625 212.898438 376.792969 213.441406 C 377.175781 213.988281 377.652344 214.261719 378.21875 214.257813 C 378.78125 214.261719 379.257813 213.988281 379.644531 213.4375 C 380.027344 212.894531 380.21875 211.800781 380.222656 210.15625 C 380.21875 208.507813 380.027344 207.410156 379.644531 206.867188 C 379.257813 206.328125 378.777344 206.058594 378.207031 206.054688 C 377.640625 206.058594 377.1875 206.296875 376.851563 206.769531 C 376.425781 207.386719 376.214844 208.515625 376.21875 210.15625 Z M 376.21875 210.15625 "/>
<path style=" stroke:none;fill-rule:nonzero;fill:rgb(0%,0%,0%);fill-opacity:1;" d="M 386.710938 213.914063 L 388.898438 213.914063 C 387.511719 212.757813 386.820313 211.347656 386.820313 209.675781 C 386.820313 208.773438 387 207.960938 387.367188 207.238281 C 387.726563 206.519531 388.242188 205.949219 388.910156 205.53125 C 389.574219 205.117188 390.375 204.910156 391.3125 204.90625 C 392.234375 204.910156 393.003906 205.101563 393.625 205.480469 C 394.238281 205.867188 394.746094 206.414063 395.148438 207.128906 C 395.542969 207.84375 395.742188 208.695313 395.746094 209.675781 C 395.742188 211.347656 395.050781 212.757813 393.667969 213.914063 L 395.855469 213.914063 L 395.855469 215.097656 L 391.960938 215.097656 L 391.960938 213.988281 C 393.578125 213.238281 394.390625 211.867188 394.394531 209.882813 C 394.390625 208.765625 394.105469 207.847656 393.535156 207.125 C 392.964844 206.402344 392.21875 206.039063 391.304688 206.039063 C 390.359375 206.039063 389.605469 206.402344 389.042969 207.128906 C 388.472656 207.855469 388.191406 208.75 388.195313 209.8125 C 388.191406 211.824219 388.996094 213.21875 390.613281 213.988281 L 390.613281 215.097656 L 386.710938 215.097656 Z M 386.710938 213.914063 "/>
<path style=" stroke:none;fill-rule:nonzero;fill:rgb(0%,0%,0%);fill-opacity:1;" d="M 367.761719 360.597656 L 366.53125 360.597656 L 366.53125 352.757813 C 366.234375 353.039063 365.84375 353.324219 365.367188 353.605469 C 364.882813 353.890625 364.453125 354.101563 364.070313 354.238281 L 364.070313 353.050781 C 364.757813 352.730469 365.359375 352.339844 365.875 351.875 C 366.390625 351.417969 366.753906 350.972656 366.96875 350.535156 L 367.761719 350.535156 Z M 367.761719 360.597656 "/>
<path style=" stroke:none;fill-rule:nonzero;fill:rgb(0%,0%,0%);fill-opacity:1;" d="M 370.917969 355.65625 C 370.914063 354.476563 371.035156 353.523438 371.28125 352.796875 C 371.523438 352.078125 371.886719 351.519531 372.367188 351.125 C 372.847656 350.734375 373.453125 350.539063 374.183594 350.535156 C 374.71875 350.539063 375.191406 350.644531 375.597656 350.859375 C 376.003906 351.078125 376.335938 351.390625 376.601563 351.796875 C 376.863281 352.203125 377.074219 352.699219 377.226563 353.285156 C 377.375 353.871094 377.449219 354.664063 377.453125 355.65625 C 377.449219 356.835938 377.328125 357.785156 377.089844 358.503906 C 376.84375 359.230469 376.480469 359.789063 376.003906 360.179688 C 375.519531 360.574219 374.914063 360.765625 374.183594 360.769531 C 373.214844 360.765625 372.457031 360.421875 371.910156 359.730469 C 371.246094 358.894531 370.914063 357.539063 370.917969 355.65625 Z M 372.183594 355.65625 C 372.179688 357.304688 372.371094 358.398438 372.757813 358.941406 C 373.140625 359.488281 373.617188 359.761719 374.183594 359.757813 C 374.746094 359.761719 375.222656 359.488281 375.609375 358.9375 C 375.992188 358.394531 376.183594 357.300781 376.1875 355.65625 C 376.183594 354.007813 375.992188 352.910156 375.609375 352.367188 C 375.222656 351.828125 374.742188 351.558594 374.171875 351.554688 C 373.605469 351.558594 373.152344 351.796875 372.816406 352.269531 C 372.390625 352.886719 372.179688 354.015625 372.183594 355.65625 Z M 372.183594 355.65625 "/>
<path style=" stroke:none;fill-rule:nonzero;fill:rgb(0%,0%,0%);fill-opacity:1;" d="M 378.703125 355.65625 C 378.699219 354.476563 378.820313 353.523438 379.066406 352.796875 C 379.308594 352.078125 379.671875 351.519531 380.152344 351.125 C 380.632813 350.734375 381.238281 350.539063 381.96875 350.535156 C 382.503906 350.539063 382.976563 350.644531 383.382813 350.859375 C 383.789063 351.078125 384.121094 351.390625 384.386719 351.796875 C 384.648438 352.203125 384.859375 352.699219 385.011719 353.285156 C 385.160156 353.871094 385.234375 354.664063 385.238281 355.65625 C 385.234375 356.835938 385.113281 357.785156 384.875 358.503906 C 384.628906 359.230469 384.265625 359.789063 383.789063 360.179688 C 383.304688 360.574219 382.699219 360.765625 381.96875 360.769531 C 381 360.765625 380.242188 360.421875 379.695313 359.730469 C 379.03125 358.894531 378.699219 357.539063 378.703125 355.65625 Z M 379.96875 355.65625 C 379.964844 357.304688 380.15625 358.398438 380.542969 358.941406 C 380.925781 359.488281 381.402344 359.761719 381.96875 359.757813 C 382.53125 359.761719 383.007813 359.488281 383.394531 358.9375 C 383.777344 358.394531 383.96875 357.300781 383.972656 355.65625 C 383.96875 354.007813 383.777344 352.910156 383.394531 352.367188 C 383.007813 351.828125 382.527344 351.558594 381.957031 351.554688 C 381.390625 351.558594 380.9375 351.796875 380.601563 352.269531 C 380.175781 352.886719 379.964844 354.015625 379.96875 355.65625 Z M 379.96875 355.65625 "/>
<path style=" stroke:none;fill-rule:nonzero;fill:rgb(0%,0%,0%);fill-opacity:1;" d="M 390.460938 359.414063 L 392.648438 359.414063 C 391.261719 358.257813 390.570313 356.847656 390.570313 355.175781 C 390.570313 354.273438 390.75 353.460938 391.117188 352.738281 C 391.476563 352.019531 391.992188 351.449219 392.660156 351.03125 C 393.324219 350.617188 394.125 350.410156 395.0625 350.40625 C 395.984375 350.410156 396.753906 350.601563 397.375 350.980469 C 397.988281 351.367188 398.496094 351.914063 398.898438 352.628906 C 399.292969 353.34375 399.492188 354.195313 399.496094 355.175781 C 399.492188 356.847656 398.800781 358.257813 397.417969 359.414063 L 399.605469 359.414063 L 399.605469 360.597656 L 395.710938 360.597656 L 395.710938 359.488281 C 397.328125 358.738281 398.140625 357.367188 398.144531 355.382813 C 398.140625 354.265625 397.855469 353.347656 397.285156 352.625 C 396.714844 351.902344 395.96875 351.539063 395.054688 351.539063 C 394.109375 351.539063 393.355469 351.902344 392.792969 352.628906 C 392.222656 353.355469 391.941406 354.25 391.945313 355.3125 C 391.941406 357.324219 392.746094 358.71875 394.363281 359.488281 L 394.363281 360.597656 L 390.460938 360.597656 Z M 390.460938 359.414063 "/>
<path style=" stroke:none;fill-rule:nonzero;fill:rgb(0%,0%,0%);fill-opacity:1;" d="M 478.34375 189.914063 L 478.34375 191.097656 L 471.722656 191.097656 C 471.710938 190.800781 471.757813 190.515625 471.863281 190.242188 C 472.03125 189.792969 472.300781 189.351563 472.671875 188.910156 C 473.042969 188.476563 473.582031 187.96875 474.285156 187.390625 C 475.371094 186.5 476.105469 185.792969 476.492188 185.269531 C 476.871094 184.75 477.0625 184.257813 477.066406 183.789063 C 477.0625 183.304688 476.886719 182.894531 476.542969 182.558594 C 476.191406 182.226563 475.738281 182.058594 475.179688 182.054688 C 474.585938 182.058594 474.113281 182.234375 473.757813 182.589844 C 473.402344 182.945313 473.222656 183.4375 473.21875 184.0625 L 471.953125 183.933594 C 472.039063 182.992188 472.363281 182.273438 472.929688 181.777344 C 473.492188 181.285156 474.25 181.039063 475.207031 181.035156 C 476.164063 181.039063 476.925781 181.304688 477.488281 181.835938 C 478.046875 182.371094 478.328125 183.03125 478.332031 183.816406 C 478.328125 184.21875 478.246094 184.613281 478.085938 185 C 477.917969 185.390625 477.644531 185.800781 477.269531 186.226563 C 476.886719 186.65625 476.253906 187.242188 475.371094 187.988281 C 474.628906 188.609375 474.15625 189.03125 473.949219 189.25 C 473.738281 189.472656 473.566406 189.691406 473.429688 189.914063 Z M 478.34375 189.914063 "/>
<path style=" stroke:none;fill-rule:nonzero;fill:rgb(0%,0%,0%);fill-opacity:1;" d="M 479.667969 186.15625 C 479.664063 184.976563 479.785156 184.023438 480.03125 183.296875 C 480.273438 182.578125 480.636719 182.019531 481.117188 181.625 C 481.597656 181.234375 482.203125 181.039063 482.933594 181.035156 C 483.46875 181.039063 483.941406 181.144531 484.347656 181.359375 C 484.753906 181.578125 485.085938 181.890625 485.351563 182.296875 C 485.613281 182.703125 485.824219 183.199219 485.976563 183.785156 C 486.125 184.371094 486.199219 185.164063 486.203125 186.15625 C 486.199219 187.335938 486.078125 188.285156 485.839844 189.003906 C 485.59375 189.730469 485.230469 190.289063 484.753906 190.679688 C 484.269531 191.074219 483.664063 191.265625 482.933594 191.269531 C 481.964844 191.265625 481.207031 190.921875 480.660156 190.230469 C 479.996094 189.394531 479.664063 188.039063 479.667969 186.15625 Z M 480.933594 186.15625 C 480.929688 187.804688 481.121094 188.898438 481.507813 189.441406 C 481.890625 189.988281 482.367188 190.261719 482.933594 190.257813 C 483.496094 190.261719 483.972656 189.988281 484.359375 189.4375 C 484.742188 188.894531 484.933594 187.800781 484.9375 186.15625 C 484.933594 184.507813 484.742188 183.410156 484.359375 182.867188 C 483.972656 182.328125 483.492188 182.058594 482.921875 182.054688 C 482.355469 182.058594 481.902344 182.296875 481.566406 182.769531 C 481.140625 183.386719 480.929688 184.515625 480.933594 186.15625 Z M 480.933594 186.15625 "/>
<path style=" stroke:none;fill-rule:nonzero;fill:rgb(0%,0%,0%);fill-opacity:1;" d="M 487.453125 186.15625 C 487.449219 184.976563 487.570313 184.023438 487.816406 183.296875 C 488.058594 182.578125 488.421875 182.019531 488.902344 181.625 C 489.382813 181.234375 489.988281 181.039063 490.71875 181.035156 C 491.253906 181.039063 491.726563 181.144531 492.132813 181.359375 C 492.539063 181.578125 492.871094 181.890625 493.136719 182.296875 C 493.398438 182.703125 493.609375 183.199219 493.761719 183.785156 C 493.910156 184.371094 493.984375 185.164063 493.988281 186.15625 C 493.984375 187.335938 493.863281 188.285156 493.625 189.003906 C 493.378906 189.730469 493.015625 190.289063 492.539063 190.679688 C 492.054688 191.074219 491.449219 191.265625 490.71875 191.269531 C 489.75 191.265625 488.992188 190.921875 488.445313 190.230469 C 487.78125 189.394531 487.449219 188.039063 487.453125 186.15625 Z M 488.71875 186.15625 C 488.714844 187.804688 488.90625 188.898438 489.292969 189.441406 C 489.675781 189.988281 490.152344 190.261719 490.71875 190.257813 C 491.28125 190.261719 491.757813 189.988281 492.144531 189.4375 C 492.527344 188.894531 492.71875 187.800781 492.722656 186.15625 C 492.71875 184.507813 492.527344 183.410156 492.144531 182.867188 C 491.757813 182.328125 491.277344 182.058594 490.707031 182.054688 C 490.140625 182.058594 489.6875 182.296875 489.351563 182.769531 C 488.925781 183.386719 488.714844 184.515625 488.71875 186.15625 Z M 488.71875 186.15625 "/>
<path style=" stroke:none;fill-rule:nonzero;fill:rgb(0%,0%,0%);fill-opacity:1;" d="M 499.210938 189.914063 L 501.398438 189.914063 C 500.011719 188.757813 499.320313 187.347656 499.320313 185.675781 C 499.320313 184.773438 499.5 183.960938 499.867188 183.238281 C 500.226563 182.519531 500.742188 181.949219 501.410156 181.53125 C 502.074219 181.117188 502.875 180.910156 503.8125 180.90625 C 504.734375 180.910156 505.503906 181.101563 506.125 181.480469 C 506.738281 181.867188 507.246094 182.414063 507.648438 183.128906 C 508.042969 183.84375 508.242188 184.695313 508.246094 185.675781 C 508.242188 187.347656 507.550781 188.757813 506.167969 189.914063 L 508.355469 189.914063 L 508.355469 191.097656 L 504.460938 191.097656 L 504.460938 189.988281 C 506.078125 189.238281 506.890625 187.867188 506.894531 185.882813 C 506.890625 184.765625 506.605469 183.847656 506.035156 183.125 C 505.464844 182.402344 504.71875 182.039063 503.804688 182.039063 C 502.859375 182.039063 502.105469 182.402344 501.542969 183.128906 C 500.972656 183.855469 500.691406 184.75 500.695313 185.8125 C 500.691406 187.824219 501.496094 189.21875 503.113281 189.988281 L 503.113281 191.097656 L 499.210938 191.097656 Z M 499.210938 189.914063 "/>
<path style=" stroke:none;fill-rule:nonzero;fill:rgb(0%,0%,0%);fill-opacity:1;" d="M 334.351563 289.160156 L 334.351563 287.921875 L 338.132813 287.921875 L 338.132813 289.160156 Z M 334.351563 289.160156 "/>
<path style="fill:none;stroke-width:0.264583;stroke-linecap:butt;stroke-linejoin:miter;stroke:rgb(0%,0%,0%);stroke-opacity:1;stroke-miterlimit:4;" d="M 101.248588 81.809984 L 98.091503 77.764064 L 98.11493 85.762197 " transform="matrix(2.834646,0,0,2.834646,0.000000000000040283,-0.000000000000170529)"/>
<path style="fill:none;stroke-width:0.264583;stroke-linecap:butt;stroke-linejoin:miter;stroke:rgb(0%,0%,0%);stroke-opacity:1;stroke-miterlimit:4;" d="M 148.337526 81.72179 L 151.494611 77.67587 L 151.471185 85.674003 " transform="matrix(2.834646,0,0,2.834646,0.000000000000040283,-0.000000000000170529)"/>
<path style="fill:none;stroke-width:0.264583;stroke-linecap:butt;stroke-linejoin:miter;stroke:rgb(0%,0%,0%);stroke-opacity:1;stroke-miterlimit:4;" d="M 118.006909 117.375768 L 121.163994 113.329848 L 121.140567 121.327981 " transform="matrix(2.834646,0,0,2.834646,0.000000000000040283,-0.000000000000170529)"/>
<path style="fill:none;stroke-width:0.264583;stroke-linecap:butt;stroke-linejoin:miter;stroke:rgb(0%,0%,0%);stroke-opacity:1;stroke-miterlimit:4;" d="M 108.062987 92.247244 L 104.017067 89.090159 L 112.0152 89.113586 " transform="matrix(2.834646,0,0,2.834646,0.000000000000040283,-0.000000000000170529)"/>
<path style="fill:none;stroke-width:0.264583;stroke-linecap:butt;stroke-linejoin:miter;stroke:rgb(0%,0%,0%);stroke-opacity:1;stroke-miterlimit:4;" d="M 118.773098 41.029704 L 121.930183 36.983785 L 121.906757 44.981917 " transform="matrix(2.834646,0,0,2.834646,0.000000000000040283,-0.000000000000170529)"/>
<path style="fill:none;stroke-width:0.264583;stroke-linecap:butt;stroke-linejoin:miter;stroke:rgb(0%,0%,0%);stroke-opacity:1;stroke-miterlimit:4;" d="M 151.865303 117.45156 L 155.022389 113.40564 L 154.998962 121.403773 " transform="matrix(2.834646,0,0,2.834646,0.000000000000040283,-0.000000000000170529)"/>
<path style="fill:none;stroke-width:0.264583;stroke-linecap:butt;stroke-linejoin:miter;stroke:rgb(0%,0%,0%);stroke-opacity:1;stroke-miterlimit:4;" d="M 161.156036 49.07469 L 165.201956 52.231776 L 157.203823 52.208349 " transform="matrix(2.834646,0,0,2.834646,0.000000000000040283,-0.000000000000170529)"/>
<path style=" stroke:none;fill-rule:nonzero;fill:rgb(0%,0%,0%);fill-opacity:1;" d="M 281.925781 219.605469 L 281.046875 219.605469 L 281.046875 214.003906 C 280.835938 214.207031 280.558594 214.410156 280.214844 214.613281 C 279.871094 214.816406 279.5625 214.96875 279.289063 215.0625 L 279.289063 214.214844 C 279.78125 213.984375 280.210938 213.707031 280.578125 213.375 C 280.945313 213.050781 281.203125 212.730469 281.359375 212.417969 L 281.925781 212.417969 Z M 281.925781 219.605469 "/>
<path style=" stroke:none;fill-rule:nonzero;fill:rgb(0%,0%,0%);fill-opacity:1;" d="M 433.71875 356.296875 L 434.640625 356.21875 C 434.710938 356.671875 434.867188 357.007813 435.117188 357.234375 C 435.363281 357.460938 435.664063 357.574219 436.019531 357.570313 C 436.4375 357.574219 436.796875 357.414063 437.089844 357.09375 C 437.382813 356.773438 437.527344 356.351563 437.53125 355.824219 C 437.527344 355.324219 437.386719 354.929688 437.109375 354.636719 C 436.824219 354.351563 436.457031 354.207031 436.003906 354.203125 C 435.71875 354.207031 435.460938 354.269531 435.234375 354.398438 C 435.003906 354.527344 434.828125 354.695313 434.699219 354.894531 L 433.875 354.789063 L 434.570313 351.113281 L 438.128906 351.113281 L 438.128906 351.953125 L 435.273438 351.953125 L 434.886719 353.875 C 435.316406 353.578125 435.765625 353.425781 436.238281 353.425781 C 436.859375 353.425781 437.386719 353.644531 437.820313 354.078125 C 438.246094 354.511719 438.460938 355.066406 438.464844 355.746094 C 438.460938 356.394531 438.273438 356.957031 437.898438 357.425781 C 437.4375 358.003906 436.808594 358.289063 436.019531 358.292969 C 435.363281 358.289063 434.832031 358.109375 434.425781 357.746094 C 434.011719 357.382813 433.777344 356.898438 433.71875 356.296875 Z M 433.71875 356.296875 "/>
<path style=" stroke:none;fill-rule:nonzero;fill:rgb(0%,0%,0%);fill-opacity:1;" d="M 340.324219 351.066406 L 339.449219 351.136719 C 339.371094 350.792969 339.257813 350.542969 339.117188 350.382813 C 338.875 350.136719 338.582031 350.011719 338.238281 350.007813 C 337.953125 350.011719 337.707031 350.089844 337.5 350.242188 C 337.21875 350.449219 337 350.742188 336.84375 351.128906 C 336.679688 351.515625 336.597656 352.066406 336.597656 352.78125 C 336.804688 352.460938 337.0625 352.222656 337.371094 352.0625 C 337.675781 351.910156 338 351.832031 338.335938 351.828125 C 338.921875 351.832031 339.417969 352.046875 339.832031 352.476563 C 340.238281 352.910156 340.445313 353.46875 340.449219 354.148438 C 340.445313 354.601563 340.347656 355.019531 340.15625 355.402344 C 339.960938 355.789063 339.695313 356.085938 339.359375 356.289063 C 339.019531 356.492188 338.636719 356.589844 338.207031 356.59375 C 337.472656 356.589844 336.875 356.324219 336.414063 355.789063 C 335.953125 355.253906 335.722656 354.367188 335.722656 353.125 C 335.722656 351.742188 335.976563 350.734375 336.488281 350.105469 C 336.933594 349.5625 337.535156 349.289063 338.292969 349.285156 C 338.851563 349.289063 339.3125 349.449219 339.675781 349.761719 C 340.03125 350.082031 340.246094 350.515625 340.324219 351.066406 Z M 336.734375 354.152344 C 336.730469 354.457031 336.792969 354.75 336.925781 355.023438 C 337.050781 355.304688 337.230469 355.515625 337.464844 355.65625 C 337.691406 355.804688 337.9375 355.875 338.195313 355.871094 C 338.5625 355.875 338.878906 355.726563 339.148438 355.421875 C 339.414063 355.125 339.546875 354.71875 339.550781 354.203125 C 339.546875 353.710938 339.417969 353.320313 339.15625 353.035156 C 338.890625 352.75 338.558594 352.605469 338.160156 352.605469 C 337.761719 352.605469 337.421875 352.75 337.148438 353.035156 C 336.867188 353.320313 336.730469 353.691406 336.734375 354.152344 Z M 336.734375 354.152344 "/>
<path style=" stroke:none;fill-rule:nonzero;fill:rgb(0%,0%,0%);fill-opacity:1;" d="M 330.328125 265.535156 L 330.328125 263.820313 L 327.222656 263.820313 L 327.222656 263.015625 L 330.492188 258.378906 L 331.207031 258.378906 L 331.207031 263.015625 L 332.175781 263.015625 L 332.175781 263.820313 L 331.207031 263.820313 L 331.207031 265.535156 Z M 330.328125 263.015625 L 330.328125 259.789063 L 328.089844 263.015625 Z M 330.328125 263.015625 "/>
<path style=" stroke:none;fill-rule:nonzero;fill:rgb(0%,0%,0%);fill-opacity:1;" d="M 481.429688 147.90625 L 481.429688 147.058594 L 486.0625 147.058594 L 486.0625 147.742188 C 485.601563 148.234375 485.152344 148.878906 484.707031 149.679688 C 484.261719 150.484375 483.914063 151.308594 483.671875 152.15625 C 483.492188 152.757813 483.382813 153.414063 483.335938 154.125 L 482.429688 154.125 C 482.4375 153.5625 482.550781 152.882813 482.761719 152.085938 C 482.972656 151.289063 483.273438 150.519531 483.671875 149.777344 C 484.0625 149.039063 484.484375 148.417969 484.9375 147.90625 Z M 481.429688 147.90625 "/>
<path style=" stroke:none;fill-rule:nonzero;fill:rgb(0%,0%,0%);fill-opacity:1;" d="M 428.808594 213.261719 L 429.6875 213.144531 C 429.785156 213.648438 429.957031 214.007813 430.203125 214.222656 C 430.441406 214.445313 430.738281 214.554688 431.089844 214.550781 C 431.5 214.554688 431.847656 214.410156 432.136719 214.121094 C 432.417969 213.835938 432.5625 213.484375 432.566406 213.058594 C 432.5625 212.660156 432.429688 212.328125 432.167969 212.0625 C 431.902344 211.804688 431.566406 211.671875 431.164063 211.667969 C 430.992188 211.671875 430.785156 211.703125 430.542969 211.765625 L 430.640625 210.992188 C 430.699219 211 430.746094 211.003906 430.78125 211.003906 C 431.15625 211.003906 431.492188 210.90625 431.792969 210.710938 C 432.089844 210.515625 432.238281 210.214844 432.242188 209.804688 C 432.238281 209.488281 432.128906 209.222656 431.914063 209.007813 C 431.695313 208.796875 431.414063 208.691406 431.070313 208.6875 C 430.726563 208.691406 430.441406 208.796875 430.214844 209.011719 C 429.984375 209.226563 429.839844 209.550781 429.777344 209.976563 L 428.898438 209.820313 C 429.003906 209.234375 429.246094 208.78125 429.628906 208.453125 C 430.007813 208.132813 430.484375 207.96875 431.050781 207.964844 C 431.441406 207.96875 431.800781 208.054688 432.128906 208.21875 C 432.457031 208.390625 432.707031 208.617188 432.882813 208.902344 C 433.054688 209.195313 433.140625 209.503906 433.144531 209.824219 C 433.140625 210.136719 433.058594 210.417969 432.894531 210.671875 C 432.726563 210.925781 432.480469 211.128906 432.160156 211.277344 C 432.578125 211.378906 432.90625 211.578125 433.144531 211.882813 C 433.375 212.191406 433.492188 212.578125 433.496094 213.039063 C 433.492188 213.667969 433.265625 214.199219 432.8125 214.628906 C 432.355469 215.0625 431.78125 215.273438 431.085938 215.277344 C 430.457031 215.273438 429.933594 215.089844 429.519531 214.71875 C 429.101563 214.34375 428.863281 213.859375 428.808594 213.261719 Z M 428.808594 213.261719 "/>
<path style=" stroke:none;fill-rule:nonzero;fill:rgb(0%,0%,0%);fill-opacity:1;" d="M 347.480469 98.761719 L 347.480469 99.605469 L 342.746094 99.605469 C 342.738281 99.394531 342.773438 99.191406 342.851563 98.996094 C 342.96875 98.675781 343.164063 98.359375 343.429688 98.042969 C 343.695313 97.734375 344.078125 97.375 344.578125 96.960938 C 345.355469 96.328125 345.878906 95.820313 346.15625 95.445313 C 346.425781 95.070313 346.5625 94.71875 346.566406 94.386719 C 346.5625 94.039063 346.4375 93.746094 346.191406 93.503906 C 345.941406 93.269531 345.617188 93.148438 345.21875 93.144531 C 344.789063 93.148438 344.449219 93.277344 344.199219 93.527344 C 343.941406 93.785156 343.816406 94.136719 343.816406 94.582031 L 342.914063 94.488281 C 342.976563 93.816406 343.207031 93.300781 343.613281 92.949219 C 344.011719 92.597656 344.554688 92.421875 345.238281 92.417969 C 345.921875 92.421875 346.464844 92.613281 346.867188 92.992188 C 347.265625 93.375 347.464844 93.847656 347.46875 94.40625 C 347.464844 94.695313 347.40625 94.976563 347.292969 95.25 C 347.171875 95.53125 346.976563 95.820313 346.707031 96.125 C 346.433594 96.429688 345.984375 96.851563 345.355469 97.382813 C 344.824219 97.828125 344.484375 98.128906 344.335938 98.285156 C 344.183594 98.449219 344.0625 98.605469 343.96875 98.761719 Z M 347.480469 98.761719 "/>
<path style=" stroke:none;fill-rule:nonzero;fill:rgb(0%,0%,0%);fill-opacity:1;" d="M 333.585938 83.523438 L 341.636719 83.523438 L 341.636719 85.527344 L 338.902344 85.527344 L 338.902344 93.375 L 341.636719 93.375 L 341.636719 95.378906 L 333.585938 95.378906 L 333.585938 93.375 L 336.320313 93.375 L 336.320313 85.527344 L 333.585938 85.527344 Z M 333.585938 83.523438 "/>
<path style=" stroke:none;fill-rule:nonzero;fill:rgb(0%,0%,0%);fill-opacity:1;" d="M 471.785156 137.320313 L 479.835938 137.320313 L 479.835938 139.324219 L 477.101563 139.324219 L 477.101563 147.171875 L 479.835938 147.171875 L 479.835938 149.175781 L 471.785156 149.175781 L 471.785156 147.171875 L 474.519531 147.171875 L 474.519531 139.324219 L 471.785156 139.324219 Z M 471.785156 137.320313 "/>
<path style=" stroke:none;fill-rule:nonzero;fill:rgb(0%,0%,0%);fill-opacity:1;" d="M 420.316406 199.585938 L 428.367188 199.585938 L 428.367188 201.589844 L 425.632813 201.589844 L 425.632813 209.4375 L 428.367188 209.4375 L 428.367188 211.441406 L 420.316406 211.441406 L 420.316406 209.4375 L 423.050781 209.4375 L 423.050781 201.589844 L 420.316406 201.589844 Z M 420.316406 199.585938 "/>
<path style=" stroke:none;fill-rule:nonzero;fill:rgb(0%,0%,0%);fill-opacity:1;" d="M 270.230469 203.90625 L 278.28125 203.90625 L 278.28125 205.910156 L 275.546875 205.910156 L 275.546875 213.757813 L 278.28125 213.757813 L 278.28125 215.761719 L 270.230469 215.761719 L 270.230469 213.757813 L 272.964844 213.757813 L 272.964844 205.910156 L 270.230469 205.910156 Z M 270.230469 203.90625 "/>
<path style=" stroke:none;fill-rule:nonzero;fill:rgb(0%,0%,0%);fill-opacity:1;" d="M 319.675781 247.503906 L 327.726563 247.503906 L 327.726563 249.507813 L 324.992188 249.507813 L 324.992188 257.355469 L 327.726563 257.355469 L 327.726563 259.359375 L 319.675781 259.359375 L 319.675781 257.355469 L 322.410156 257.355469 L 322.410156 249.507813 L 319.675781 249.507813 Z M 319.675781 247.503906 "/>
<path style=" stroke:none;fill-rule:nonzero;fill:rgb(0%,0%,0%);fill-opacity:1;" d="M 327.078125 339.683594 L 335.128906 339.683594 L 335.128906 341.6875 L 332.394531 341.6875 L 332.394531 349.535156 L 335.128906 349.535156 L 335.128906 351.539063 L 327.078125 351.539063 L 327.078125 349.535156 L 329.8125 349.535156 L 329.8125 341.6875 L 327.078125 341.6875 Z M 327.078125 339.683594 "/>
<path style=" stroke:none;fill-rule:nonzero;fill:rgb(0%,0%,0%);fill-opacity:1;" d="M 424.933594 341.085938 L 432.984375 341.085938 L 432.984375 343.089844 L 430.25 343.089844 L 430.25 350.9375 L 432.984375 350.9375 L 432.984375 352.941406 L 424.933594 352.941406 L 424.933594 350.9375 L 427.667969 350.9375 L 427.667969 343.089844 L 424.933594 343.089844 Z M 424.933594 341.085938 "/>
<path style=" stroke:none;fill-rule:nonzero;fill:rgb(0%,0%,0%);fill-opacity:1;" d="M 466.585938 115.734375 L 467.464844 115.617188 C 467.5625 116.121094 467.734375 116.480469 467.980469 116.695313 C 468.21875 116.917969 468.515625 117.027344 468.867188 117.023438 C 469.277344 117.027344 469.625 116.882813 469.914063 116.59375 C 470.195313 116.308594 470.339844 115.957031 470.34375 115.53125 C 470.339844 115.132813 470.207031 114.800781 469.945313 114.535156 C 469.679688 114.277344 469.34375 114.144531 468.941406 114.140625 C 468.769531 114.144531 468.5625 114.175781 468.320313 114.238281 L 468.417969 113.464844 C 468.476563 113.472656 468.523438 113.476563 468.558594 113.476563 C 468.933594 113.476563 469.269531 113.378906 469.570313 113.183594 C 469.867188 112.988281 470.015625 112.6875 470.019531 112.277344 C 470.015625 111.960938 469.90625 111.695313 469.691406 111.480469 C 469.472656 111.269531 469.191406 111.164063 468.847656 111.160156 C 468.503906 111.164063 468.21875 111.269531 467.992188 111.484375 C 467.761719 111.699219 467.617188 112.023438 467.554688 112.449219 L 466.675781 112.292969 C 466.78125 111.707031 467.023438 111.253906 467.40625 110.925781 C 467.785156 110.605469 468.261719 110.441406 468.828125 110.4375 C 469.21875 110.441406 469.578125 110.527344 469.90625 110.691406 C 470.234375 110.863281 470.484375 111.089844 470.660156 111.375 C 470.832031 111.667969 470.917969 111.976563 470.921875 112.296875 C 470.917969 112.609375 470.835938 112.890625 470.671875 113.144531 C 470.503906 113.398438 470.257813 113.601563 469.9375 113.75 C 470.355469 113.851563 470.683594 114.050781 470.921875 114.355469 C 471.152344 114.664063 471.269531 115.050781 471.273438 115.511719 C 471.269531 116.140625 471.042969 116.671875 470.589844 117.101563 C 470.132813 117.535156 469.558594 117.746094 468.863281 117.75 C 468.234375 117.746094 467.710938 117.5625 467.296875 117.191406 C 466.878906 116.816406 466.640625 116.332031 466.585938 115.734375 Z M 466.585938 115.734375 "/>
<path style=" stroke:none;fill-rule:nonzero;fill:rgb(0%,0%,0%);fill-opacity:1;" d="M 321.238281 228.035156 L 320.359375 228.035156 L 320.359375 222.433594 C 320.144531 222.636719 319.863281 222.839844 319.523438 223.042969 C 319.179688 223.246094 318.875 223.398438 318.601563 223.496094 L 318.601563 222.644531 C 319.089844 222.414063 319.515625 222.136719 319.886719 221.804688 C 320.253906 221.480469 320.515625 221.160156 320.671875 220.847656 L 321.238281 220.847656 Z M 321.238281 228.035156 "/>
<path style=" stroke:none;fill-rule:nonzero;fill:rgb(0%,0%,0%);fill-opacity:1;" d="M 179.882813 226.816406 C 179.878906 225.972656 179.964844 225.292969 180.144531 224.773438 C 180.316406 224.261719 180.578125 223.863281 180.921875 223.582031 C 181.265625 223.304688 181.695313 223.164063 182.21875 223.160156 C 182.597656 223.164063 182.933594 223.242188 183.226563 223.394531 C 183.515625 223.550781 183.757813 223.773438 183.945313 224.0625 C 184.132813 224.355469 184.28125 224.710938 184.390625 225.128906 C 184.496094 225.546875 184.546875 226.109375 184.550781 226.816406 C 184.546875 227.660156 184.460938 228.339844 184.292969 228.851563 C 184.117188 229.371094 183.859375 229.769531 183.519531 230.046875 C 183.171875 230.328125 182.738281 230.464844 182.21875 230.46875 C 181.523438 230.464844 180.980469 230.21875 180.589844 229.726563 C 180.113281 229.132813 179.878906 228.164063 179.882813 226.816406 Z M 180.785156 226.816406 C 180.78125 227.996094 180.917969 228.777344 181.199219 229.164063 C 181.472656 229.554688 181.8125 229.75 182.21875 229.746094 C 182.617188 229.75 182.957031 229.554688 183.234375 229.160156 C 183.507813 228.773438 183.644531 227.992188 183.648438 226.816406 C 183.644531 225.640625 183.507813 224.859375 183.234375 224.46875 C 182.957031 224.085938 182.613281 223.890625 182.207031 223.886719 C 181.800781 223.890625 181.480469 224.0625 181.242188 224.402344 C 180.933594 224.839844 180.78125 225.644531 180.785156 226.816406 Z M 180.785156 226.816406 "/>
<path style=" stroke:none;fill-rule:nonzero;fill:rgb(0%,0%,0%);fill-opacity:1;" d="M 478.054688 236.996094 L 478.054688 237.839844 L 473.320313 237.839844 C 473.3125 237.628906 473.347656 237.425781 473.425781 237.230469 C 473.542969 236.910156 473.738281 236.59375 474.003906 236.277344 C 474.269531 235.96875 474.652344 235.609375 475.152344 235.195313 C 475.929688 234.5625 476.453125 234.054688 476.730469 233.679688 C 477 233.304688 477.136719 232.953125 477.140625 232.621094 C 477.136719 232.273438 477.011719 231.980469 476.765625 231.738281 C 476.515625 231.503906 476.191406 231.382813 475.792969 231.378906 C 475.363281 231.382813 475.023438 231.511719 474.773438 231.761719 C 474.515625 232.019531 474.390625 232.371094 474.390625 232.816406 L 473.488281 232.722656 C 473.550781 232.050781 473.78125 231.535156 474.1875 231.183594 C 474.585938 230.832031 475.128906 230.65625 475.8125 230.652344 C 476.496094 230.65625 477.039063 230.847656 477.441406 231.226563 C 477.839844 231.609375 478.039063 232.082031 478.042969 232.640625 C 478.039063 232.929688 477.980469 233.210938 477.867188 233.484375 C 477.746094 233.765625 477.550781 234.054688 477.28125 234.359375 C 477.007813 234.664063 476.558594 235.085938 475.929688 235.617188 C 475.398438 236.0625 475.058594 236.363281 474.910156 236.519531 C 474.757813 236.683594 474.636719 236.839844 474.542969 236.996094 Z M 478.054688 236.996094 "/>
<path style=" stroke:none;fill-rule:nonzero;fill:rgb(0%,0%,0%);fill-opacity:1;" d="M 469.980469 345.957031 L 469.980469 344.242188 L 466.875 344.242188 L 466.875 343.4375 L 470.144531 338.800781 L 470.859375 338.800781 L 470.859375 343.4375 L 471.828125 343.4375 L 471.828125 344.242188 L 470.859375 344.242188 L 470.859375 345.957031 Z M 469.980469 343.4375 L 469.980469 340.210938 L 467.742188 343.4375 Z M 469.980469 343.4375 "/>
<path style=" stroke:none;fill-rule:nonzero;fill:rgb(0%,0%,0%);fill-opacity:1;" d="M 175.253906 225.9375 L 171.671875 215.914063 L 173.867188 215.914063 L 176.402344 223.332031 L 178.859375 215.914063 L 181.003906 215.914063 L 177.414063 225.9375 Z M 175.253906 225.9375 "/>
<path style=" stroke:none;fill-rule:nonzero;fill:rgb(0%,0%,0%);fill-opacity:1;" d="M 313.625 223.933594 L 310.042969 213.910156 L 312.238281 213.910156 L 314.773438 221.328125 L 317.230469 213.910156 L 319.375 213.910156 L 315.785156 223.933594 Z M 313.625 223.933594 "/>
<path style=" stroke:none;fill-rule:nonzero;fill:rgb(0%,0%,0%);fill-opacity:1;" d="M 461.730469 112.359375 L 458.148438 102.335938 L 460.34375 102.335938 L 462.878906 109.753906 L 465.335938 102.335938 L 467.480469 102.335938 L 463.890625 112.359375 Z M 461.730469 112.359375 "/>
<path style=" stroke:none;fill-rule:nonzero;fill:rgb(0%,0%,0%);fill-opacity:1;" d="M 467.851563 233.292969 L 464.269531 223.269531 L 466.464844 223.269531 L 469 230.6875 L 471.457031 223.269531 L 473.601563 223.269531 L 470.011719 233.292969 Z M 467.851563 233.292969 "/>
<path style=" stroke:none;fill-rule:nonzero;fill:rgb(0%,0%,0%);fill-opacity:1;" d="M 463.171875 340.546875 L 459.589844 330.523438 L 461.785156 330.523438 L 464.320313 337.941406 L 466.777344 330.523438 L 468.921875 330.523438 L 465.332031 340.546875 Z M 463.171875 340.546875 "/>
<path style="fill:none;stroke-width:0.264583;stroke-linecap:butt;stroke-linejoin:miter;stroke:rgb(0%,0%,0%);stroke-opacity:1;stroke-miterlimit:4;" d="M 87.326416 121.955175 L 87.312493 124.546887 L 83.610899 124.527992 " transform="matrix(3.927784,0,0,3.927784,-166.358676,-125.607334)"/>
<path style="fill:none;stroke-width:0.264583;stroke-linecap:butt;stroke-linejoin:miter;stroke:rgb(0%,0%,0%);stroke-opacity:1;stroke-miterlimit:4;" d="M 87.312493 124.548876 L 91.129451 124.5628 " transform="matrix(3.927784,0,0,3.927784,-166.358676,-125.607334)"/>
<path style="fill:none;stroke-width:0.264583;stroke-linecap:butt;stroke-linejoin:miter;stroke:rgb(0%,0%,0%);stroke-opacity:1;stroke-miterlimit:4;" d="M 84.554696 125.761193 L 90.210517 125.773127 " transform="matrix(3.927784,0,0,3.927784,-166.358676,-125.607334)"/>
<path style="fill:none;stroke-width:0.264583;stroke-linecap:butt;stroke-linejoin:miter;stroke:rgb(0%,0%,0%);stroke-opacity:1;stroke-miterlimit:4;" d="M 85.761046 126.917817 C 87.076792 126.917817 88.041474 126.916823 89.044943 126.916823 " transform="matrix(3.927784,0,0,3.927784,-166.358676,-125.607334)"/>
<path style=" stroke:none;fill-rule:nonzero;fill:rgb(0%,0%,0%);fill-opacity:1;" d="M 86.242188 291.4375 L 86.242188 292.621094 L 79.617188 292.621094 C 79.609375 292.324219 79.65625 292.039063 79.761719 291.765625 C 79.929688 291.316406 80.199219 290.875 80.570313 290.433594 C 80.941406 290 81.480469 289.492188 82.183594 288.917969 C 83.269531 288.023438 84.003906 287.316406 84.390625 286.792969 C 84.769531 286.273438 84.960938 285.78125 84.964844 285.3125 C 84.960938 284.828125 84.785156 284.417969 84.441406 284.082031 C 84.089844 283.75 83.636719 283.582031 83.078125 283.578125 C 82.480469 283.582031 82.007813 283.757813 81.65625 284.113281 C 81.300781 284.46875 81.121094 284.960938 81.117188 285.585938 L 79.851563 285.457031 C 79.9375 284.515625 80.261719 283.796875 80.828125 283.300781 C 81.390625 282.808594 82.148438 282.5625 83.105469 282.558594 C 84.0625 282.5625 84.824219 282.828125 85.386719 283.359375 C 85.945313 283.894531 86.226563 284.554688 86.230469 285.339844 C 86.226563 285.742188 86.144531 286.136719 85.984375 286.523438 C 85.816406 286.914063 85.542969 287.324219 85.164063 287.75 C 84.78125 288.179688 84.148438 288.765625 83.269531 289.511719 C 82.527344 290.132813 82.054688 290.554688 81.847656 290.773438 C 81.632813 291 81.460938 291.21875 81.328125 291.4375 Z M 86.242188 291.4375 "/>
<path style=" stroke:none;fill-rule:nonzero;fill:rgb(0%,0%,0%);fill-opacity:1;" d="M 87.5625 287.679688 C 87.558594 286.5 87.679688 285.546875 87.925781 284.820313 C 88.167969 284.101563 88.53125 283.542969 89.011719 283.148438 C 89.492188 282.757813 90.097656 282.5625 90.828125 282.558594 C 91.363281 282.5625 91.835938 282.667969 92.242188 282.882813 C 92.648438 283.101563 92.980469 283.414063 93.246094 283.820313 C 93.507813 284.230469 93.71875 284.730469 93.871094 285.3125 C 94.019531 285.898438 94.09375 286.6875 94.097656 287.679688 C 94.09375 288.859375 93.972656 289.808594 93.734375 290.527344 C 93.488281 291.253906 93.125 291.8125 92.648438 292.203125 C 92.164063 292.597656 91.558594 292.789063 90.828125 292.792969 C 89.859375 292.789063 89.101563 292.445313 88.550781 291.753906 C 87.890625 290.921875 87.558594 289.566406 87.5625 287.679688 Z M 88.824219 287.679688 C 88.820313 289.328125 89.011719 290.421875 89.402344 290.964844 C 89.785156 291.511719 90.261719 291.785156 90.828125 291.78125 C 91.390625 291.785156 91.867188 291.511719 92.253906 290.960938 C 92.636719 290.417969 92.828125 289.324219 92.832031 287.679688 C 92.828125 286.03125 92.636719 284.933594 92.253906 284.390625 C 91.867188 283.851563 91.386719 283.582031 90.816406 283.578125 C 90.25 283.582031 89.796875 283.820313 89.460938 284.292969 C 89.03125 284.910156 88.820313 286.039063 88.824219 287.679688 Z M 88.824219 287.679688 "/>
<path style="fill:none;stroke-width:0.75;stroke-linecap:butt;stroke-linejoin:miter;stroke:rgb(0%,0%,0%);stroke-opacity:1;stroke-miterlimit:4;" d="M 105.660156 282.898438 L 98.660156 292.441406 L 105.914063 292.441406 " transform="matrix(1,0,0,1,0,-0.000000000000113686)"/>
<path style=" stroke:none;fill-rule:nonzero;fill:rgb(0%,0%,0%);fill-opacity:1;" d="M 108.761719 289.613281 L 108.761719 288.375 L 112.542969 288.375 L 112.542969 289.613281 Z M 108.761719 289.613281 "/>
<path style=" stroke:none;fill-rule:nonzero;fill:rgb(0%,0%,0%);fill-opacity:1;" d="M 118.191406 292.621094 L 116.960938 292.621094 L 116.960938 284.78125 C 116.664063 285.0625 116.273438 285.347656 115.792969 285.628906 C 115.3125 285.914063 114.882813 286.125 114.5 286.261719 L 114.5 285.074219 C 115.1875 284.753906 115.789063 284.363281 116.304688 283.898438 C 116.820313 283.441406 117.183594 282.996094 117.398438 282.558594 L 118.191406 282.558594 Z M 118.191406 292.621094 "/>
<path style=" stroke:none;fill-rule:nonzero;fill:rgb(0%,0%,0%);fill-opacity:1;" d="M 121.347656 289.996094 L 122.640625 289.886719 C 122.734375 290.519531 122.953125 290.992188 123.304688 291.308594 C 123.648438 291.625 124.070313 291.785156 124.566406 291.78125 C 125.15625 291.785156 125.65625 291.5625 126.070313 291.113281 C 126.476563 290.667969 126.683594 290.074219 126.6875 289.332031 C 126.683594 288.636719 126.484375 288.082031 126.09375 287.671875 C 125.695313 287.269531 125.179688 287.066406 124.546875 287.0625 C 124.148438 287.066406 123.792969 287.15625 123.472656 287.335938 C 123.152344 287.515625 122.898438 287.75 122.71875 288.035156 L 121.566406 287.882813 L 122.535156 282.738281 L 127.519531 282.738281 L 127.519531 283.910156 L 123.519531 283.910156 L 122.980469 286.605469 C 123.582031 286.1875 124.210938 285.976563 124.875 285.976563 C 125.746094 285.976563 126.484375 286.28125 127.089844 286.886719 C 127.6875 287.492188 127.988281 288.269531 127.992188 289.222656 C 127.988281 290.128906 127.726563 290.914063 127.199219 291.574219 C 126.554688 292.386719 125.675781 292.789063 124.566406 292.792969 C 123.652344 292.789063 122.90625 292.539063 122.332031 292.027344 C 121.753906 291.519531 121.425781 290.839844 121.347656 289.996094 Z M 121.347656 289.996094 "/>
<path style=" stroke:none;fill-rule:nonzero;fill:rgb(0%,0%,0%);fill-opacity:1;" d="M 129.425781 284.324219 C 129.421875 283.800781 129.609375 283.355469 129.980469 282.984375 C 130.351563 282.617188 130.796875 282.433594 131.320313 282.429688 C 131.847656 282.433594 132.296875 282.617188 132.664063 282.984375 C 133.03125 283.355469 133.214844 283.800781 133.21875 284.324219 C 133.214844 284.847656 133.027344 285.296875 132.660156 285.667969 C 132.285156 286.039063 131.839844 286.222656 131.320313 286.222656 C 130.796875 286.222656 130.351563 286.039063 129.980469 285.667969 C 129.609375 285.300781 129.421875 284.851563 129.425781 284.324219 Z M 130.171875 284.324219 C 130.167969 284.644531 130.28125 284.917969 130.507813 285.140625 C 130.734375 285.367188 131.003906 285.480469 131.324219 285.476563 C 131.636719 285.480469 131.90625 285.367188 132.132813 285.140625 C 132.355469 284.917969 132.46875 284.644531 132.472656 284.324219 C 132.46875 284.003906 132.355469 283.734375 132.132813 283.507813 C 131.90625 283.285156 131.636719 283.171875 131.324219 283.167969 C 131.003906 283.171875 130.734375 283.285156 130.507813 283.507813 C 130.28125 283.734375 130.167969 284.003906 130.171875 284.324219 Z M 130.171875 284.324219 "/>
<path style=" stroke:none;fill-rule:nonzero;fill:rgb(0%,0%,0%);fill-opacity:1;" d="M 138.09375 292.621094 L 134.210938 282.597656 L 135.644531 282.597656 L 138.25 289.878906 C 138.457031 290.464844 138.632813 291.011719 138.777344 291.519531 C 138.929688 290.972656 139.109375 290.425781 139.316406 289.878906 L 142.023438 282.597656 L 143.375 282.597656 L 139.453125 292.621094 Z M 138.09375 292.621094 "/>
<path style=" stroke:none;fill-rule:nonzero;fill:rgb(0%,0%,0%);fill-opacity:1;" d="M 339.53125 283.925781 L 339.53125 282.144531 L 341.449219 282.144531 L 341.449219 283.925781 Z M 341.449219 284.910156 L 341.449219 291.941406 C 341.449219 292.867188 341.386719 293.519531 341.269531 293.902344 C 341.144531 294.28125 340.914063 294.578125 340.574219 294.792969 C 340.226563 295.003906 339.789063 295.109375 339.257813 295.113281 C 339.0625 295.109375 338.855469 295.09375 338.636719 295.0625 C 338.417969 295.027344 338.183594 294.976563 337.925781 294.910156 L 338.257813 293.269531 C 338.351563 293.285156 338.4375 293.296875 338.515625 293.3125 C 338.597656 293.320313 338.667969 293.328125 338.738281 293.332031 C 338.929688 293.328125 339.089844 293.285156 339.21875 293.203125 C 339.339844 293.117188 339.425781 293.015625 339.46875 292.898438 C 339.507813 292.777344 339.527344 292.425781 339.53125 291.832031 L 339.53125 284.910156 Z M 341.449219 284.910156 "/>
<path style=" stroke:none;fill-rule:nonzero;fill:rgb(0%,0%,0%);fill-opacity:1;" d="M 347.671875 292.339844 L 346.441406 292.339844 L 346.441406 284.5 C 346.144531 284.78125 345.753906 285.066406 345.273438 285.347656 C 344.792969 285.632813 344.363281 285.84375 343.980469 285.980469 L 343.980469 284.792969 C 344.667969 284.472656 345.269531 284.082031 345.785156 283.617188 C 346.300781 283.160156 346.664063 282.714844 346.878906 282.277344 L 347.671875 282.277344 Z M 347.671875 292.339844 "/>
<path style=" stroke:none;fill-rule:nonzero;fill:rgb(0%,0%,0%);fill-opacity:1;" d="M 357.289063 291.15625 L 357.289063 292.339844 L 350.664063 292.339844 C 350.65625 292.042969 350.703125 291.757813 350.808594 291.484375 C 350.976563 291.035156 351.246094 290.59375 351.617188 290.152344 C 351.988281 289.71875 352.527344 289.210938 353.230469 288.636719 C 354.316406 287.742188 355.050781 287.035156 355.4375 286.511719 C 355.816406 285.992188 356.007813 285.5 356.011719 285.03125 C 356.007813 284.546875 355.832031 284.136719 355.488281 283.800781 C 355.136719 283.46875 354.683594 283.300781 354.125 283.296875 C 353.527344 283.300781 353.054688 283.476563 352.703125 283.832031 C 352.347656 284.1875 352.167969 284.679688 352.164063 285.304688 L 350.898438 285.175781 C 350.984375 284.234375 351.308594 283.515625 351.875 283.019531 C 352.4375 282.527344 353.195313 282.28125 354.152344 282.277344 C 355.109375 282.28125 355.871094 282.546875 356.433594 283.078125 C 356.992188 283.613281 357.273438 284.273438 357.277344 285.058594 C 357.273438 285.460938 357.191406 285.855469 357.03125 286.242188 C 356.863281 286.632813 356.589844 287.042969 356.210938 287.46875 C 355.828125 287.898438 355.195313 288.484375 354.316406 289.230469 C 353.574219 289.851563 353.101563 290.273438 352.894531 290.492188 C 352.679688 290.71875 352.507813 290.9375 352.375 291.15625 Z M 357.289063 291.15625 "/>
<path style=" stroke:none;fill-rule:nonzero;fill:rgb(0%,0%,0%);fill-opacity:1;" d="M 358.613281 289.542969 L 359.90625 289.433594 C 360 290.066406 360.21875 290.539063 360.570313 290.855469 C 360.914063 291.171875 361.335938 291.332031 361.832031 291.328125 C 362.421875 291.332031 362.921875 291.109375 363.335938 290.660156 C 363.742188 290.214844 363.949219 289.621094 363.953125 288.878906 C 363.949219 288.183594 363.75 287.628906 363.359375 287.21875 C 362.960938 286.816406 362.445313 286.613281 361.8125 286.609375 C 361.414063 286.613281 361.058594 286.703125 360.738281 286.882813 C 360.417969 287.0625 360.164063 287.296875 359.984375 287.582031 L 358.832031 287.429688 L 359.800781 282.285156 L 364.785156 282.285156 L 364.785156 283.457031 L 360.785156 283.457031 L 360.246094 286.152344 C 360.847656 285.734375 361.476563 285.523438 362.140625 285.523438 C 363.011719 285.523438 363.75 285.828125 364.355469 286.433594 C 364.953125 287.039063 365.253906 287.816406 365.257813 288.769531 C 365.253906 289.675781 364.992188 290.460938 364.464844 291.121094 C 363.820313 291.933594 362.941406 292.335938 361.832031 292.339844 C 360.917969 292.335938 360.171875 292.085938 359.597656 291.574219 C 359.019531 291.066406 358.691406 290.386719 358.613281 289.542969 Z M 358.613281 289.542969 "/>
<path style=" stroke:none;fill-rule:nonzero;fill:rgb(0%,0%,0%);fill-opacity:1;" d="M 364.628906 81.785156 L 364.628906 80.546875 L 368.410156 80.546875 L 368.410156 81.785156 Z M 364.628906 81.785156 "/>
<path style=" stroke:none;fill-rule:nonzero;fill:rgb(0%,0%,0%);fill-opacity:1;" d="M 369.808594 76.550781 L 369.808594 74.769531 L 371.726563 74.769531 L 371.726563 76.550781 Z M 371.726563 77.535156 L 371.726563 84.566406 C 371.726563 85.492188 371.664063 86.144531 371.546875 86.527344 C 371.421875 86.90625 371.191406 87.203125 370.851563 87.417969 C 370.503906 87.628906 370.066406 87.734375 369.535156 87.738281 C 369.339844 87.734375 369.132813 87.71875 368.914063 87.6875 C 368.695313 87.652344 368.460938 87.601563 368.203125 87.535156 L 368.535156 85.894531 C 368.628906 85.910156 368.714844 85.921875 368.792969 85.9375 C 368.875 85.945313 368.945313 85.953125 369.015625 85.957031 C 369.207031 85.953125 369.367188 85.910156 369.496094 85.828125 C 369.617188 85.742188 369.703125 85.640625 369.746094 85.523438 C 369.785156 85.402344 369.804688 85.050781 369.808594 84.457031 L 369.808594 77.535156 Z M 371.726563 77.535156 "/>
<path style=" stroke:none;fill-rule:nonzero;fill:rgb(0%,0%,0%);fill-opacity:1;" d="M 379.78125 84.101563 L 379.78125 85.285156 L 373.15625 85.285156 C 373.148438 84.988281 373.195313 84.703125 373.300781 84.429688 C 373.46875 83.980469 373.738281 83.539063 374.109375 83.097656 C 374.480469 82.664063 375.019531 82.15625 375.722656 81.582031 C 376.808594 80.6875 377.542969 79.980469 377.929688 79.457031 C 378.308594 78.9375 378.5 78.445313 378.503906 77.976563 C 378.5 77.492188 378.324219 77.082031 377.980469 76.746094 C 377.628906 76.414063 377.175781 76.246094 376.617188 76.242188 C 376.019531 76.246094 375.546875 76.421875 375.195313 76.777344 C 374.839844 77.132813 374.660156 77.625 374.65625 78.25 L 373.390625 78.121094 C 373.476563 77.179688 373.800781 76.460938 374.367188 75.964844 C 374.929688 75.472656 375.6875 75.226563 376.644531 75.222656 C 377.601563 75.226563 378.363281 75.492188 378.925781 76.023438 C 379.484375 76.558594 379.765625 77.21875 379.769531 78.003906 C 379.765625 78.40625 379.683594 78.800781 379.523438 79.1875 C 379.355469 79.578125 379.082031 79.988281 378.703125 80.414063 C 378.320313 80.84375 377.6875 81.429688 376.808594 82.175781 C 376.066406 82.796875 375.59375 83.21875 375.386719 83.4375 C 375.171875 83.664063 375 83.882813 374.867188 84.101563 Z M 379.78125 84.101563 "/>
<path style=" stroke:none;fill-rule:nonzero;fill:rgb(0%,0%,0%);fill-opacity:1;" d="M 381.101563 82.488281 L 382.394531 82.378906 C 382.488281 83.011719 382.707031 83.484375 383.058594 83.800781 C 383.402344 84.117188 383.824219 84.277344 384.320313 84.273438 C 384.910156 84.277344 385.410156 84.054688 385.824219 83.605469 C 386.230469 83.160156 386.4375 82.566406 386.441406 81.824219 C 386.4375 81.128906 386.238281 80.574219 385.847656 80.164063 C 385.449219 79.761719 384.933594 79.558594 384.300781 79.554688 C 383.902344 79.558594 383.546875 79.648438 383.226563 79.828125 C 382.90625 80.007813 382.652344 80.242188 382.472656 80.527344 L 381.320313 80.375 L 382.289063 75.230469 L 387.273438 75.230469 L 387.273438 76.402344 L 383.273438 76.402344 L 382.734375 79.097656 C 383.335938 78.679688 383.964844 78.46875 384.628906 78.46875 C 385.5 78.46875 386.238281 78.773438 386.84375 79.378906 C 387.441406 79.984375 387.742188 80.761719 387.746094 81.714844 C 387.742188 82.621094 387.480469 83.40625 386.953125 84.066406 C 386.308594 84.878906 385.429688 85.28125 384.320313 85.285156 C 383.40625 85.28125 382.660156 85.03125 382.085938 84.519531 C 381.507813 84.011719 381.179688 83.332031 381.101563 82.488281 Z M 381.101563 82.488281 "/>
<path style=" stroke:none;fill-rule:nonzero;fill:rgb(0%,0%,0%);fill-opacity:1;" d="M 388.890625 80.171875 C 388.886719 78.992188 389.007813 78.039063 389.253906 77.3125 C 389.496094 76.59375 389.859375 76.035156 390.339844 75.640625 C 390.820313 75.25 391.425781 75.054688 392.15625 75.050781 C 392.691406 75.054688 393.164063 75.160156 393.570313 75.375 C 393.976563 75.59375 394.308594 75.90625 394.574219 76.3125 C 394.835938 76.722656 395.046875 77.222656 395.199219 77.804688 C 395.347656 78.390625 395.421875 79.179688 395.425781 80.171875 C 395.421875 81.351563 395.300781 82.300781 395.0625 83.019531 C 394.816406 83.746094 394.453125 84.304688 393.976563 84.695313 C 393.492188 85.089844 392.886719 85.28125 392.15625 85.285156 C 391.1875 85.28125 390.429688 84.9375 389.878906 84.246094 C 389.21875 83.414063 388.886719 82.058594 388.890625 80.171875 Z M 390.152344 80.171875 C 390.148438 81.820313 390.339844 82.914063 390.730469 83.457031 C 391.113281 84.003906 391.589844 84.277344 392.15625 84.273438 C 392.71875 84.277344 393.195313 84.003906 393.582031 83.453125 C 393.964844 82.910156 394.15625 81.816406 394.160156 80.171875 C 394.15625 78.523438 393.964844 77.425781 393.582031 76.882813 C 393.195313 76.34375 392.714844 76.074219 392.144531 76.070313 C 391.578125 76.074219 391.125 76.3125 390.789063 76.785156 C 390.359375 77.402344 390.148438 78.53125 390.152344 80.171875 Z M 390.152344 80.171875 "/>
<path style=" stroke:none;fill-rule:nonzero;fill:rgb(0%,0%,0%);fill-opacity:1;" d="M 473.320313 286.46875 L 473.320313 284.6875 L 475.238281 284.6875 L 475.238281 286.46875 Z M 475.238281 287.453125 L 475.238281 294.484375 C 475.238281 295.410156 475.175781 296.0625 475.058594 296.445313 C 474.933594 296.824219 474.703125 297.121094 474.363281 297.335938 C 474.015625 297.546875 473.578125 297.652344 473.046875 297.65625 C 472.851563 297.652344 472.644531 297.636719 472.425781 297.605469 C 472.207031 297.570313 471.972656 297.519531 471.714844 297.453125 L 472.046875 295.8125 C 472.140625 295.828125 472.226563 295.839844 472.304688 295.855469 C 472.386719 295.863281 472.457031 295.871094 472.527344 295.875 C 472.71875 295.871094 472.878906 295.828125 473.007813 295.746094 C 473.128906 295.660156 473.214844 295.558594 473.257813 295.441406 C 473.296875 295.320313 473.316406 294.96875 473.320313 294.375 L 473.320313 287.453125 Z M 475.238281 287.453125 "/>
<path style=" stroke:none;fill-rule:nonzero;fill:rgb(0%,0%,0%);fill-opacity:1;" d="M 483.289063 293.699219 L 483.289063 294.882813 L 476.664063 294.882813 C 476.65625 294.585938 476.703125 294.300781 476.808594 294.027344 C 476.976563 293.578125 477.246094 293.136719 477.617188 292.695313 C 477.988281 292.261719 478.527344 291.753906 479.230469 291.179688 C 480.316406 290.285156 481.050781 289.578125 481.4375 289.054688 C 481.816406 288.535156 482.007813 288.042969 482.011719 287.574219 C 482.007813 287.089844 481.832031 286.679688 481.488281 286.34375 C 481.136719 286.011719 480.683594 285.84375 480.125 285.839844 C 479.527344 285.84375 479.054688 286.019531 478.703125 286.375 C 478.347656 286.730469 478.167969 287.222656 478.164063 287.847656 L 476.898438 287.71875 C 476.984375 286.777344 477.308594 286.058594 477.875 285.5625 C 478.4375 285.070313 479.195313 284.824219 480.152344 284.820313 C 481.109375 284.824219 481.871094 285.089844 482.433594 285.621094 C 482.992188 286.15625 483.273438 286.816406 483.277344 287.601563 C 483.273438 288.003906 483.191406 288.398438 483.03125 288.785156 C 482.863281 289.175781 482.589844 289.585938 482.210938 290.011719 C 481.828125 290.441406 481.195313 291.027344 480.316406 291.773438 C 479.574219 292.394531 479.101563 292.816406 478.894531 293.035156 C 478.679688 293.261719 478.507813 293.480469 478.375 293.699219 Z M 483.289063 293.699219 "/>
<path style=" stroke:none;fill-rule:nonzero;fill:rgb(0%,0%,0%);fill-opacity:1;" d="M 484.613281 289.769531 C 484.609375 288.589844 484.730469 287.636719 484.976563 286.910156 C 485.21875 286.191406 485.582031 285.632813 486.0625 285.238281 C 486.542969 284.847656 487.148438 284.652344 487.878906 284.648438 C 488.414063 284.652344 488.886719 284.757813 489.292969 284.972656 C 489.699219 285.191406 490.03125 285.503906 490.296875 285.910156 C 490.558594 286.320313 490.769531 286.820313 490.921875 287.402344 C 491.070313 287.988281 491.144531 288.777344 491.148438 289.769531 C 491.144531 290.949219 491.023438 291.898438 490.785156 292.617188 C 490.539063 293.34375 490.175781 293.902344 489.699219 294.292969 C 489.214844 294.6875 488.609375 294.878906 487.878906 294.882813 C 486.910156 294.878906 486.152344 294.535156 485.601563 293.84375 C 484.941406 293.011719 484.609375 291.65625 484.613281 289.769531 Z M 485.875 289.769531 C 485.871094 291.417969 486.0625 292.511719 486.453125 293.054688 C 486.835938 293.601563 487.3125 293.875 487.878906 293.871094 C 488.441406 293.875 488.917969 293.601563 489.304688 293.050781 C 489.6875 292.507813 489.878906 291.414063 489.882813 289.769531 C 489.878906 288.121094 489.6875 287.023438 489.304688 286.480469 C 488.917969 285.941406 488.4375 285.671875 487.867188 285.667969 C 487.300781 285.671875 486.847656 285.910156 486.511719 286.382813 C 486.082031 287 485.871094 288.128906 485.875 289.769531 Z M 485.875 289.769531 "/>
<path style=" stroke:none;fill-rule:nonzero;fill:rgb(0%,0%,0%);fill-opacity:1;" d="M 367.667969 291.15625 L 369.855469 291.15625 C 368.46875 290 367.777344 288.589844 367.777344 286.917969 C 367.777344 286.015625 367.957031 285.203125 368.324219 284.480469 C 368.683594 283.761719 369.199219 283.191406 369.867188 282.773438 C 370.53125 282.359375 371.332031 282.152344 372.269531 282.148438 C 373.191406 282.152344 373.960938 282.34375 374.582031 282.722656 C 375.195313 283.109375 375.703125 283.65625 376.105469 284.371094 C 376.5 285.085938 376.699219 285.9375 376.703125 286.917969 C 376.699219 288.589844 376.007813 290 374.625 291.15625 L 376.8125 291.15625 L 376.8125 292.339844 L 372.917969 292.339844 L 372.917969 291.230469 C 374.535156 290.480469 375.347656 289.109375 375.351563 287.125 C 375.347656 286.007813 375.0625 285.089844 374.492188 284.367188 C 373.921875 283.644531 373.175781 283.28125 372.261719 283.28125 C 371.316406 283.28125 370.5625 283.644531 370 284.371094 C 369.429688 285.097656 369.148438 285.992188 369.152344 287.054688 C 369.148438 289.066406 369.953125 290.460938 371.570313 291.230469 L 371.570313 292.339844 L 367.667969 292.339844 Z M 367.667969 291.15625 "/>
<path style=" stroke:none;fill-rule:nonzero;fill:rgb(0%,0%,0%);fill-opacity:1;" d="M 493.035156 293.699219 L 495.222656 293.699219 C 493.835938 292.542969 493.144531 291.132813 493.144531 289.460938 C 493.144531 288.558594 493.324219 287.746094 493.691406 287.023438 C 494.050781 286.304688 494.566406 285.734375 495.234375 285.316406 C 495.898438 284.902344 496.699219 284.695313 497.636719 284.691406 C 498.558594 284.695313 499.328125 284.886719 499.949219 285.265625 C 500.5625 285.652344 501.070313 286.199219 501.472656 286.914063 C 501.867188 287.628906 502.066406 288.480469 502.070313 289.460938 C 502.066406 291.132813 501.375 292.542969 499.992188 293.699219 L 502.179688 293.699219 L 502.179688 294.882813 L 498.285156 294.882813 L 498.285156 293.773438 C 499.902344 293.023438 500.714844 291.652344 500.71875 289.667969 C 500.714844 288.550781 500.429688 287.632813 499.859375 286.910156 C 499.289063 286.1875 498.542969 285.824219 497.628906 285.824219 C 496.683594 285.824219 495.929688 286.1875 495.367188 286.914063 C 494.796875 287.640625 494.515625 288.535156 494.519531 289.597656 C 494.515625 291.609375 495.320313 293.003906 496.9375 293.773438 L 496.9375 294.882813 L 493.035156 294.882813 Z M 493.035156 293.699219 "/>
<path style=" stroke:none;fill-rule:nonzero;fill:rgb(0%,0%,0%);fill-opacity:1;" d="M 399.535156 84.101563 L 401.722656 84.101563 C 400.335938 82.945313 399.644531 81.535156 399.644531 79.863281 C 399.644531 78.960938 399.824219 78.148438 400.191406 77.425781 C 400.550781 76.707031 401.066406 76.136719 401.734375 75.71875 C 402.398438 75.304688 403.199219 75.097656 404.136719 75.09375 C 405.058594 75.097656 405.828125 75.289063 406.449219 75.667969 C 407.0625 76.054688 407.570313 76.601563 407.972656 77.316406 C 408.367188 78.03125 408.566406 78.882813 408.570313 79.863281 C 408.566406 81.535156 407.875 82.945313 406.492188 84.101563 L 408.679688 84.101563 L 408.679688 85.285156 L 404.785156 85.285156 L 404.785156 84.175781 C 406.402344 83.425781 407.214844 82.054688 407.21875 80.070313 C 407.214844 78.953125 406.929688 78.035156 406.359375 77.3125 C 405.789063 76.589844 405.042969 76.226563 404.128906 76.226563 C 403.183594 76.226563 402.429688 76.589844 401.867188 77.316406 C 401.296875 78.042969 401.015625 78.9375 401.019531 80 C 401.015625 82.011719 401.820313 83.40625 403.4375 84.175781 L 403.4375 85.285156 L 399.535156 85.285156 Z M 399.535156 84.101563 "/>
</g>
</svg>
