<?xml version="1.0" encoding="UTF-8"?>
<svg xmlns="http://www.w3.org/2000/svg" xmlns:xlink="http://www.w3.org/1999/xlink" width="595.275591pt" height="841.889764pt" viewBox="0 0 595.275591 841.889764" version="1.1">
<g id="surface1">
<path style="fill:none;stroke-width:0.264583;stroke-linecap:butt;stroke-linejoin:miter;stroke:rgb(0%,0%,0%);stroke-opacity:1;stroke-miterlimit:4;" d="M 31.612192 59.812363 L 60.389761 59.812363 C 61.114609 59.812363 61.703031 60.537211 61.703031 61.125633 L 61.703031 128.325658 C 61.703031 129.050506 61.114609 129.638928 60.389761 129.638928 L 31.612192 129.638928 C 30.887344 129.638928 30.298922 128.91408 30.298922 128.325658 L 30.298922 61.125633 C 30.298922 60.400785 30.887344 59.812363 31.612192 59.812363 Z M 31.612192 59.812363 " transform="matrix(2.834646,0,0,2.834646,0.000000000000040283,-0.000000000000056843)"/>
<path style=" stroke:none;fill-rule:nonzero;fill:rgb(0%,0%,0%);fill-opacity:1;" d="M 132.414062 188.21875 L 132.414062 200.484375 L 145.695312 200.484375 L 145.695312 204.21875 L 132.414062 204.21875 L 132.414062 216.484375 L 128.398438 216.484375 L 128.398438 204.21875 L 115.101562 204.21875 L 115.101562 200.484375 L 128.398438 200.484375 L 128.398438 188.21875 Z M 132.414062 188.21875 "/>
<path style="fill:none;stroke-width:0.749999;stroke-linecap:butt;stroke-linejoin:miter;stroke:rgb(0%,0%,0%);stroke-opacity:1;stroke-miterlimit:4;" d="M 115.929688 335.1875 L 144.867188 335.1875 " transform="matrix(1,0,0,1,0,-0.000000000000056843)"/>
<path style="fill:none;stroke-width:0.749999;stroke-linecap:butt;stroke-linejoin:miter;stroke:rgb(0%,0%,0%);stroke-opacity:1;stroke-miterlimit:4;" d="M 85.808594 234.792969 L 174.984375 234.757813 " transform="matrix(1,0,0,1,0,-0.000000000000056843)"/>
<path style="fill:none;stroke-width:0.749999;stroke-linecap:butt;stroke-linejoin:miter;stroke:rgb(0%,0%,0%);stroke-opacity:1;stroke-miterlimit:4;" d="M 164.414062 275.875 C 164.414062 294.230469 149.1875 309.113281 130.398438 309.113281 C 111.613281 309.113281 96.382812 294.230469 96.382812 275.875 C 96.382812 257.519531 111.613281 242.640625 130.398438 242.640625 C 149.1875 242.640625 164.414062 257.519531 164.414062 275.875 " transform="matrix(1,0,0,1,0,-0.000000000000056843)"/>
<path style="fill:none;stroke-width:0.264583;stroke-linecap:butt;stroke-linejoin:miter;stroke:rgb(0%,0%,0%);stroke-opacity:1;stroke-miterlimit:4;" d="M 190.402137 97.232986 C 190.402137 91.396995 188.084277 85.80216 183.958431 81.676314 C 179.832585 77.550468 174.237751 75.232608 168.403138 75.232608 C 161.218048 75.235364 154.48771 78.747983 150.374266 84.639096 L 134.743181 89.26517 L 134.743181 105.199423 L 150.399071 109.832387 L 150.400449 109.832387 C 154.509758 115.713854 161.227694 119.222339 168.403138 119.231985 C 174.237751 119.231985 179.832585 116.914125 183.958431 112.788279 C 188.084277 108.662433 190.402137 103.067599 190.402137 97.232986 Z M 190.402137 97.232986 " transform="matrix(2.834646,0,0,2.834646,0.000000000000040283,-0.000000000000056843)"/>
<path style="fill:none;stroke-width:0.264583;stroke-linecap:butt;stroke-linejoin:miter;stroke:rgb(0%,0%,0%);stroke-opacity:1;stroke-miterlimit:4;" d="M 89.190756 -133.257656 L 105.27246 -133.257656 L 105.27246 -123.510793 L 89.190756 -123.510793 Z M 89.190756 -133.257656 " transform="matrix(0.000000000000000174,2.834646,-2.834646,0.000000000000000174,0.000000000000040283,-0.000000000000056843)"/>
<path style="fill:none;stroke-width:0.352129;stroke-linecap:butt;stroke-linejoin:miter;stroke:rgb(0%,0%,0%);stroke-opacity:1;stroke-miterlimit:4;" d="M 122.175474 89.338206 L 122.175474 105.126387 L 118.959133 102.822308 L 118.959133 91.642285 Z M 122.175474 89.338206 " transform="matrix(2.834646,0,0,2.834646,0.000000000000040283,-0.000000000000056843)"/>
<path style="fill:none;stroke-width:0.264583;stroke-linecap:butt;stroke-linejoin:miter;stroke:rgb(0%,0%,0%);stroke-opacity:1;stroke-miterlimit:4;" d="M 46.178055 129.4336 C 45.21894 164.076098 119.302265 119.135522 118.762074 97.496191 " transform="matrix(2.834646,0,0,2.834646,0.000000000000040283,-0.000000000000056843)"/>
<path style="fill:none;stroke-width:0.264583;stroke-linecap:butt;stroke-linejoin:miter;stroke:rgb(0%,0%,0%);stroke-opacity:1;stroke-miterlimit:4;" d="M 45.624083 59.476122 C 45.901069 13.022459 127.774443 89.159061 127.774443 89.159061 " transform="matrix(2.834646,0,0,2.834646,0.000000000000040283,-0.000000000000056843)"/>
<path style=" stroke:none;fill-rule:nonzero;fill:rgb(0%,0%,0%);fill-opacity:1;" d="M 123.21875 303.5625 C 123.21875 303.5625 142.429688 261.871094 142.433594 261.863281 L 143.5 259.492188 C 139.367188 260.679688 130.132812 262.941406 130.105469 263.03125 C 131.070312 260.328125 135.222656 248.195312 135.402344 248.195312 C 131.453125 248.195312 127.503906 248.195312 123.554688 248.195312 L 122.351562 253.917969 L 117.292969 274.667969 L 130.652344 271.03125 Z M 123.21875 303.5625 "/>
<path style="fill:none;stroke-width:0.75;stroke-linecap:butt;stroke-linejoin:miter;stroke:rgb(0%,0%,0%);stroke-opacity:1;stroke-miterlimit:4;" d="M 381.925781 261.082031 L 449.480469 261.082031 " transform="matrix(1,0,0,1,0,-0.000000000000056843)"/>
<path style="fill:none;stroke-width:0.75;stroke-linecap:butt;stroke-linejoin:miter;stroke:rgb(0%,0%,0%);stroke-opacity:1;stroke-miterlimit:4;" d="M 381.925781 289.621094 L 449.480469 289.621094 " transform="matrix(1,0,0,1,0,-0.000000000000056843)"/>
<path style="fill:none;stroke-width:0.75;stroke-linecap:butt;stroke-linejoin:miter;stroke:rgb(0%,0%,0%);stroke-opacity:1;stroke-miterlimit:4;" d="M 449.484375 261.082031 C 469.996094 261.082031 468.992188 289.730469 449.484375 289.621094 " transform="matrix(1,0,0,1,0,-0.000000000000056843)"/>
</g>
</svg>
