<?xml version="1.0" encoding="UTF-8"?>
<svg xmlns="http://www.w3.org/2000/svg" xmlns:xlink="http://www.w3.org/1999/xlink" width="595.275591pt" height="841.889764pt" viewBox="0 0 595.275591 841.889764" version="1.1">
<g id="surface1">
<!--  battery rect-->
  <path style="fill:none;stroke-width:0.264583;stroke-linecap:butt;stroke-linejoin:miter;stroke:rgb(0%,0%,0%);stroke-opacity:1;stroke-miterlimit:4;" d="M 31.612192 59.812363 L 60.389761 59.812363 C 61.114609 59.812363 61.703031 60.537211 61.703031 61.125633 L 61.703031 128.325658 C 61.703031 129.050506 61.114609 129.638928 60.389761 129.638928 L 31.612192 129.638928 C 30.887344 129.638928 30.298922 128.91408 30.298922 128.325658 L 30.298922 61.125633 C 30.298922 60.400785 30.887344 59.812363 31.612192 59.812363 Z M 31.612192 59.812363 " transform="matrix(2.834646,0,0,2.834646,0.000000000000040283,-0.000000000000113686)"/>
<!--sine circle-->
  <path style="fill:none;stroke-width:0.749999;stroke-linecap:butt;stroke-linejoin:miter;stroke:rgb(0%,0%,0%);stroke-opacity:1;stroke-miterlimit:4;" d="M 164.414063 268.511719 C 164.414063 286.867188 149.1875 301.75 130.398438 301.75 C 111.613281 301.75 96.382813 286.867188 96.382813 268.511719 C 96.382813 250.15625 111.613281 235.277344 130.398438 235.277344 C 149.1875 235.277344 164.414063 250.15625 164.414063 268.511719 " transform="matrix(1,0,0,1,0,-0.000000000000056843)"/>
<!--bulb-->
  <path style="fill:none;stroke-width:0.264583;stroke-linecap:butt;stroke-linejoin:miter;stroke:rgb(0%,0%,0%);stroke-opacity:1;stroke-miterlimit:4;" d="M 190.402137 97.232986 C 190.402137 91.396995 188.084277 85.80216 183.958431 81.676314 C 179.832585 77.550468 174.237751 75.232608 168.403138 75.232608 C 161.218048 75.235364 154.48771 78.747983 150.374266 84.639096 L 134.743181 89.26517 L 134.743181 105.199423 L 150.399071 109.832387 L 150.400449 109.832387 C 154.509758 115.713854 161.227694 119.222339 168.403138 119.231985 C 174.237751 119.231985 179.832585 116.914125 183.958431 112.788279 C 188.084277 108.662433 190.402137 103.067599 190.402137 97.232986 Z M 190.402137 97.232986 " transform="matrix(2.834646,0,0,2.834646,0.000000000000040283,-0.000000000000113686)"/>
<!--base large-->
  <path style="fill:none;stroke-width:0.264583;stroke-linecap:butt;stroke-linejoin:miter;stroke:rgb(0%,0%,0%);stroke-opacity:1;stroke-miterlimit:4;" d="M 89.190756 -133.257656 L 105.27246 -133.257656 L 105.27246 -123.510793 L 89.190756 -123.510793 Z M 89.190756 -133.257656 " transform="matrix(0.000000000000000174,2.834646,-2.834646,0.000000000000000174,0.000000000000040283,-0.000000000000113686)"/>
<!--base small-->
  <path style="fill:none;stroke-width:0.352129;stroke-linecap:butt;stroke-linejoin:miter;stroke:rgb(0%,0%,0%);stroke-opacity:1;stroke-miterlimit:4;" d="M 122.175474 89.338206 L 122.175474 105.126387 L 118.959133 102.822308 L 118.959133 91.642285 Z M 122.175474 89.338206 " transform="matrix(2.834646,0,0,2.834646,0.000000000000040283,-0.000000000000113686)"/>
<!--wires-->
  <path style="fill:none;stroke-width:0.264583;stroke-linecap:butt;stroke-linejoin:miter;stroke:rgb(0%,0%,0%);stroke-opacity:1;stroke-miterlimit:4;" d="M 46.178055 129.4336 C 45.21894 164.076098 119.302265 119.135522 118.762074 97.496191 " transform="matrix(2.834646,0,0,2.834646,0.000000000000040283,-0.000000000000113686)"/>
  <path style="fill:none;stroke-width:0.264583;stroke-linecap:butt;stroke-linejoin:miter;stroke:rgb(0%,0%,0%);stroke-opacity:1;stroke-miterlimit:4;" d="M 45.624083 59.476122 C 45.901069 13.022459 127.774443 89.159061 127.774443 89.159061 " transform="matrix(2.834646,0,0,2.834646,0.000000000000040283,-0.000000000000113686)"/>
<!--filament-->
  <path style="fill:none;stroke-width:0.75;stroke-linecap:butt;stroke-linejoin:miter;stroke:rgb(0%,0%,0%);stroke-opacity:1;stroke-miterlimit:4;" d="M 381.925781 261.082031 L 449.480469 261.082031 " transform="matrix(1,0,0,1,0,-0.000000000000113686)"/>
  <path style="fill:none;stroke-width:0.75;stroke-linecap:butt;stroke-linejoin:miter;stroke:rgb(0%,0%,0%);stroke-opacity:1;stroke-miterlimit:4;" d="M 381.925781 289.621094 L 449.480469 289.621094 " transform="matrix(1,0,0,1,0,-0.000000000000113686)"/>
  <path style="fill:none;stroke-width:0.75;stroke-linecap:butt;stroke-linejoin:miter;stroke:rgb(0%,0%,0%);stroke-opacity:1;stroke-miterlimit:4;" d="M 449.484375 261.082031 C 469.996094 261.082031 468.992188 289.730469 449.484375 289.621094 " transform="matrix(1,0,0,1,0,-0.000000000000113686)"/>
<!--sine wave-->
  <path style="fill:none;stroke-width:11.5789;stroke-linecap:round;stroke-linejoin:round;stroke:rgb(0%,1.176471%,100%);stroke-opacity:1;stroke-miterlimit:4;" d="M 153.159451 338.954954 L 174.042612 389.942412 L 185.614234 415.436141 L 206.497395 464.073114 L 216.938976 487.216358 L 228.510597 509.22956 L 238.952178 530.06752 L 249.393759 549.730236 L 259.835339 567.087669 L 271.406961 582.139818 L 281.848542 596.016724 L 292.290122 607.588345 L 303.861744 618.029926 L 314.303325 624.99098 L 324.744905 629.601548 L 335.186486 631.906832 L 346.758108 631.906832 L 357.199688 629.601548 L 367.641269 624.99098 L 378.082849 618.029926 L 389.654471 607.588345 L 400.096052 596.016724 L 410.537632 582.139818 L 422.109254 567.087669 L 432.550835 549.730236 L 442.992415 530.06752 L 453.433996 509.22956 L 465.005618 487.216358 L 475.447198 464.073114 L 496.33036 415.436141 L 507.901981 389.942412 L 528.785143 338.954954 L 540.356764 313.461224 L 561.239926 264.824251 L 571.681506 241.681008 L 583.253128 219.667805 L 593.694709 198.829846 L 604.136289 179.167129 L 614.57787 161.809696 L 626.149492 146.757548 L 636.591072 132.880642 L 647.032653 121.30902 L 658.604275 110.86744 L 669.045855 103.906386 L 679.487436 99.295818 L 689.929017 96.990534 L 701.500638 96.990534 L 711.942219 99.295818 L 722.3838 103.906386 L 732.82538 110.86744 L 744.397002 121.30902 L 754.838583 132.880642 L 765.280163 146.757548 L 776.851785 161.809696 L 787.293366 179.167129 L 797.734946 198.829846 L 808.176527 219.667805 L 819.748149 241.681008 L 830.189729 264.824251 L 851.07289 313.461224 L 862.644512 338.954954 L 873.086093 364.448683 " transform="matrix(0.0864183,0,0,0.0864183,86.092344,237.020586)"/>
</g>
</svg>
