<?xml version="1.0" encoding="UTF-8"?>
<svg xmlns="http://www.w3.org/2000/svg" xmlns:xlink="http://www.w3.org/1999/xlink" width="600pt" height="645pt" viewBox="0 0 600 645" version="1.1">
<g id="surface1">

<!--  nucleas-->
  <path style="fill-rule:nonzero;fill:rgb(100%,75.294118%,75.294118%);fill-opacity:1;stroke-width:10;stroke-linecap:butt;stroke-linejoin:miter;stroke:rgb(20.392157%,20.392157%,20.392157%);stroke-opacity:1;stroke-miterlimit:4;" d="M 200 0 C 200 110.455729 110.455729 200 0 200 C -110.455729 200 -200 110.455729 -200 0 C -200 -110.455729 -110.455729 -200 0 -200 C 110.455729 -200 200 -110.455729 200 0 " transform="matrix(0.3,0,0,0.3,300,345)"/>
<!--plus sign -->
  <path style="fill:none;stroke-width:0.746054;stroke-linecap:butt;stroke-linejoin:miter;stroke:rgb(0%,0%,0%);stroke-opacity:1;stroke-miterlimit:4;" d="M 273.75 344.996094 L 326.25 345 "/>
  <path style="fill:none;stroke-width:0.748018;stroke-linecap:butt;stroke-linejoin:miter;stroke:rgb(0%,0%,0%);stroke-opacity:1;stroke-miterlimit:4;" d="M 300 318.75 L 300.003906 371.25 "/>
<!--  rings-->
  <path style="fill:none;stroke-width:8;stroke-linecap:butt;stroke-linejoin:miter;stroke:rgb(46.666667%,52.54902%,54.509804%);stroke-opacity:1;stroke-miterlimit:4;" d="M 300 0 C 300 165.690104 165.690104 300 0 300 C -165.690104 300 -300 165.690104 -300 0 C -300 -165.690104 -165.690104 -300 0 -300 C 165.690104 -300 300 -165.690104 300 0 " transform="matrix(0.3,0,0,0.3,300,345)"/>
  <path style="fill:none;stroke-width:8;stroke-linecap:butt;stroke-linejoin:miter;stroke:rgb(46.666667%,52.54902%,54.509804%);stroke-opacity:1;stroke-miterlimit:4;" d="M 400 0 C 400 220.911458 220.911458 400 0 400 C -220.911458 400 -400 220.911458 -400 0 C -400 -220.911458 -220.911458 -400 0 -400 C 220.911458 -400 400 -220.911458 400 0 " transform="matrix(0.3,0,0,0.3,300,345)"/>
  <path style="fill:none;stroke-width:8;stroke-linecap:butt;stroke-linejoin:miter;stroke:rgb(46.666667%,52.54902%,54.509804%);stroke-opacity:1;stroke-miterlimit:4;" d="M 500 0 C 500 276.145833 276.145833 500 0 500 C -276.145833 500 -500 276.145833 -500 0 C -500 -276.145833 -276.145833 -500 0 -500 C 276.145833 -500 500 -276.145833 500 0 " transform="matrix(0.3,0,0,0.3,300,345)"/>
  <path style="fill:none;stroke-width:8;stroke-linecap:butt;stroke-linejoin:miter;stroke:rgb(46.666667%,52.54902%,54.509804%);stroke-opacity:1;stroke-miterlimit:4;" d="M 600 0 C 600 331.367188 331.367188 600 0 600 C -331.367188 600 -600 331.367188 -600 0 C -600 -331.367188 -331.367188 -600 0 -600 C 331.367188 -600 600 -331.367188 600 0 " transform="matrix(0.3,0,0,0.3,300,345)"/>
<!--electrons-->
  <path style=" stroke:none;fill-rule:nonzero;fill:rgb(46.666667%,52.54902%,54.509804%);fill-opacity:1;" d="M 309 255 C 309 259.96875 304.96875 264 300 264 C 295.03125 264 291 259.96875 291 255 C 291 250.03125 295.03125 246 300 246 C 304.96875 246 309 250.03125 309 255 "/>
  <path style=" stroke:none;fill-rule:nonzero;fill:rgb(46.666667%,52.54902%,54.509804%);fill-opacity:1;" d="M 291 435 C 291 430.03125 295.03125 426 300 426 C 304.96875 426 309 430.03125 309 435 C 309 439.96875 304.96875 444 300 444 C 295.03125 444 291 439.96875 291 435 "/>
  <path style=" stroke:none;fill-rule:nonzero;fill:rgb(46.666667%,52.54902%,54.509804%);fill-opacity:1;" d="M 309 225 C 309 229.96875 304.96875 234 300 234 C 295.03125 234 291 229.96875 291 225 C 291 220.03125 295.03125 216 300 216 C 304.96875 216 309 220.03125 309 225 "/>
  <path style=" stroke:none;fill-rule:nonzero;fill:rgb(46.666667%,52.54902%,54.509804%);fill-opacity:1;" d="M 391.214844 266.511719 C 387.703125 270.027344 382.003906 270.027344 378.488281 266.511719 C 374.972656 262.996094 374.972656 257.296875 378.488281 253.785156 C 382.003906 250.269531 387.703125 250.269531 391.214844 253.785156 C 394.730469 257.296875 394.730469 262.996094 391.214844 266.511719 "/>
  <path style=" stroke:none;fill-rule:nonzero;fill:rgb(46.666667%,52.54902%,54.509804%);fill-opacity:1;" d="M 420 354 C 415.03125 354 411 349.96875 411 345 C 411 340.03125 415.03125 336 420 336 C 424.96875 336 429 340.03125 429 345 C 429 349.96875 424.96875 354 420 354 "/>
  <path style=" stroke:none;fill-rule:nonzero;fill:rgb(46.666667%,52.54902%,54.509804%);fill-opacity:1;" d="M 378.488281 436.214844 C 374.972656 432.703125 374.972656 427.003906 378.488281 423.488281 C 382.003906 419.972656 387.703125 419.972656 391.214844 423.488281 C 394.730469 427.003906 394.730469 432.703125 391.214844 436.214844 C 387.703125 439.730469 382.003906 439.730469 378.488281 436.214844 "/>
  <path style=" stroke:none;fill-rule:nonzero;fill:rgb(46.666667%,52.54902%,54.509804%);fill-opacity:1;" d="M 291 465 C 291 460.03125 295.03125 456 300 456 C 304.96875 456 309 460.03125 309 465 C 309 469.96875 304.96875 474 300 474 C 295.03125 474 291 469.96875 291 465 "/>
  <path style=" stroke:none;fill-rule:nonzero;fill:rgb(46.666667%,52.54902%,54.509804%);fill-opacity:1;" d="M 208.785156 423.488281 C 212.296875 419.972656 217.996094 419.972656 221.511719 423.488281 C 225.027344 427.003906 225.027344 432.703125 221.511719 436.214844 C 217.996094 439.730469 212.296875 439.730469 208.785156 436.214844 C 205.269531 432.703125 205.269531 427.003906 208.785156 423.488281 "/>
  <path style=" stroke:none;fill-rule:nonzero;fill:rgb(46.666667%,52.54902%,54.509804%);fill-opacity:1;" d="M 180 336 C 184.96875 336 189 340.03125 189 345 C 189 349.96875 184.96875 354 180 354 C 175.03125 354 171 349.96875 171 345 C 171 340.03125 175.03125 336 180 336 "/>
  <path style=" stroke:none;fill-rule:nonzero;fill:rgb(46.666667%,52.54902%,54.509804%);fill-opacity:1;" d="M 221.511719 253.785156 C 225.027344 257.296875 225.027344 262.996094 221.511719 266.511719 C 217.996094 270.027344 212.296875 270.027344 208.785156 266.511719 C 205.269531 262.996094 205.269531 257.296875 208.785156 253.785156 C 212.296875 250.269531 217.996094 250.269531 221.511719 253.785156 "/>
  <path style=" stroke:none;fill-rule:nonzero;fill:rgb(46.666667%,52.54902%,54.509804%);fill-opacity:1;" d="M 309 195 C 309 199.96875 304.96875 204 300 204 C 295.03125 204 291 199.96875 291 195 C 291 190.03125 295.03125 186 300 186 C 304.96875 186 309 190.03125 309 195 "/>
  <path style=" stroke:none;fill-rule:nonzero;fill:rgb(46.666667%,52.54902%,54.509804%);fill-opacity:1;" d="M 359.761719 207.125 C 358.058594 211.796875 352.894531 214.203125 348.226563 212.503906 C 343.554688 210.804688 341.144531 205.640625 342.847656 200.96875 C 344.546875 196.296875 349.710938 193.890625 354.382813 195.589844 C 359.050781 197.289063 361.460938 202.453125 359.761719 207.125 "/>
  <path style=" stroke:none;fill-rule:nonzero;fill:rgb(46.666667%,52.54902%,54.509804%);fill-opacity:1;" d="M 403.3125 235.878906 C 400.117188 239.6875 394.441406 240.183594 390.632813 236.988281 C 386.824219 233.792969 386.328125 228.117188 389.523438 224.308594 C 392.71875 220.5 398.394531 220.003906 402.203125 223.199219 C 406.011719 226.394531 406.507813 232.070313 403.3125 235.878906 "/>
  <path style=" stroke:none;fill-rule:nonzero;fill:rgb(46.666667%,52.54902%,54.509804%);fill-opacity:1;" d="M 434.402344 277.792969 C 430.097656 280.28125 424.59375 278.804688 422.109375 274.5 C 419.625 270.195313 421.097656 264.691406 425.402344 262.207031 C 429.707031 259.71875 435.210938 261.195313 437.699219 265.5 C 440.183594 269.804688 438.707031 275.308594 434.402344 277.792969 "/>
  <path style=" stroke:none;fill-rule:nonzero;fill:rgb(46.666667%,52.54902%,54.509804%);fill-opacity:1;" d="M 449.285156 327.816406 C 444.390625 328.679688 439.722656 325.410156 438.859375 320.515625 C 437.996094 315.621094 441.261719 310.953125 446.160156 310.089844 C 451.054688 309.226563 455.722656 312.496094 456.585938 317.390625 C 457.449219 322.285156 454.179688 326.953125 449.285156 327.816406 "/>
  <path style=" stroke:none;fill-rule:nonzero;fill:rgb(46.666667%,52.54902%,54.509804%);fill-opacity:1;" d="M 446.160156 379.910156 C 441.261719 379.046875 437.996094 374.378906 438.859375 369.484375 C 439.722656 364.589844 444.390625 361.320313 449.285156 362.183594 C 454.179688 363.046875 457.449219 367.714844 456.585938 372.609375 C 455.722656 377.503906 451.054688 380.773438 446.160156 379.910156 "/>
  <path style=" stroke:none;fill-rule:nonzero;fill:rgb(46.666667%,52.54902%,54.509804%);fill-opacity:1;" d="M 425.402344 427.792969 C 421.097656 425.308594 419.625 419.804688 422.109375 415.5 C 424.59375 411.195313 430.097656 409.71875 434.402344 412.207031 C 438.707031 414.691406 440.183594 420.195313 437.699219 424.5 C 435.210938 428.804688 429.707031 430.28125 425.402344 427.792969 "/>
  <path style=" stroke:none;fill-rule:nonzero;fill:rgb(46.666667%,52.54902%,54.509804%);fill-opacity:1;" d="M 389.523438 465.691406 C 386.328125 461.882813 386.824219 456.207031 390.632813 453.011719 C 394.441406 449.816406 400.117188 450.3125 403.3125 454.121094 C 406.507813 457.929688 406.011719 463.605469 402.203125 466.800781 C 398.394531 469.996094 392.71875 469.5 389.523438 465.691406 "/>
  <path style=" stroke:none;fill-rule:nonzero;fill:rgb(46.666667%,52.54902%,54.509804%);fill-opacity:1;" d="M 342.847656 489.03125 C 341.144531 484.359375 343.554688 479.195313 348.226563 477.496094 C 352.894531 475.796875 358.058594 478.203125 359.761719 482.875 C 361.460938 487.546875 359.050781 492.710938 354.382813 494.410156 C 349.710938 496.109375 344.546875 493.703125 342.847656 489.03125 "/>
  <path style=" stroke:none;fill-rule:nonzero;fill:rgb(46.666667%,52.54902%,54.509804%);fill-opacity:1;" d="M 291 495 C 291 490.03125 295.03125 486 300 486 C 304.96875 486 309 490.03125 309 495 C 309 499.96875 304.96875 504 300 504 C 295.03125 504 291 499.96875 291 495 "/>
  <path style=" stroke:none;fill-rule:nonzero;fill:rgb(46.666667%,52.54902%,54.509804%);fill-opacity:1;" d="M 240.238281 482.875 C 241.941406 478.203125 247.105469 475.796875 251.773438 477.496094 C 256.445313 479.195313 258.855469 484.359375 257.152344 489.03125 C 255.453125 493.703125 250.289063 496.109375 245.617188 494.410156 C 240.949219 492.710938 238.539063 487.546875 240.238281 482.875 "/>
  <path style=" stroke:none;fill-rule:nonzero;fill:rgb(46.666667%,52.54902%,54.509804%);fill-opacity:1;" d="M 196.6875 454.121094 C 199.882813 450.3125 205.558594 449.816406 209.367188 453.011719 C 213.175781 456.207031 213.671875 461.882813 210.476563 465.691406 C 207.28125 469.5 201.605469 469.996094 197.796875 466.800781 C 193.988281 463.605469 193.492188 457.929688 196.6875 454.121094 "/>
  <path style=" stroke:none;fill-rule:nonzero;fill:rgb(46.666667%,52.54902%,54.509804%);fill-opacity:1;" d="M 165.597656 412.207031 C 169.902344 409.71875 175.40625 411.195313 177.890625 415.5 C 180.375 419.804688 178.902344 425.308594 174.597656 427.792969 C 170.292969 430.28125 164.789063 428.804688 162.300781 424.5 C 159.816406 420.195313 161.292969 414.691406 165.597656 412.207031 "/>
  <path style=" stroke:none;fill-rule:nonzero;fill:rgb(46.666667%,52.54902%,54.509804%);fill-opacity:1;" d="M 150.714844 362.183594 C 155.609375 361.320313 160.277344 364.589844 161.140625 369.484375 C 162.003906 374.378906 158.738281 379.046875 153.839844 379.910156 C 148.945313 380.773438 144.277344 377.503906 143.414063 372.609375 C 142.550781 367.714844 145.820313 363.046875 150.714844 362.183594 "/>
  <path style=" stroke:none;fill-rule:nonzero;fill:rgb(46.666667%,52.54902%,54.509804%);fill-opacity:1;" d="M 153.839844 310.089844 C 158.738281 310.953125 162.003906 315.621094 161.140625 320.515625 C 160.277344 325.410156 155.609375 328.679688 150.714844 327.816406 C 145.820313 326.953125 142.550781 322.285156 143.414063 317.390625 C 144.277344 312.496094 148.945313 309.226563 153.839844 310.089844 "/>
  <path style=" stroke:none;fill-rule:nonzero;fill:rgb(46.666667%,52.54902%,54.509804%);fill-opacity:1;" d="M 174.597656 262.207031 C 178.902344 264.691406 180.375 270.195313 177.890625 274.5 C 175.40625 278.804688 169.902344 280.28125 165.597656 277.792969 C 161.292969 275.308594 159.816406 269.804688 162.300781 265.5 C 164.789063 261.195313 170.292969 259.71875 174.597656 262.207031 "/>
  <path style=" stroke:none;fill-rule:nonzero;fill:rgb(46.666667%,52.54902%,54.509804%);fill-opacity:1;" d="M 210.476563 224.308594 C 213.671875 228.117188 213.175781 233.792969 209.367188 236.988281 C 205.558594 240.183594 199.882813 239.6875 196.6875 235.878906 C 193.492188 232.070313 193.988281 226.394531 197.796875 223.199219 C 201.605469 220.003906 207.28125 220.5 210.476563 224.308594 "/>
  <path style=" stroke:none;fill-rule:nonzero;fill:rgb(46.666667%,52.54902%,54.509804%);fill-opacity:1;" d="M 257.152344 200.96875 C 258.855469 205.640625 256.445313 210.804688 251.773438 212.503906 C 247.105469 214.203125 241.941406 211.796875 240.238281 207.125 C 238.539063 202.453125 240.949219 197.289063 245.617188 195.589844 C 250.289063 193.890625 255.453125 196.296875 257.152344 200.96875 "/>
  <path style=" stroke:none;fill-rule:nonzero;fill:rgb(46.666667%,52.54902%,54.509804%);fill-opacity:1;" d="M 309 165 C 309 169.96875 304.96875 174 300 174 C 295.03125 174 291 169.96875 291 165 C 291 160.03125 295.03125 156 300 156 C 304.96875 156 309 160.03125 309 165 "/>
</g>
</svg>
