<?xml version="1.0" encoding="UTF-8" standalone="no"?>
<svg
   xmlns:dc="http://purl.org/dc/elements/1.1/"
   xmlns:cc="http://creativecommons.org/ns#"
   xmlns:rdf="http://www.w3.org/1999/02/22-rdf-syntax-ns#"
   xmlns:svg="http://www.w3.org/2000/svg"
   xmlns="http://www.w3.org/2000/svg"
   xmlns:sodipodi="http://sodipodi.sourceforge.net/DTD/sodipodi-0.dtd"
   xmlns:inkscape="http://www.inkscape.org/namespaces/inkscape"
   width="234.61308pt"
   height="228.992617pt"
   viewBox="0 0 234.61308 228.992617"
   version="1.1"
   id="svg1698"
   sodipodi:docname="inductor.svg"
   inkscape:version="0.92.4 (f8dce91, 2019-08-02)">
  <metadata
     id="metadata1704">
    <rdf:RDF>
      <cc:Work
         rdf:about="">
        <dc:format>image/svg+xml</dc:format>
        <dc:type
           rdf:resource="http://purl.org/dc/dcmitype/StillImage" />
      </cc:Work>
    </rdf:RDF>
  </metadata>
  <defs
     id="defs1702" />
  <sodipodi:namedview
     pagecolor="#ffffff"
     bordercolor="#666666"
     borderopacity="1"
     objecttolerance="10"
     gridtolerance="10"
     guidetolerance="10"
     inkscape:pageopacity="0"
     inkscape:pageshadow="2"
     inkscape:window-width="1299"
     inkscape:window-height="713"
     id="namedview1700"
     showgrid="false"
     inkscape:zoom="8.7449388"
     inkscape:cx="156.40872"
     inkscape:cy="219.45989"
     inkscape:window-x="67"
     inkscape:window-y="27"
     inkscape:window-maximized="1"
     inkscape:current-layer="svg1698" />
  <g
     id="surface1">
    <path
       style="fill:none;stroke:#000000;stroke-width:3.4000001;stroke-linecap:round;stroke-linejoin:miter;stroke-miterlimit:4;stroke-opacity:1"
       d="m 345.85307,257.05082 0.0679,-26.65822"
       transform="matrix(0.75,0,0,0.75,-135.73763,-121.25148)"
       id="path1685"
       inkscape:connector-curvature="0"
       sodipodi:nodetypes="cc" />
    <path
       style="fill:none;stroke:#000000;stroke-width:3.4000001;stroke-linecap:round;stroke-linejoin:round;stroke-miterlimit:4;stroke-opacity:1"
       d="m 366.65018,287.38218 c 0.13541,-1.22917 0.0156,-2.66667 -0.22396,-4.30729 -0.98438,-6.75521 -6.19792,-16.31771 -20.74479,-15.29688 -11.97917,0.84375 -13.10417,1.63021 -15.94271,3.73438 -1.96875,1.46354 -2.15625,4.50521 -2.15625,4.50521 m 18.15625,-20.56771 c 2.92708,0.38542 10.13542,0.63542 14.75521,3.96875 4.00521,2.88542 5.66666,7.43229 5.92708,9.69271 0.78646,6.78125 -6.19792,16.31771 -20.74479,15.29687 -11.97917,-0.84375 -13.10417,-1.63021 -15.94271,-3.73437 -1.96875,-1.46354 -2.15625,-4.50521 -2.15625,-4.50521 m 39.0625,34.36458 c 0.13542,-1.22916 0.0156,-2.66666 -0.22396,-4.30729 -0.98437,-6.75521 -6.19791,-16.31771 -20.74479,-15.29687 -11.97917,0.84375 -13.10417,1.6302 -15.94271,3.73437 -1.96875,1.46354 -2.15625,4.50521 -2.15625,4.50521 m 39.0625,-11.21354 c 0.13542,1.22916 0.0156,2.66666 -0.22396,4.30729 -0.98437,6.75521 -6.19791,16.31771 -20.74479,15.29687 -11.97916,-0.84375 -13.10416,-1.6302 -15.94271,-3.73437 -1.96875,-1.46354 -2.15625,-4.50521 -2.15625,-4.50521 m 39.0625,11.78646 c 0.13542,1.22917 0.0156,2.66667 -0.22395,4.30729 -0.98438,6.75521 -6.19792,16.31771 -20.7448,15.29688 -11.97916,-0.84375 -13.10416,-1.63021 -15.9427,-3.73438 -1.96875,-1.45833 -2.15625,-4.50521 -2.15625,-4.50521 m 18.18228,43.86979 c 2.43229,0.30729 9.3073,-0.39583 14.20834,-3.03125 5.45313,-2.9375 6.50521,-7.36458 6.44792,-10.77604 -0.0885,-4.67708 -6.19792,-16.31771 -20.74479,-15.29687 -11.97917,0.84375 -13.10417,1.63021 -15.94271,3.73437 -1.96875,1.45834 -2.15625,4.50521 -2.15625,4.50521 m 39.0625,-11.21354 c 0.13541,1.22917 0.0156,2.66667 -0.22396,4.30729 -0.98438,6.75521 -6.19792,16.31771 -20.74479,15.29688 -11.97917,-0.84375 -13.10417,-1.63021 -15.94271,-3.73438 -1.96875,-1.45833 -2.15625,-4.50521 -2.15625,-4.50521 m 0,-23.29687 c 0,0 0.1875,-3.04167 2.15625,-4.50521 2.83854,-2.10938 3.96354,-2.89063 15.94271,-3.73438 14.54166,-1.02604 19.76041,8.54167 20.74479,15.29688 0.23958,1.64583 0.36458,3.08333 0.22396,4.30729 v 0.56771"
       transform="matrix(0.75,0,0,0.75,-135.73763,-121.25148)"
       id="path1687"
       inkscape:connector-curvature="0"
       sodipodi:nodetypes="ccccccccccccccccccccccccccccccccccccccccccc" />
    <path
       style="fill:none;stroke:#000000;stroke-width:3.4000001;stroke-linecap:round;stroke-linejoin:miter;stroke-miterlimit:4;stroke-opacity:1"
       d="m 345.74393,389.42906 -0.11436,-24.80383"
       transform="matrix(0.75,0,0,0.75,-135.73763,-121.25148)"
       id="path1689"
       inkscape:connector-curvature="0"
       sodipodi:nodetypes="cc" />
    <path
       style="fill:none;stroke-width:1;stroke-linecap:butt;stroke-linejoin:miter;stroke:rgb(0%,0%,0%);stroke-opacity:1;stroke-miterlimit:4;"
       d="M 366.650177 311.100932 L 366.650177 310.533223 "
       transform="matrix(0.75,0,0,0.75,-135.737632,-121.25148)"
       id="path1691" />
    <path
       style="fill:none;stroke-width:1;stroke-linecap:butt;stroke-linejoin:miter;stroke:rgb(0%,0%,0%);stroke-opacity:1;stroke-miterlimit:4;"
       d="M 366.650177 287.94989 L 366.650177 287.382182 "
       transform="matrix(0.75,0,0,0.75,-135.737632,-121.25148)"
       id="path1693" />
    <path
       style="fill:none;stroke-width:1;stroke-linecap:butt;stroke-linejoin:miter;stroke:rgb(0%,0%,0%);stroke-opacity:1;stroke-miterlimit:4;"
       d="M 345.92101 253.48114 L 345.738718 255.44989 "
       transform="matrix(0.75,0,0,0.75,-135.737632,-121.25148)"
       id="path1695" />
  </g>
</svg>
