<?xml version="1.0" encoding="UTF-8"?>
<svg xmlns="http://www.w3.org/2000/svg" xmlns:xlink="http://www.w3.org/1999/xlink" width="595.275591pt" height="841.889764pt" viewBox="0 0 595.275591 841.889764" version="1.1">
<g id="surface1">
<path style="fill:none;stroke-width:3.5;stroke-linecap:round;stroke-linejoin:miter;stroke:rgb(0%,0%,0%);stroke-opacity:1;stroke-miterlimit:4;" d="M 1350.004641 766.414078 L 1371.999433 766.414078 L 1371.999433 745.414078 " transform="matrix(0.75,0,0,0.75,-754.437061,-231.994145)"/>
<path style="fill:none;stroke-width:3.5;stroke-linecap:round;stroke-linejoin:miter;stroke:rgb(0%,0%,0%);stroke-opacity:1;stroke-miterlimit:4;" d="M 1350.145266 794.414079 L 1371.999433 794.414079 L 1371.999433 815.414079 " transform="matrix(0.75,0,0,0.75,-754.437061,-231.994145)"/>
<path style="fill:none;stroke-width:3.5;stroke-linecap:square;stroke-linejoin:round;stroke:rgb(0%,0%,0%);stroke-opacity:1;stroke-miterlimit:4;" d="M 1385.999433 780.414078 C 1385.999433 795.882829 1373.462974 808.414079 1357.999432 808.414079 C 1342.53589 808.414079 1329.999432 795.882829 1329.999432 780.414078 C 1329.999432 764.950537 1342.53589 752.414078 1357.999432 752.414078 C 1373.462974 752.414078 1385.999433 764.950537 1385.999433 780.414078 " transform="matrix(0.75,0,0,0.75,-754.437061,-231.994145)"/>
<path style="fill:none;stroke-width:3.5;stroke-linecap:square;stroke-linejoin:miter;stroke:rgb(0%,0%,0%);stroke-opacity:1;stroke-miterlimit:4;" d="M 1343.999432 794.414079 L 1343.999432 766.414078 " transform="matrix(0.75,0,0,0.75,-754.437061,-231.994145)"/>
<path style="fill:none;stroke-width:3.5;stroke-linecap:butt;stroke-linejoin:miter;stroke:rgb(0%,0%,0%);stroke-opacity:1;stroke-miterlimit:4;" d="M 1350.999432 776.914078 L 1350.999432 783.914078 " transform="matrix(0.75,0,0,0.75,-754.437061,-231.994145)"/>
<path style="fill:none;stroke-width:3.5;stroke-linecap:square;stroke-linejoin:miter;stroke:rgb(0%,0%,0%);stroke-opacity:1;stroke-miterlimit:4;" d="M 1350.999432 766.414078 L 1350.999432 769.914078 " transform="matrix(0.75,0,0,0.75,-754.437061,-231.994145)"/>
<path style="fill:none;stroke-width:3.5;stroke-linecap:square;stroke-linejoin:miter;stroke:rgb(0%,0%,0%);stroke-opacity:1;stroke-miterlimit:4;" d="M 1350.999432 794.414079 L 1350.999432 790.914079 " transform="matrix(0.75,0,0,0.75,-754.437061,-231.994145)"/>
<path style=" stroke:none;fill-rule:nonzero;fill:rgb(0%,0%,0%);fill-opacity:1;" d="M 268 353.316406 L 262.75 348.066406 L 262.75 358.566406 Z M 268 353.316406 "/>
<path style="fill:none;stroke-width:3.5;stroke-linecap:square;stroke-linejoin:miter;stroke:rgb(0%,0%,0%);stroke-opacity:1;stroke-miterlimit:4;" d="M 1350.999432 780.414078 L 1371.999433 780.414078 L 1371.999433 766.414078 " transform="matrix(0.75,0,0,0.75,-754.437061,-231.994145)"/>
<path style="fill:none;stroke-width:3.5;stroke-linecap:round;stroke-linejoin:miter;stroke:rgb(0%,0%,0%);stroke-opacity:1;stroke-miterlimit:4;" d="M 1322.999432 766.414078 L 1343.999432 766.414078 L 1345.483807 766.450537 " transform="matrix(0.75,0,0,0.75,-754.437061,-231.994145)"/>
</g>
</svg>
