<?xml version="1.0" encoding="UTF-8"?>
<svg xmlns="http://www.w3.org/2000/svg" xmlns:xlink="http://www.w3.org/1999/xlink" width="150pt" height="127.5pt" viewBox="0 0 150 127.5" version="1.1">
<g id="surface1">
<path style="fill:none;stroke-width:2;stroke-linecap:round;stroke-linejoin:round;stroke:rgb(0%,0%,0%);stroke-opacity:1;stroke-miterlimit:4;" d="M 533.354167 387.073692 L 508.354167 387.073692 " transform="matrix(0.75,0,0,0.75,-355.5,-208.23105)"/>
<path style="fill:none;stroke-width:2;stroke-linecap:round;stroke-linejoin:round;stroke:rgb(0%,0%,0%);stroke-opacity:1;stroke-miterlimit:4;" d="M 533.354167 337.073692 L 508.354167 337.073692 " transform="matrix(0.75,0,0,0.75,-355.5,-208.23105)"/>
<path style="fill:none;stroke-width:2;stroke-linecap:round;stroke-linejoin:round;stroke:rgb(0%,0%,0%);stroke-opacity:1;stroke-miterlimit:4;" d="M 533.375 387.073692 L 533.354167 317.073692 L 623.354167 362.073692 L 533.354167 407.073692 L 533.375 387.073692 " transform="matrix(0.75,0,0,0.75,-355.5,-208.23105)"/>
<path style="fill:none;stroke-width:2;stroke-linecap:round;stroke-linejoin:round;stroke:rgb(0%,0%,0%);stroke-opacity:1;stroke-miterlimit:4;" d="M 648.354167 362.073692 L 623.354167 362.073692 " transform="matrix(0.75,0,0,0.75,-355.5,-208.23105)"/>
<path style="fill:none;stroke-width:2;stroke-linecap:round;stroke-linejoin:round;stroke:rgb(0%,0%,0%);stroke-opacity:1;stroke-miterlimit:4;" d="M 573.354167 412.073692 L 573.354167 387.073692 " transform="matrix(0.75,0,0,0.75,-355.5,-208.23105)"/>
<path style="fill:none;stroke-width:2;stroke-linecap:round;stroke-linejoin:round;stroke:rgb(0%,0%,0%);stroke-opacity:1;stroke-miterlimit:4;" d="M 573.354167 337.073692 L 573.354167 312.073692 " transform="matrix(0.75,0,0,0.75,-355.5,-208.23105)"/>
<path style="fill:none;stroke-width:2;stroke-linecap:round;stroke-linejoin:round;stroke:rgb(0%,0%,0%);stroke-opacity:1;stroke-miterlimit:4;" d="M 531.998623 326.640706 L 531.998623 334.640706 " transform="matrix(0.75,0,0,0.75,-342.088811,-203.597717)"/>
<path style="fill:none;stroke-width:2;stroke-linecap:round;stroke-linejoin:round;stroke:rgb(0%,0%,0%);stroke-opacity:1;stroke-miterlimit:4;" d="M 535.998623 330.640706 L 527.998623 330.640706 " transform="matrix(0.75,0,0,0.75,-342.088811,-203.597717)"/>
<path style="fill:none;stroke-width:2;stroke-linecap:round;stroke-linejoin:round;stroke:rgb(0%,0%,0%);stroke-opacity:1;stroke-miterlimit:4;" d="M 554.390625 387.073692 L 546.390625 387.073692 " transform="matrix(0.75,0,0,0.75,-355.5,-208.23105)"/>
</g>
</svg>
