<?xml version="1.0" encoding="UTF-8"?>
<svg xmlns="http://www.w3.org/2000/svg" xmlns:xlink="http://www.w3.org/1999/xlink" width="1280pt" height="1280pt" viewBox="0 0 1280 1280" version="1.1">
<g id="surface1">
<path style=" stroke:none;fill-rule:nonzero;fill:rgb(0%,0%,0%);fill-opacity:1;" d="M 601.984375 16.734375 C 600.542969 16.839844 595.847656 17.160156 591.578125 17.480469 C 491.761719 24.792969 398.832031 77.425781 339.902344 160.050781 C 259.570312 272.679688 255.460938 424.109375 329.601562 540.738281 C 373.582031 609.914062 441.265625 661.421875 518.984375 684.910156 C 568.414062 699.800781 619.546875 703.429688 670.574219 695.585938 C 711.195312 689.339844 751.707031 675.25 786.9375 655.074219 C 852.589844 617.496094 903.566406 560.222656 932.871094 491.207031 C 979.09375 382.316406 965.269531 256.183594 896.625 160.054688 C 849.332031 93.8125 780.210938 46.46875 702.066406 26.824219 C 683.917969 22.234375 668.277344 19.617188 648.421875 17.695312 C 640.417969 16.949219 608.070312 16.253906 601.984375 16.734375 Z M 631.183594 69.257812 C 672.605469 71.179688 710.019531 80.839844 746.371094 98.9375 C 776.261719 113.828125 798.574219 129.894531 822.488281 153.808594 C 845.707031 177.027344 862.148438 199.605469 876.292969 227.789062 C 893.640625 262.21875 902.980469 295.523438 906.558594 335.609375 C 907.945312 350.980469 907.304688 376.550781 905.117188 394.058594 C 898.285156 449.035156 875.867188 500.386719 839.785156 543.78125 C 832.6875 552.320312 816.992188 568.226562 808.238281 575.863281 C 765.964844 612.585938 714.457031 636.339844 660.171875 644.078125 C 645.066406 646.265625 635.140625 646.90625 618.269531 646.90625 C 571.296875 646.90625 529.289062 636.925781 487.496094 615.839844 C 448.101562 595.929688 412.875 566.144531 386.023438 530.167969 C 356.558594 490.5625 337.503906 443.164062 331.417969 394.054688 C 328.480469 370.675781 328.480469 345.375 331.417969 321.996094 C 337.554688 272.566406 356.558594 225.382812 386.449219 185.351562 C 395.148438 173.664062 402.089844 165.707031 414.3125 153.539062 C 427.175781 140.730469 432.355469 136.191406 445.058594 126.636719 C 491.125 91.996094 547.007812 71.871094 604.121094 69.257812 C 616.824219 68.722656 619.121094 68.722656 631.183594 69.257812 Z M 631.183594 69.257812 "/>
<path style=" stroke:none;fill-rule:nonzero;fill:rgb(0%,0%,0%);fill-opacity:1;" d="M 609.726562 112.707031 L 609.726562 124.128906 L 605.617188 124.449219 C 582.609375 126.261719 566.117188 129.199219 548.929688 134.644531 C 516.316406 144.945312 488.984375 160.371094 463.097656 183.109375 L 456.160156 189.195312 L 447.886719 181.296875 L 439.558594 173.34375 L 433.6875 179.695312 L 427.761719 185.996094 L 435.824219 194.058594 L 443.9375 202.066406 L 439.933594 206.816406 C 404.488281 248.335938 384.578125 302.140625 384.472656 356.53125 L 384.472656 365.445312 L 381.699219 365.710938 C 380.152344 365.871094 375.027344 366.300781 370.328125 366.617188 C 365.628906 366.9375 361.734375 367.207031 361.679688 367.257812 C 361.46875 367.523438 362.800781 383.964844 363.066406 384.285156 C 363.226562 384.496094 368.191406 384.285156 374.007812 383.859375 C 379.878906 383.433594 384.949219 383.164062 385.378906 383.324219 C 385.753906 383.484375 386.074219 384.390625 386.074219 385.460938 C 386.074219 388.824219 389.277344 406.382812 391.464844 414.925781 C 395.734375 431.847656 403.207031 451.542969 410.734375 465.847656 C 419.0625 481.753906 427.921875 494.882812 440.679688 510.203125 C 445.054688 515.539062 448.472656 520.023438 448.152344 520.238281 C 446.816406 521.144531 431.445312 534.222656 431.445312 534.488281 C 431.445312 535.078125 442.332031 547.511719 442.707031 547.40625 C 442.917969 547.300781 451.726562 540.039062 462.191406 531.234375 C 472.707031 522.425781 481.621094 514.953125 482.046875 514.6875 C 482.636719 514.207031 480.074219 510.898438 469.609375 498.40625 C 462.402344 489.757812 454.609375 480.046875 452.316406 476.789062 C 432.460938 448.871094 420.394531 417.96875 415.59375 382.578125 C 414.417969 373.609375 414.207031 344.574219 415.328125 335.605469 C 421.09375 288.847656 440.148438 248.546875 472.015625 215.828125 C 505.484375 181.507812 547.066406 161.0625 595.851562 155.085938 C 599.375 154.660156 607.753906 154.390625 618.269531 154.390625 C 628.785156 154.390625 637.164062 154.65625 640.6875 155.085938 C 680.988281 160.050781 715.253906 174.355469 746.375 199.175781 C 754.382812 205.582031 769.488281 220.527344 775.894531 228.371094 C 798.472656 256.128906 813.203125 288.046875 819.183594 322.261719 C 821.585938 336.140625 821.90625 340.304688 821.90625 358.558594 C 821.851562 373.503906 821.695312 377.078125 820.679688 384.234375 C 817.15625 409.109375 810.164062 431.3125 799.167969 452.449219 C 791.105469 467.820312 784.277344 477.589844 766.664062 498.675781 C 756.417969 510.953125 753.90625 514.210938 754.492188 514.6875 C 754.917969 514.953125 763.832031 522.425781 774.347656 531.234375 C 784.808594 540.042969 793.617188 547.300781 793.832031 547.40625 C 794.207031 547.511719 805.09375 535.074219 805.09375 534.488281 C 805.09375 534.222656 789.722656 521.089844 788.335938 520.183594 C 788.070312 520.023438 790.683594 516.394531 794.207031 512.175781 C 805.042969 499.152344 810.699219 491.464844 816.945312 481.324219 C 830.023438 460.027344 839.203125 438.300781 845.179688 414.441406 C 847.421875 405.578125 850.464844 388.765625 850.464844 385.457031 C 850.464844 384.390625 850.785156 383.484375 851.160156 383.320312 C 851.585938 383.160156 856.660156 383.425781 862.53125 383.855469 C 868.347656 384.28125 873.3125 384.496094 873.472656 384.28125 C 873.738281 383.960938 875.074219 367.523438 874.859375 367.253906 C 874.804688 367.199219 870.910156 366.933594 866.210938 366.613281 C 861.511719 366.292969 856.441406 365.867188 854.949219 365.707031 L 852.226562 365.441406 L 851.90625 352.257812 C 851.316406 327.761719 847.84375 307.53125 840.320312 284.898438 C 830.550781 255.277344 816.886719 230.933594 796.339844 206.542969 L 792.601562 202.058594 L 800.714844 194.050781 L 808.777344 185.988281 L 802.851562 179.6875 L 796.980469 173.335938 L 788.652344 181.289062 L 780.378906 189.1875 L 773.441406 183.101562 C 747.605469 160.371094 720.222656 144.945312 687.609375 134.644531 C 670.421875 129.199219 653.925781 126.265625 630.972656 124.449219 L 626.808594 124.128906 L 626.808594 101.28125 L 609.726562 101.28125 Z M 609.726562 112.707031 "/>
<path style=" stroke:none;fill-rule:nonzero;fill:rgb(0%,0%,0%);fill-opacity:1;" d="M 724.21875 254.046875 C 715.410156 261.414062 691.925781 281.003906 672.015625 297.605469 L 635.773438 327.761719 L 632.785156 326.320312 C 631.128906 325.519531 628.40625 324.558594 626.804688 324.132812 C 622.855469 323.066406 613.671875 323.121094 609.5625 324.1875 C 597.339844 327.335938 587.570312 337.160156 584.421875 349.382812 C 583.300781 353.652344 583.246094 361.605469 584.367188 366.304688 C 584.792969 368.332031 585.007812 370.09375 584.742188 370.253906 C 584.476562 370.414062 576.679688 376.925781 567.339844 384.664062 L 550.417969 398.753906 L 555.648438 404.144531 C 558.53125 407.132812 563.976562 412.738281 567.710938 416.582031 C 571.449219 420.480469 574.648438 423.679688 574.757812 423.679688 C 574.863281 423.679688 581.75 416.207031 590.023438 407.078125 C 600.59375 395.441406 605.34375 390.585938 605.929688 390.796875 C 612.230469 392.769531 620.339844 393.359375 625.734375 392.183594 C 636.035156 389.886719 644.894531 382.84375 649.488281 373.234375 C 652.261719 367.523438 652.957031 364.371094 652.957031 358.023438 C 652.957031 352.523438 652.261719 348.789062 650.449219 344.734375 L 649.222656 341.855469 L 650.449219 340.46875 C 656.910156 333.476562 739.855469 241.722656 740.175781 241.242188 C 740.386719 240.867188 740.496094 240.601562 740.386719 240.652344 C 740.28125 240.652344 733.019531 246.683594 724.214844 254.050781 Z M 724.21875 254.046875 "/>
<path style="fill:none;stroke-width:0.75;stroke-linecap:butt;stroke-linejoin:miter;stroke:rgb(0%,0%,0%);stroke-opacity:1;stroke-miterlimit:4;" d="M 654.847656 696.335938 L 654.859375 779.578125 "/>
<path style="fill:none;stroke-width:0.75;stroke-linecap:butt;stroke-linejoin:miter;stroke:rgb(0%,0%,0%);stroke-opacity:1;stroke-miterlimit:4;" d="M 592.90625 697.785156 L 592.765625 780.636719 "/>
</g>
</svg>
