<?xml version="1.0" encoding="UTF-8"?>
<svg xmlns="http://www.w3.org/2000/svg" xmlns:xlink="http://www.w3.org/1999/xlink" width="595.275591pt" height="841.889764pt" viewBox="0 0 595.275591 841.889764" version="1.1">
<g id="surface1">
<path style="fill:none;stroke-width:0.264583;stroke-linecap:butt;stroke-linejoin:miter;stroke:rgb(0%,0%,0%);stroke-opacity:1;stroke-miterlimit:4;" d="M 95.422255 103.097928 C 95.422255 108.621105 90.945009 113.098351 85.42321 113.098351 C 79.900033 113.098351 75.422786 108.621105 75.422786 103.097928 C 75.422786 97.57475 79.900033 93.098882 85.42321 93.098882 C 90.945009 93.098882 95.422255 97.57475 95.422255 103.097928 " transform="matrix(2.834646,0,0,2.834646,0.000000000000040283,0)"/>
<path style="fill:none;stroke-width:0.264583;stroke-linecap:butt;stroke-linejoin:miter;stroke:rgb(0%,0%,0%);stroke-opacity:1;stroke-miterlimit:4;" d="M 80.006141 101.237576 L 90.837522 101.237576 L 90.837522 104.958279 L 80.006141 104.958279 Z M 80.006141 101.237576 " transform="matrix(2.834646,0,0,2.834646,0.000000000000040283,0)"/>
<path style="fill:none;stroke-width:0.264583;stroke-linecap:butt;stroke-linejoin:miter;stroke:rgb(0%,0%,0%);stroke-opacity:1;stroke-miterlimit:4;" d="M 97.682237 -87.282183 L 108.513618 -87.282183 L 108.513618 -83.56148 L 97.682237 -83.56148 Z M 97.682237 -87.282183 " transform="matrix(0.000000000000000174,2.834646,-2.834646,0.000000000000000174,0.000000000000040283,0)"/>
</g>
</svg>
