<?xml version="1.0" encoding="UTF-8"?>
<svg xmlns="http://www.w3.org/2000/svg" xmlns:xlink="http://www.w3.org/1999/xlink" width="595.275591pt" height="841.889764pt" viewBox="0 0 595.275591 841.889764" version="1.1">
<g id="surface1">
<path style="fill:none;stroke-width:1;stroke-linecap:butt;stroke-linejoin:miter;stroke:rgb(0%,0%,0%);stroke-opacity:1;stroke-miterlimit:4;" d="M 95 473.3125 C 90.125 483.458333 87.3125 494.239583 87.276042 505.494792 C 87.276042 547.239583 121.390625 581.411458 163.135417 581.411458 C 169.1875 581.411458 175.067708 580.677083 180.713542 579.333333 M 232.911458 534.927083 C 236.651042 525.96875 238.729167 516.135417 238.729167 505.817708 C 238.729167 464.067708 204.885417 430.223958 163.135417 430.223958 C 157.385417 430.255208 151.661458 430.942708 146.067708 432.270833 " transform="matrix(0.75,0,0,0.75,0.000000000000040283,-0.000000000000056843)"/>
<path style="fill:none;stroke-width:0.264583;stroke-linecap:butt;stroke-linejoin:miter;stroke:rgb(0%,0%,0%);stroke-opacity:1;stroke-miterlimit:4;" d="M 38.648455 114.373023 L 38.840002 104.404296 L 125.204402 104.041872 L 125.299486 112.545744 L 130.591152 112.640829 " transform="matrix(2.834646,0,0,2.834646,0.000000000000040283,-0.000000000000056843)"/>
<path style="fill:none;stroke-width:0.264583;stroke-linecap:butt;stroke-linejoin:miter;stroke:rgb(0%,0%,0%);stroke-opacity:1;stroke-miterlimit:4;" d="M 133.048194 112.642207 L 138.434945 112.547122 L 138.433567 92.041916 L 25.121633 92.058453 L 25.134036 125.229206 " transform="matrix(2.834646,0,0,2.834646,0.000000000000040283,-0.000000000000056843)"/>
<path style="fill:none;stroke-width:0.264583;stroke-linecap:butt;stroke-linejoin:miter;stroke:rgb(0%,0%,0%);stroke-opacity:1;stroke-miterlimit:4;" d="M 61.624483 141.534152 L 61.796738 154.19281 L 125.070732 153.586473 L 125.165817 145.271391 L 130.268691 145.176307 " transform="matrix(2.834646,0,0,2.834646,0.000000000000040283,-0.000000000000056843)"/>
<path style="fill:none;stroke-width:0.264583;stroke-linecap:butt;stroke-linejoin:miter;stroke:rgb(0%,0%,0%);stroke-opacity:1;stroke-miterlimit:4;" d="M 133.045438 145.258989 L 138.20619 145.247965 L 138.357775 165.816561 L 47.866151 166.089412 L 47.933675 153.213025 " transform="matrix(2.834646,0,0,2.834646,0.000000000000040283,-0.000000000000056843)"/>
<path style="fill:none;stroke-width:0.264583;stroke-linecap:butt;stroke-linejoin:miter;stroke:rgb(0%,0%,0%);stroke-opacity:1;stroke-miterlimit:4;" d="M 133.048194 112.642207 L 133.046816 145.258989 " transform="matrix(2.834646,0,0,2.834646,0.000000000000040283,-0.000000000000056843)"/>
<!--left small tube-->
<path style="fill:none;stroke-width:0.264583;stroke-linecap:butt;stroke-linejoin:miter;stroke:rgb(0%,0%,0%);stroke-opacity:1;stroke-miterlimit:4;" d="M 130.591152 112.642207 L 130.270069 145.176307 " transform="matrix(2.834646,0,0,2.834646,0.000000000000040283,-0.000000000000056843)"/>
<path style="fill:none;stroke-width:0.75;stroke-linecap:butt;stroke-linejoin:miter;stroke:rgb(0%,0%,0%);stroke-opacity:1;stroke-miterlimit:4;" d="M 345.417969 506.082031 L 433.027344 505.96875 L 433.042969 582.871094 " transform="matrix(1,0,0,1,0,-0.000000000000056843)"/>
<path style="fill:none;stroke-width:0.75;stroke-linecap:butt;stroke-linejoin:miter;stroke:rgb(0%,0%,0%);stroke-opacity:1;stroke-miterlimit:4;" d="M 433.417969 582.828125 L 345.417969 582.808594 L 345.417969 505.738281 " transform="matrix(1,0,0,1,0,-0.000000000000056843)"/>
<path style="fill:none;stroke-width:0.75;stroke-linecap:butt;stroke-linejoin:miter;stroke:rgb(0%,0%,0%);stroke-opacity:1;stroke-miterlimit:4;" d="M 344.949219 514.914062 C 323.144531 513.914062 314.082031 501.757813 310.382812 490.5 C 307.074219 480.433594 307.902344 470.296875 307.902344 470.296875 " transform="matrix(1,0,0,1,0,-0.000000000000056843)"/>
<path style="fill:none;stroke-width:0.75;stroke-linecap:butt;stroke-linejoin:miter;stroke:rgb(0%,0%,0%);stroke-opacity:1;stroke-miterlimit:4;" d="M 345.253906 523.964844 C 322.773438 524.046875 308.667969 510.164063 303.117188 499.394531 C 298.261719 489.972656 297.484375 470.679688 297.484375 470.679688 " transform="matrix(1,0,0,1,0,-0.000000000000056843)"/>
</g>
</svg>
