<?xml version="1.0" encoding="UTF-8"?>
<svg xmlns="http://www.w3.org/2000/svg" xmlns:xlink="http://www.w3.org/1999/xlink" width="595.275591pt" height="841.889764pt" viewBox="0 0 595.275591 841.889764" version="1.1">
<g id="surface1">
<path style="fill:none;stroke-width:3.544001;stroke-linecap:round;stroke-linejoin:round;stroke:rgb(0%,0%,0%);stroke-opacity:1;stroke-miterlimit:4;" d="M 573.999297 647.419063 L 587.999298 647.330521 L 587.999298 661.419063 C 604.400339 661.419063 604.400339 675.288855 587.999298 675.330521 C 604.400339 675.351355 604.337839 689.330521 587.999298 689.330521 C 604.457631 689.288855 604.457631 703.330522 587.999298 703.330522 C 604.337839 703.288855 604.400339 717.309688 587.999298 717.330522 C 604.400339 717.309688 604.400339 731.288855 587.999298 731.330522 L 587.999298 745.330522 L 573.999297 745.419064 " transform="matrix(0.75,0,0,0.75,-197.16353,-139.322103)"/>
<path style="fill:none;stroke-width:7;stroke-linecap:square;stroke-linejoin:bevel;stroke:rgb(0%,0%,0%);stroke-opacity:1;stroke-miterlimit:4;" d="M 608.999298 661.419063 L 608.999298 731.419064 " transform="matrix(0.75,0,0,0.75,-197.16353,-139.322103)"/>
<path style="fill:none;stroke-width:3.544001;stroke-linecap:round;stroke-linejoin:round;stroke:rgb(0%,0%,0%);stroke-opacity:1;stroke-miterlimit:4;" d="M 643.999298 647.419063 L 629.999298 647.330521 L 629.999298 661.419063 C 613.598256 661.419063 613.598256 675.288855 629.999298 675.330521 C 613.598256 675.351355 613.660756 689.330521 629.999298 689.330521 C 613.540965 689.288855 613.540965 703.330522 629.999298 703.330522 C 613.660756 703.288855 613.598256 717.309688 629.999298 717.330522 C 613.598256 717.309688 613.598256 731.288855 629.999298 731.330522 L 629.999298 745.330522 L 643.999298 745.419064 " transform="matrix(0.75,0,0,0.75,-197.16353,-139.322103)"/>
<path style=" stroke:none;fill-rule:nonzero;fill:rgb(0%,0%,0%);fill-opacity:1;" d="M 249.085938 338.367188 C 249.085938 341.867188 243.835938 341.867188 243.835938 338.367188 C 243.835938 334.867188 249.085938 334.867188 249.085938 338.367188 "/>
<path style=" stroke:none;fill-rule:nonzero;fill:rgb(0%,0%,0%);fill-opacity:1;" d="M 275.335938 338.367188 C 275.335938 341.867188 270.085938 341.867188 270.085938 338.367188 C 270.085938 334.867188 275.335938 334.867188 275.335938 338.367188 "/>
</g>
</svg>
