<?xml version="1.0" encoding="UTF-8"?>
<svg xmlns="http://www.w3.org/2000/svg" xmlns:xlink="http://www.w3.org/1999/xlink" width="595.275591pt" height="841.889764pt" viewBox="0 0 595.275591 841.889764" version="1.1">
<g id="surface1">
<!--arrow bar-->
  <path style="fill:none;stroke-width:1;stroke-linecap:butt;stroke-linejoin:miter;stroke:rgb(0%,0%,0%);stroke-opacity:1;stroke-miterlimit:4;" d="M 25.001271 35.0476 L 25.001271 17.001115 " transform="matrix(1.254789,0,0,1.254789,255.351336,298.960157)"/>
<!--small arrow top-->
  <path style="fill-rule:evenodd;fill:rgb(0%,0%,0%);fill-opacity:1;stroke-width:1;stroke-linecap:butt;stroke-linejoin:miter;stroke:rgb(0%,0%,0%);stroke-opacity:1;stroke-miterlimit:4;" d="M 25.001516 15.500613 L 27.001875 18.501616 L 23.001157 18.501616 Z M 25.001516 15.500613 " transform="matrix(1.238059,0,0,1.254789,255.351336,298.960157)"/>
<!--lines-->
  <path style="fill:none;stroke-width:1;stroke-linecap:square;stroke-linejoin:miter;stroke:rgb(0%,0%,0%);stroke-opacity:1;stroke-miterlimit:4;" d="M 40.000058 25.001713 C 40.000058 33.288714 33.285159 40.000499 25.001271 40.000499 C 16.71427 40.000499 10.002485 33.285601 10.002485 25.001713 C 10.002485 16.714712 16.717384 10.002926 25.001271 10.002926 C 33.288272 10.002926 40.000058 16.717825 40.000058 25.001713 Z M 40.000058 25.001713 " transform="matrix(1.254789,0,0,1.254789,255.351336,298.960157)"/>
  <path style="fill:none;stroke-width:1;stroke-linecap:butt;stroke-linejoin:miter;stroke:rgb(0%,0%,0%);stroke-opacity:1;stroke-miterlimit:4;" d="M 25.001271 9.999813 L 25.001271 2.998512 " transform="matrix(1.254789,0,0,1.254789,255.351336,298.960157)"/>
  <path style="fill:none;stroke-width:1;stroke-linecap:butt;stroke-linejoin:miter;stroke:rgb(0%,0%,0%);stroke-opacity:1;stroke-miterlimit:4;" d="M 25.001271 40.000499 L 25.001271 47.001801 " transform="matrix(1.254789,0,0,1.254789,255.351336,298.960157)"/>
  <path style="fill:none;stroke-width:3.4;stroke-linecap:round;stroke-linejoin:miter;stroke:rgb(0%,0%,0%);stroke-opacity:1;stroke-miterlimit:4;" d="M 345.852704 257.051793 L 345.920578 230.396674 " transform="matrix(0.40286,0,0,0.40286,219.943217,168.354271)"/>
  <path style="fill:none;stroke-width:3.4;stroke-linecap:round;stroke-linejoin:round;stroke:rgb(0%,0%,0%);stroke-opacity:1;stroke-miterlimit:4;" d="M 366.641564 287.381808 C 366.777312 286.150379 366.660957 284.715327 366.418549 283.076653 C 365.429527 276.318334 360.222616 266.757786 345.678171 267.775897 C 333.703245 268.619475 332.578475 269.404875 329.73746 271.508971 C 327.769111 272.973112 327.584882 276.017749 327.584882 276.017749 M 345.736349 255.451904 C 348.66463 255.839756 355.868979 256.091859 360.494112 259.417689 C 364.498683 262.307185 366.156749 266.854749 366.418549 269.113986 C 367.203949 275.891697 360.222616 285.432853 345.678171 284.414741 C 333.703245 283.571164 332.578475 282.785764 329.73746 280.681667 C 327.769111 279.217527 327.584882 276.172889 327.584882 276.172889 M 366.65126 310.536564 C 366.787009 309.305135 366.670653 307.870083 366.428246 306.231409 C 365.439223 299.47309 360.232312 289.912542 345.687867 290.930653 C 333.712941 291.774231 332.588171 292.559631 329.747156 294.663727 C 327.778808 296.127868 327.594578 299.172505 327.594578 299.172505 M 366.660957 287.963586 C 366.796705 289.195016 366.680349 290.630068 366.437942 292.268742 C 365.44892 299.02706 360.242008 308.587609 345.697564 307.569497 C 333.722638 306.72592 332.597867 305.94052 329.756852 303.836423 C 327.788504 302.372283 327.604274 299.327645 327.604274 299.327645 M 366.670653 311.118342 C 366.806401 312.349772 366.690046 313.784824 366.447638 315.423498 C 365.458616 322.181816 360.251705 331.742365 345.70726 330.724253 C 333.732334 329.880676 332.607563 329.095276 329.766549 326.991179 C 327.7982 325.536735 327.613971 322.482401 327.613971 322.482401 M 345.794527 366.348447 C 348.228297 366.658728 355.102971 365.950899 359.999601 363.313506 C 365.44892 360.375528 366.505816 355.944321 366.447638 352.540921 C 366.360371 347.867306 360.251705 336.222054 345.70726 337.240165 C 333.732334 338.083742 332.607563 338.869143 329.766549 340.973239 C 327.7982 342.427683 327.613971 345.482017 327.613971 345.482017 M 366.680349 334.273098 C 366.816097 335.504528 366.699742 336.93958 366.457334 338.578254 C 365.468312 345.336572 360.261401 354.897121 345.716956 353.879009 C 333.74203 353.035432 332.61726 352.250032 329.776245 350.145935 C 327.807897 348.691491 327.623667 345.637157 327.623667 345.637157 M 327.623667 322.336957 C 327.623667 322.336957 327.807897 319.29232 329.776245 317.828179 C 332.61726 315.714387 333.74203 314.938683 345.716956 314.095105 C 360.261401 313.067298 365.478008 322.637542 366.457334 329.395861 C 366.699742 331.044231 366.825794 332.479283 366.680349 333.701016 L 366.680349 334.273098 " transform="matrix(0.40286,0,0,0.40286,219.943217,168.354271)"/>
  <path style="fill:none;stroke-width:3.4;stroke-linecap:round;stroke-linejoin:miter;stroke:rgb(0%,0%,0%);stroke-opacity:1;stroke-miterlimit:4;" d="M 345.736349 389.435329 L 345.619993 364.632202 " transform="matrix(0.40286,0,0,0.40286,219.943217,168.354271)"/>
  <path style="fill:none;stroke-width:0.883107;stroke-linecap:butt;stroke-linejoin:bevel;stroke:rgb(0%,0%,0%);stroke-opacity:1;stroke-miterlimit:4;" d="M 18.384527 14.858664 L 30.082164 14.858664 L 32.029422 9.859481 L 35.929574 19.860665 L 39.829726 9.859481 L 43.729877 19.860665 L 47.630029 9.859481 L 51.530181 19.860665 L 53.477439 14.861482 L 65.175076 14.861482 " transform="matrix(0,1.386164,-1.386164,0,379.827014,299.754312)"/>
  <path style="fill:none;stroke-width:0.264583;stroke-linecap:butt;stroke-linejoin:miter;stroke:rgb(0%,0%,0%);stroke-opacity:1;stroke-miterlimit:4;" d="M 126.531452 137.621902 L 101.197601 137.597098 L 101.14937 126.272381 " transform="matrix(2.834646,0,0,2.834646,0.000000000000040283,-0.000000000000170529)"/>
  <path style="fill:none;stroke-width:0.264583;stroke-linecap:butt;stroke-linejoin:miter;stroke:rgb(0%,0%,0%);stroke-opacity:1;stroke-miterlimit:4;" d="M 101.14937 106.793813 L 101.17004 92.187988 L 126.753316 92.134245 " transform="matrix(2.834646,0,0,2.834646,0.000000000000040283,-0.000000000000170529)"/>
<!--current arrow-->
  <path style="fill:none;stroke-width:0.264583;stroke-linecap:butt;stroke-linejoin:miter;stroke:rgb(0%,0%,0%);stroke-opacity:1;stroke-miterlimit:4;" d="M 107.697806 95.196245 L 107.69505 89.12461 L 109.963301 92.16594 " transform="matrix(2.834646,0,0,2.834646,0.000000000000040283,-0.000000000000170529)"/>
<!--inductor text  -->
  <path style=" stroke:none;fill-rule:nonzero;fill:rgb(0%,0%,0%);fill-opacity:1;" d="M 374.957031 298.125 L 374.957031 288.101563 L 376.28125 288.101563 L 376.28125 296.941406 L 381.21875 296.941406 L 381.21875 298.125 Z M 374.957031 298.125 "/>
  <path style=" stroke:none;fill-rule:nonzero;fill:rgb(0%,0%,0%);fill-opacity:1;" d="M 386.195313 298.125 L 388.292969 288.101563 L 389.625 288.101563 L 388.757813 292.265625 L 393.953125 292.265625 L 394.820313 288.101563 L 396.160156 288.101563 L 394.070313 298.125 L 392.730469 298.125 L 393.714844 293.402344 L 388.523438 293.402344 L 387.535156 298.125 Z M 386.195313 298.125 "/>
<!--resistor text-->
  <path style=" stroke:none;fill-rule:nonzero;fill:rgb(0%,0%,0%);fill-opacity:1;" d="M 373.15625 361.875 L 373.15625 351.851563 L 377.597656 351.851563 C 378.488281 351.855469 379.164063 351.945313 379.632813 352.125 C 380.09375 352.304688 380.46875 352.625 380.75 353.078125 C 381.027344 353.539063 381.164063 354.039063 381.167969 354.585938 C 381.164063 355.296875 380.933594 355.898438 380.476563 356.386719 C 380.011719 356.875 379.300781 357.183594 378.34375 357.316406 C 378.691406 357.484375 378.960938 357.652344 379.144531 357.8125 C 379.53125 358.171875 379.898438 358.617188 380.246094 359.148438 L 381.988281 361.875 L 380.320313 361.875 L 378.992188 359.789063 C 378.605469 359.1875 378.285156 358.730469 378.035156 358.410156 C 377.78125 358.09375 377.558594 357.867188 377.363281 357.738281 C 377.164063 357.613281 376.960938 357.527344 376.757813 357.472656 C 376.605469 357.445313 376.359375 357.429688 376.019531 357.425781 L 374.480469 357.425781 L 374.480469 361.875 Z M 374.480469 356.277344 L 377.332031 356.277344 C 377.9375 356.28125 378.410156 356.21875 378.753906 356.089844 C 379.089844 355.964844 379.351563 355.761719 379.53125 355.488281 C 379.710938 355.214844 379.800781 354.914063 379.800781 354.585938 C 379.800781 354.113281 379.628906 353.726563 379.285156 353.417969 C 378.941406 353.117188 378.394531 352.964844 377.652344 352.960938 L 374.480469 352.960938 Z M 374.480469 356.277344 "/>
  <path style=" stroke:none;fill-rule:nonzero;fill:rgb(0%,0%,0%);fill-opacity:1;" d="M 386.101563 361.875 L 386.347656 360.738281 L 388.84375 360.738281 C 387.859375 359.808594 387.367188 358.675781 387.367188 357.335938 C 387.367188 356.390625 387.597656 355.472656 388.066406 354.585938 C 388.53125 353.699219 389.160156 352.996094 389.949219 352.46875 C 390.734375 351.949219 391.625 351.6875 392.625 351.683594 C 393.78125 351.6875 394.738281 352.097656 395.496094 352.921875 C 396.246094 353.746094 396.625 354.832031 396.628906 356.179688 C 396.625 358.140625 395.84375 359.660156 394.285156 360.738281 L 396.460938 360.738281 L 396.214844 361.875 L 392.042969 361.875 L 392.28125 360.828125 C 393.269531 360.515625 394.023438 359.921875 394.546875 359.050781 C 395.066406 358.183594 395.328125 357.222656 395.332031 356.160156 C 395.328125 355.136719 395.0625 354.320313 394.527344 353.710938 C 393.992188 353.105469 393.316406 352.800781 392.507813 352.796875 C 391.464844 352.800781 390.570313 353.269531 389.820313 354.210938 C 389.066406 355.15625 388.691406 356.265625 388.695313 357.535156 C 388.691406 359.078125 389.3125 360.175781 390.554688 360.828125 L 390.320313 361.875 Z M 386.101563 361.875 "/>
<!--voltage source text-->
  <path style=" stroke:none;fill-rule:nonzero;fill:rgb(0%,0%,0%);fill-opacity:1;" d="M 181.335938 334.023438 L 181.335938 324 L 182.664063 324 L 182.664063 334.023438 Z M 181.335938 334.023438 "/>
  <path style=" stroke:none;fill-rule:nonzero;fill:rgb(0%,0%,0%);fill-opacity:1;" d="M 184.515625 334.023438 L 184.515625 328.296875 L 185.65625 328.296875 L 187.011719 332.351563 C 187.132813 332.734375 187.226563 333.015625 187.285156 333.199219 C 187.347656 332.992188 187.449219 332.6875 187.589844 332.28125 L 188.960938 328.296875 L 189.980469 328.296875 L 189.980469 334.023438 L 189.25 334.023438 L 189.25 329.230469 L 187.585938 334.023438 L 186.902344 334.023438 L 185.246094 329.148438 L 185.246094 334.023438 Z M 184.515625 334.023438 "/>
  <path style=" stroke:none;fill-rule:nonzero;fill:rgb(0%,0%,0%);fill-opacity:1;" d="M 196.246094 331.363281 L 197.457031 331.519531 C 197.320313 332.359375 196.980469 333.011719 196.441406 333.480469 C 195.894531 333.953125 195.226563 334.1875 194.433594 334.1875 C 193.4375 334.1875 192.640625 333.863281 192.039063 333.214844 C 191.433594 332.566406 191.128906 331.636719 191.132813 330.421875 C 191.128906 329.640625 191.261719 328.953125 191.523438 328.363281 C 191.78125 327.777344 192.175781 327.335938 192.707031 327.039063 C 193.238281 326.746094 193.816406 326.601563 194.441406 326.597656 C 195.230469 326.601563 195.875 326.800781 196.375 327.199219 C 196.875 327.601563 197.195313 328.167969 197.339844 328.894531 L 196.144531 329.082031 C 196.027344 328.597656 195.824219 328.230469 195.539063 327.980469 C 195.246094 327.738281 194.898438 327.613281 194.488281 327.609375 C 193.867188 327.613281 193.363281 327.835938 192.976563 328.277344 C 192.589844 328.726563 192.394531 329.429688 192.398438 330.386719 C 192.394531 331.363281 192.582031 332.070313 192.957031 332.511719 C 193.328125 332.957031 193.816406 333.179688 194.421875 333.175781 C 194.902344 333.179688 195.304688 333.03125 195.628906 332.730469 C 195.953125 332.4375 196.160156 331.980469 196.246094 331.363281 Z M 196.246094 331.363281 "/>
  <path style=" stroke:none;fill-rule:nonzero;fill:rgb(0%,0%,0%);fill-opacity:1;" d="M 198.050781 330.394531 C 198.046875 329.050781 198.421875 328.054688 199.171875 327.40625 C 199.792969 326.871094 200.554688 326.601563 201.457031 326.597656 C 202.453125 326.601563 203.269531 326.929688 203.902344 327.582031 C 204.535156 328.238281 204.851563 329.140625 204.851563 330.289063 C 204.851563 331.226563 204.710938 331.960938 204.429688 332.496094 C 204.148438 333.03125 203.738281 333.445313 203.207031 333.742188 C 202.667969 334.039063 202.085938 334.1875 201.457031 334.1875 C 200.4375 334.1875 199.613281 333.863281 198.988281 333.210938 C 198.359375 332.558594 198.046875 331.621094 198.050781 330.394531 Z M 199.316406 330.394531 C 199.3125 331.328125 199.515625 332.023438 199.921875 332.484375 C 200.324219 332.949219 200.835938 333.179688 201.457031 333.175781 C 202.0625 333.179688 202.570313 332.949219 202.980469 332.480469 C 203.382813 332.019531 203.585938 331.308594 203.589844 330.351563 C 203.585938 329.457031 203.382813 328.777344 202.976563 328.3125 C 202.566406 327.851563 202.058594 327.621094 201.457031 327.617188 C 200.835938 327.621094 200.324219 327.851563 199.921875 328.308594 C 199.515625 328.773438 199.3125 329.46875 199.316406 330.394531 Z M 199.316406 330.394531 "/>
  <path style=" stroke:none;fill-rule:nonzero;fill:rgb(0%,0%,0%);fill-opacity:1;" d="M 205.800781 331.855469 L 207.019531 331.664063 C 207.082031 332.152344 207.273438 332.527344 207.589844 332.785156 C 207.898438 333.050781 208.335938 333.179688 208.898438 333.175781 C 209.460938 333.179688 209.878906 333.066406 210.15625 332.832031 C 210.425781 332.605469 210.5625 332.332031 210.566406 332.019531 C 210.5625 331.742188 210.441406 331.523438 210.203125 331.363281 C 210.035156 331.253906 209.617188 331.117188 208.945313 330.945313 C 208.042969 330.722656 207.417969 330.523438 207.070313 330.355469 C 206.71875 330.191406 206.453125 329.960938 206.277344 329.664063 C 206.09375 329.371094 206.003906 329.046875 206.007813 328.691406 C 206.003906 328.371094 206.078125 328.074219 206.230469 327.792969 C 206.375 327.519531 206.578125 327.289063 206.835938 327.105469 C 207.023438 326.96875 207.28125 326.847656 207.617188 326.746094 C 207.945313 326.648438 208.300781 326.601563 208.679688 326.597656 C 209.246094 326.601563 209.746094 326.683594 210.179688 326.84375 C 210.609375 327.011719 210.925781 327.234375 211.132813 327.511719 C 211.335938 327.796875 211.480469 328.171875 211.558594 328.636719 L 210.355469 328.800781 C 210.296875 328.429688 210.136719 328.136719 209.878906 327.925781 C 209.613281 327.71875 209.246094 327.613281 208.769531 327.609375 C 208.203125 327.613281 207.796875 327.707031 207.558594 327.890625 C 207.3125 328.082031 207.191406 328.300781 207.195313 328.546875 C 207.191406 328.707031 207.242188 328.851563 207.347656 328.976563 C 207.441406 329.113281 207.601563 329.222656 207.820313 329.304688 C 207.941406 329.355469 208.300781 329.460938 208.90625 329.621094 C 209.773438 329.855469 210.382813 330.042969 210.726563 330.191406 C 211.070313 330.339844 211.339844 330.558594 211.535156 330.839844 C 211.730469 331.125 211.828125 331.472656 211.832031 331.890625 C 211.828125 332.300781 211.707031 332.6875 211.472656 333.050781 C 211.230469 333.414063 210.886719 333.695313 210.4375 333.890625 C 209.984375 334.089844 209.472656 334.1875 208.90625 334.1875 C 207.960938 334.1875 207.242188 333.992188 206.75 333.601563 C 206.25 333.210938 205.933594 332.628906 205.800781 331.855469 Z M 205.800781 331.855469 "/>
  <path style=" stroke:none;fill-rule:nonzero;fill:rgb(0%,0%,0%);fill-opacity:1;" d="M 215.644531 336.96875 C 214.964844 336.109375 214.390625 335.109375 213.921875 333.960938 C 213.449219 332.816406 213.214844 331.628906 213.21875 330.394531 C 213.214844 329.3125 213.390625 328.273438 213.746094 327.277344 C 214.152344 326.128906 214.785156 324.980469 215.644531 323.832031 L 216.527344 323.832031 C 215.972656 324.785156 215.609375 325.460938 215.433594 325.859375 C 215.152344 326.492188 214.933594 327.148438 214.777344 327.828125 C 214.578125 328.6875 214.480469 329.542969 214.484375 330.398438 C 214.480469 332.59375 215.160156 334.78125 216.527344 336.96875 Z M 215.644531 336.96875 "/>
  <path style=" stroke:none;fill-rule:nonzero;fill:rgb(0%,0%,0%);fill-opacity:1;" d="M 218.710938 326.761719 L 219.898438 326.761719 C 219.21875 328.265625 218.878906 329.53125 218.882813 330.5625 C 218.878906 331.363281 219.027344 332.007813 219.320313 332.492188 C 219.609375 332.984375 219.980469 333.226563 220.433594 333.222656 C 220.722656 333.226563 220.996094 333.113281 221.253906 332.882813 C 221.507813 332.65625 221.675781 332.382813 221.761719 332.0625 C 221.84375 331.746094 221.886719 331.300781 221.890625 330.722656 L 221.890625 328.59375 L 223.113281 328.59375 L 223.113281 330.722656 C 223.109375 331.285156 223.152344 331.726563 223.238281 332.054688 C 223.320313 332.382813 223.492188 332.660156 223.75 332.886719 C 224.007813 333.113281 224.28125 333.226563 224.574219 333.222656 C 225.019531 333.226563 225.390625 332.984375 225.683594 332.496094 C 225.972656 332.011719 226.117188 331.367188 226.121094 330.5625 C 226.117188 329.53125 225.78125 328.265625 225.109375 326.761719 L 226.292969 326.761719 C 227.011719 328.046875 227.371094 329.289063 227.371094 330.488281 C 227.371094 331.699219 227.121094 332.617188 226.621094 333.246094 C 226.121094 333.875 225.484375 334.1875 224.710938 334.1875 C 223.679688 334.1875 222.941406 333.644531 222.503906 332.554688 C 222.054688 333.644531 221.316406 334.1875 220.289063 334.1875 C 219.46875 334.1875 218.824219 333.859375 218.347656 333.195313 C 217.867188 332.539063 217.625 331.636719 217.628906 330.488281 C 217.625 329.289063 217.988281 328.046875 218.710938 326.761719 Z M 218.710938 326.761719 "/>
  <path style=" stroke:none;fill-rule:nonzero;fill:rgb(0%,0%,0%);fill-opacity:1;" d="M 231.574219 332.921875 L 231.753906 334.007813 C 231.40625 334.082031 231.097656 334.117188 230.824219 334.121094 C 230.375 334.117188 230.027344 334.050781 229.78125 333.910156 C 229.535156 333.769531 229.359375 333.582031 229.261719 333.351563 C 229.160156 333.121094 229.113281 332.636719 229.113281 331.898438 L 229.113281 327.71875 L 228.210938 327.71875 L 228.210938 326.761719 L 229.113281 326.761719 L 229.113281 324.964844 L 230.335938 324.226563 L 230.335938 326.761719 L 231.574219 326.761719 L 231.574219 327.71875 L 230.335938 327.71875 L 230.335938 331.964844 C 230.332031 332.320313 230.355469 332.546875 230.402344 332.644531 C 230.445313 332.746094 230.515625 332.824219 230.613281 332.882813 C 230.710938 332.941406 230.851563 332.96875 231.035156 332.96875 C 231.167969 332.96875 231.347656 332.953125 231.574219 332.921875 Z M 231.574219 332.921875 "/>
  <path style=" stroke:none;fill-rule:nonzero;fill:rgb(0%,0%,0%);fill-opacity:1;" d="M 232.300781 331.015625 L 232.300781 329.777344 L 236.082031 329.777344 L 236.082031 331.015625 Z M 232.300781 331.015625 "/>
  <path style=" stroke:none;fill-rule:nonzero;fill:rgb(0%,0%,0%);fill-opacity:1;" d="M 239.925781 326.621094 L 239.6875 327.6875 C 238.742188 328.003906 238.273438 328.828125 238.273438 330.160156 C 238.273438 330.871094 238.457031 331.5 238.828125 332.050781 C 239.199219 332.609375 239.753906 332.964844 240.496094 333.121094 L 240.496094 328.609375 C 240.492188 328.125 240.527344 327.753906 240.597656 327.492188 C 240.664063 327.230469 240.820313 327.015625 241.0625 326.847656 C 241.304688 326.683594 241.636719 326.601563 242.058594 326.597656 C 242.710938 326.601563 243.238281 326.734375 243.648438 326.996094 C 244.054688 327.261719 244.402344 327.675781 244.683594 328.246094 C 244.964844 328.816406 245.105469 329.429688 245.109375 330.085938 C 245.105469 330.632813 244.992188 331.183594 244.773438 331.730469 C 244.546875 332.285156 244.183594 332.789063 243.683594 333.246094 C 243.179688 333.707031 242.523438 334.019531 241.710938 334.195313 L 241.710938 336.804688 L 240.496094 336.804688 L 240.496094 334.195313 C 239.644531 334.191406 238.851563 333.824219 238.113281 333.082031 C 237.375 332.339844 237.007813 331.382813 237.007813 330.214844 C 237.007813 329.136719 237.300781 328.265625 237.890625 327.59375 C 238.480469 326.929688 239.160156 326.605469 239.925781 326.621094 Z M 241.710938 333.066406 C 242.285156 332.964844 242.78125 332.640625 243.195313 332.097656 C 243.609375 331.554688 243.816406 330.84375 243.816406 329.960938 C 243.816406 329.148438 243.664063 328.554688 243.363281 328.179688 C 243.0625 327.808594 242.746094 327.621094 242.410156 327.617188 C 242.167969 327.621094 241.988281 327.703125 241.878906 327.867188 C 241.761719 328.035156 241.707031 328.402344 241.710938 328.964844 Z M 241.710938 333.066406 "/>
  <path style=" stroke:none;fill-rule:nonzero;fill:rgb(0%,0%,0%);fill-opacity:1;" d="M 247.324219 336.96875 L 246.441406 336.96875 C 247.800781 334.78125 248.480469 332.59375 248.484375 330.398438 C 248.480469 329.542969 248.382813 328.695313 248.191406 327.851563 C 248.035156 327.171875 247.820313 326.515625 247.542969 325.882813 C 247.363281 325.476563 246.996094 324.792969 246.441406 323.832031 L 247.324219 323.832031 C 248.175781 324.980469 248.808594 326.128906 249.222656 327.277344 C 249.570313 328.273438 249.746094 329.3125 249.75 330.394531 C 249.746094 331.628906 249.511719 332.816406 249.042969 333.960938 C 248.570313 335.109375 247.996094 336.109375 247.324219 336.96875 Z M 247.324219 336.96875 "/>
  <path style=" stroke:none;fill-rule:nonzero;fill:rgb(0%,0%,0%);fill-opacity:1;" d="M 257.8125 334.023438 L 255.886719 324 L 257.175781 324 L 258.339844 329.976563 C 258.550781 331.0625 258.691406 331.9375 258.757813 332.601563 C 259.175781 331.746094 259.519531 331.066406 259.789063 330.5625 L 263.363281 324 L 264.746094 324 L 259.25 334.023438 Z M 257.8125 334.023438 "/>
<!--ground-->
  <path style="fill:none;stroke-width:0.205363;stroke-linecap:butt;stroke-linejoin:miter;stroke:rgb(0%,0%,0%);stroke-opacity:1;stroke-miterlimit:4;" d="M 101.197601 137.597098 L 101.186577 139.609033 L 98.313367 139.593875 " transform="matrix(2.834646,0,0,2.834646,0.000000000000040283,-0.000000000000170529)"/>
  <path style="fill:none;stroke-width:0.205363;stroke-linecap:butt;stroke-linejoin:miter;stroke:rgb(0%,0%,0%);stroke-opacity:1;stroke-miterlimit:4;" d="M 101.186577 139.610411 L 104.149359 139.621436 " transform="matrix(2.834646,0,0,2.834646,0.000000000000040283,-0.000000000000170529)"/>
  <path style="fill:none;stroke-width:0.205363;stroke-linecap:butt;stroke-linejoin:miter;stroke:rgb(0%,0%,0%);stroke-opacity:1;stroke-miterlimit:4;" d="M 99.046484 140.550233 L 103.436913 140.559879 " transform="matrix(2.834646,0,0,2.834646,0.000000000000040283,-0.000000000000170529)"/>
  <path style="fill:none;stroke-width:0.205363;stroke-linecap:butt;stroke-linejoin:miter;stroke:rgb(0%,0%,0%);stroke-opacity:1;stroke-miterlimit:4;" d="M 99.982171 141.448714 C 101.003298 141.448714 101.751572 141.448714 102.531542 141.448714 " transform="matrix(2.834646,0,0,2.834646,0.000000000000040283,-0.000000000000170529)"/>
<!--voltage label-->
  <path style=" stroke:none;fill-rule:nonzero;fill:rgb(0%,0%,0%);fill-opacity:1;" d="M 357.703125 258.433594 L 352.710938 245.550781 L 354.558594 245.550781 L 357.90625 254.910156 C 358.175781 255.664063 358.398438 256.367188 358.582031 257.019531 C 358.777344 256.320313 359.011719 255.617188 359.277344 254.910156 L 362.757813 245.550781 L 364.5 245.550781 L 359.453125 258.433594 Z M 357.703125 258.433594 "/>
<!--current label-->
  <path style=" stroke:none;fill-rule:nonzero;fill:rgb(0%,0%,0%);fill-opacity:1;" d="M 307.46875 234.511719 C 307.671875 234.515625 308.511719 234.480469 309.984375 234.40625 C 310.03125 234.46875 310.054688 234.570313 310.050781 234.71875 C 310.046875 234.867188 310.023438 234.972656 309.984375 235.027344 C 309.765625 235.03125 309.472656 235.0625 309.101563 235.125 C 308.726563 235.191406 308.523438 235.273438 308.5 235.371094 C 308.425781 235.601563 308.390625 236.132813 308.394531 236.964844 L 308.394531 246.136719 C 308.390625 246.972656 308.425781 247.5 308.5 247.726563 C 308.523438 247.828125 308.726563 247.914063 309.101563 247.976563 C 309.472656 248.042969 309.765625 248.074219 309.984375 248.070313 C 310.023438 248.132813 310.046875 248.234375 310.050781 248.382813 C 310.054688 248.53125 310.03125 248.632813 309.984375 248.691406 C 308.511719 248.621094 307.671875 248.589844 307.46875 248.585938 C 307.242188 248.589844 306.398438 248.621094 304.933594 248.691406 C 304.882813 248.632813 304.859375 248.53125 304.863281 248.382813 C 304.867188 248.234375 304.890625 248.132813 304.933594 248.070313 C 305.148438 248.074219 305.441406 248.042969 305.816406 247.976563 C 306.183594 247.914063 306.386719 247.828125 306.417969 247.726563 C 306.488281 247.5 306.523438 246.972656 306.523438 246.136719 L 306.523438 236.964844 C 306.523438 236.132813 306.488281 235.601563 306.417969 235.371094 C 306.386719 235.273438 306.183594 235.191406 305.816406 235.125 C 305.441406 235.0625 305.148438 235.03125 304.933594 235.027344 C 304.890625 234.972656 304.867188 234.867188 304.863281 234.71875 C 304.859375 234.570313 304.882813 234.46875 304.933594 234.40625 C 306.398438 234.480469 307.242188 234.515625 307.46875 234.511719 Z M 307.46875 234.511719 "/>
</g>
</svg>
